<svg width="21" height="15" viewBox="0 0 21 15" fill="none" xmlns="http://www.w3.org/2000/svg">
<path d="M18.3662 0H1.66965C0.747866 0 0 0.719866 0 1.60714V13.3929C0 14.2801 0.747866 15 1.66965 15H18.3662C19.288 15 20.0358 14.2801 20.0358 13.3929V1.60714C20.0358 0.719866 19.288 0 18.3662 0ZM18.3662 13.3929H1.66965V1.60714H18.3662V13.3929ZM7.23517 7.5C8.46306 7.5 9.46137 6.53906 9.46137 5.35714C9.46137 4.17522 8.46306 3.21429 7.23517 3.21429C6.00727 3.21429 5.00896 4.17522 5.00896 5.35714C5.00896 6.53906 6.00727 7.5 7.23517 7.5ZM4.11848 11.7857H10.3519C10.7832 11.7857 11.131 11.4978 11.131 11.1429V10.5C11.131 9.43527 10.084 8.57143 8.79351 8.57143C8.41784 8.57143 8.14304 8.83929 7.23517 8.83929C6.29946 8.83929 6.07337 8.57143 5.67682 8.57143C4.38632 8.57143 3.33931 9.43527 3.33931 10.5V11.1429C3.33931 11.4978 3.68715 11.7857 4.11848 11.7857ZM12.5224 9.64286H16.4183C16.5713 9.64286 16.6965 9.52232 16.6965 9.375V8.83929C16.6965 8.69196 16.5713 8.57143 16.4183 8.57143H12.5224C12.3694 8.57143 12.2441 8.69196 12.2441 8.83929V9.375C12.2441 9.52232 12.3694 9.64286 12.5224 9.64286ZM12.5224 7.5H16.4183C16.5713 7.5 16.6965 7.37946 16.6965 7.23214V6.69643C16.6965 6.54911 16.5713 6.42857 16.4183 6.42857H12.5224C12.3694 6.42857 12.2441 6.54911 12.2441 6.69643V7.23214C12.2441 7.37946 12.3694 7.5 12.5224 7.5ZM12.5224 5.35714H16.4183C16.5713 5.35714 16.6965 5.23661 16.6965 5.08929V4.55357C16.6965 4.40625 16.5713 4.28571 16.4183 4.28571H12.5224C12.3694 4.28571 12.2441 4.40625 12.2441 4.55357V5.08929C12.2441 5.23661 12.3694 5.35714 12.5224 5.35714Z" fill="#404040"/>
</svg>
