<svg width="21" height="20" viewBox="0 0 21 20" fill="none" xmlns="http://www.w3.org/2000/svg">
<path d="M18.0727 13.6386L15.2397 13.3158C14.5594 13.2378 13.8902 13.4716 13.4106 13.9504L11.3583 15.999C8.2019 14.3957 5.61429 11.8239 4.00819 8.66193L6.07159 6.60221C6.55119 6.12347 6.78541 5.45545 6.70733 4.77631L6.38388 1.97064C6.25004 0.846153 5.302 0 4.16434 0H2.23479C0.97445 0 -0.0739771 1.04656 0.0040972 2.30465C0.595231 11.8127 8.21306 19.4058 17.727 19.9959C18.9873 20.0738 20.0357 19.0273 20.0357 17.7692V15.8431C20.0469 14.7186 19.1992 13.7722 18.0727 13.6386Z" fill="#404040"/>
</svg>
