<svg width="20" height="20" viewBox="0 0 20 20" fill="none" xmlns="http://www.w3.org/2000/svg">
<path d="M9.99935 16.666C6.32435 16.666 3.33268 13.6743 3.33268 9.99935C3.33268 6.32435 6.32435 3.33268 9.99935 3.33268C13.6743 3.33268 16.666 6.32435 16.666 9.99935C16.666 13.6743 13.6743 16.666 9.99935 16.666ZM9.99935 1.66602C5.39101 1.66602 1.66602 5.39101 1.66602 9.99935C1.66602 14.6077 5.39101 18.3327 9.99935 18.3327C14.6077 18.3327 18.3327 14.6077 18.3327 9.99935C18.3327 5.39101 14.6077 1.66602 9.99935 1.66602ZM12.1577 6.66601L9.99935 8.82435L7.84101 6.66601L6.66601 7.84101L8.82435 9.99935L6.66601 12.1577L7.84101 13.3327L9.99935 11.1743L12.1577 13.3327L13.3327 12.1577L11.1743 9.99935L13.3327 7.84101L12.1577 6.66601Z" fill="#E82327"/>
</svg>
