<svg width="24" height="24" viewBox="0 0 24 24" fill="none" xmlns="http://www.w3.org/2000/svg">
<path d="M11.2034 13.3851H12.7997C13.0178 13.3851 13.1945 13.2276 13.1945 13.0334C13.1945 12.8391 13.0178 12.6816 12.7997 12.6816H11.2034C10.9854 12.6816 10.8086 12.8391 10.8086 13.0334C10.8086 13.2276 10.9853 13.3851 11.2034 13.3851Z" fill="#E82327"/>
<path d="M10.1965 4.41043C10.0307 4.28431 9.78147 4.30176 9.63987 4.44945L5.5399 8.72629C5.3983 8.87403 5.41793 9.09605 5.5837 9.22221C5.65808 9.27881 5.74925 9.30648 5.83994 9.30648C5.95143 9.30648 6.06224 9.2646 6.14036 9.18319L10.2403 4.90634C10.3819 4.75861 10.3622 4.53659 10.1965 4.41043Z" fill="#E82327"/>
<path d="M5.57779 6.96564C5.65302 7.0252 5.74666 7.05451 5.83994 7.05451C5.9488 7.05451 6.05718 7.01465 6.13514 6.93647L7.24335 5.82566C7.38822 5.68046 7.37353 5.45815 7.21056 5.32909C7.04754 5.20002 6.79803 5.2131 6.65321 5.3583L5.545 6.46912C5.40019 6.61427 5.41488 6.83657 5.57779 6.96564Z" fill="#E82327"/>
<path d="M21.778 19.6378C21.6705 19.3357 21.3594 19.1328 21.0038 19.1328H7.64729C7.42926 19.1328 7.2525 19.2903 7.2525 19.4846C7.2525 19.6788 7.42926 19.8363 7.64729 19.8363H21.0038C21.0137 19.8363 21.0224 19.842 21.0254 19.8503L22.2418 23.2699C22.243 23.2733 22.2452 23.2796 22.2385 23.2879C22.2318 23.2961 22.2243 23.2961 22.2203 23.2961H1.78164C1.77764 23.2961 1.77022 23.2961 1.76343 23.2879C1.75669 23.2796 1.7589 23.2733 1.76011 23.2699L2.97655 19.8503C2.97955 19.8419 2.98819 19.8363 2.99808 19.8363H5.86519C6.08322 19.8363 6.25998 19.6788 6.25998 19.4846C6.25998 19.2903 6.08322 19.1328 5.86519 19.1328H2.99814C2.64251 19.1328 2.33135 19.3357 2.22392 19.6378L1.00748 23.0574C0.928359 23.2797 0.971681 23.5152 1.12634 23.7034C1.28099 23.8916 1.51987 23.9996 1.78164 23.9996H22.2202C22.482 23.9996 22.7209 23.8916 22.8755 23.7034C23.0302 23.5152 23.0735 23.2797 22.9944 23.0574L21.778 19.6378Z" fill="#E82327"/>
<path d="M22.4211 0H1.57881C0.708262 0 0 0.631031 0 1.40665V13.3198C0 14.0954 0.708262 14.7264 1.57881 14.7264H9.33084C9.30373 15.4331 9.22583 16.6057 9.05586 17.2631H7.35655C7.13852 17.2631 6.96176 17.4206 6.96176 17.6148C6.96176 17.8091 7.13852 17.9666 7.35655 17.9666H16.6434C16.8615 17.9666 17.0382 17.8091 17.0382 17.6148C17.0382 17.4206 16.8615 17.2631 16.6434 17.2631H14.9441C14.7742 16.6057 14.6963 15.4331 14.6692 14.7264H22.4212C23.2917 14.7264 24 14.0954 24 13.3198V1.40665C23.9999 0.631031 23.2916 0 22.4211 0V0ZM9.86198 17.2631C10.0362 16.468 10.0992 15.3028 10.1206 14.7264H13.8792C13.9007 15.3028 13.9637 16.468 14.1379 17.2631H9.86198ZM23.2103 13.3198C23.2103 13.7075 22.8563 14.023 22.4211 14.023H1.57881C1.14364 14.023 0.78959 13.7075 0.78959 13.3198V12.045H23.2104V13.3198H23.2103ZM23.2103 11.3415H22.1732V6.14949C22.1732 5.95524 21.9964 5.79775 21.7784 5.79775C21.5604 5.79775 21.3836 5.95524 21.3836 6.14949V11.3415H2.61628V2.38446C2.61628 2.3332 2.66308 2.2915 2.72061 2.2915H21.2793C21.3368 2.2915 21.3836 2.3332 21.3836 2.38446V4.54005C21.3836 4.7343 21.5604 4.89179 21.7784 4.89179C21.9964 4.89179 22.1732 4.7343 22.1732 4.54005V2.38446C22.1732 1.94529 21.7722 1.58801 21.2793 1.58801H2.72061C2.2277 1.58801 1.82669 1.94529 1.82669 2.38446V11.3415H0.78959V1.40665C0.78959 1.01894 1.14364 0.703491 1.57881 0.703491H22.4211C22.8563 0.703491 23.2103 1.01894 23.2103 1.40665V11.3415Z" fill="#E82327"/>
<path d="M5.8641 20.5859H5.32839C5.11036 20.5859 4.93359 20.7434 4.93359 20.9377C4.93359 21.1319 5.11036 21.2894 5.32839 21.2894H5.8641C6.08213 21.2894 6.25889 21.1319 6.25889 20.9377C6.25889 20.7434 6.08213 20.5859 5.8641 20.5859Z" fill="#E82327"/>
<path d="M7.47292 21.2894H8.00863C8.22666 21.2894 8.40343 21.1319 8.40343 20.9377C8.40343 20.7434 8.22666 20.5859 8.00863 20.5859H7.47292C7.25489 20.5859 7.07812 20.7434 7.07812 20.9377C7.07812 21.1319 7.25489 21.2894 7.47292 21.2894Z" fill="#E82327"/>
<path d="M9.6155 21.2894H10.1512C10.3692 21.2894 10.546 21.1319 10.546 20.9377C10.546 20.7434 10.3692 20.5859 10.1512 20.5859H9.6155C9.39747 20.5859 9.2207 20.7434 9.2207 20.9377C9.2207 21.1319 9.39747 21.2894 9.6155 21.2894Z" fill="#E82327"/>
<path d="M11.7581 21.2894H12.2938C12.5118 21.2894 12.6886 21.1319 12.6886 20.9377C12.6886 20.7434 12.5118 20.5859 12.2938 20.5859H11.7581C11.54 20.5859 11.3633 20.7434 11.3633 20.9377C11.3633 21.1319 11.54 21.2894 11.7581 21.2894Z" fill="#E82327"/>
<path d="M13.8987 21.2894H14.4344C14.6524 21.2894 14.8292 21.1319 14.8292 20.9377C14.8292 20.7434 14.6524 20.5859 14.4344 20.5859H13.8987C13.6807 20.5859 13.5039 20.7434 13.5039 20.9377C13.5039 21.1319 13.6807 21.2894 13.8987 21.2894Z" fill="#E82327"/>
<path d="M16.0452 21.2894H16.5809C16.7989 21.2894 16.9757 21.1319 16.9757 20.9377C16.9757 20.7434 16.7989 20.5859 16.5809 20.5859H16.0452C15.8272 20.5859 15.6504 20.7434 15.6504 20.9377C15.6504 21.1319 15.8272 21.2894 16.0452 21.2894Z" fill="#E82327"/>
<path d="M18.137 21.2894H18.6727C18.8907 21.2894 19.0675 21.1319 19.0675 20.9377C19.0675 20.7434 18.8907 20.5859 18.6727 20.5859H18.137C17.919 20.5859 17.7422 20.7434 17.7422 20.9377C17.7422 21.1319 17.919 21.2894 18.137 21.2894Z" fill="#E82327"/>
<path d="M5.8641 21.8438H5.32839C5.11036 21.8438 4.93359 22.0012 4.93359 22.1955C4.93359 22.3898 5.11036 22.5472 5.32839 22.5472H5.8641C6.08213 22.5472 6.25889 22.3898 6.25889 22.1955C6.25889 22.0012 6.08213 21.8438 5.8641 21.8438Z" fill="#E82327"/>
<path d="M7.47292 22.5472H8.00863C8.22666 22.5472 8.40343 22.3898 8.40343 22.1955C8.40343 22.0012 8.22666 21.8438 8.00863 21.8438H7.47292C7.25489 21.8438 7.07812 22.0012 7.07812 22.1955C7.07812 22.3898 7.25489 22.5472 7.47292 22.5472Z" fill="#E82327"/>
<path d="M9.6155 22.5472H10.1512C10.3692 22.5472 10.546 22.3898 10.546 22.1955C10.546 22.0012 10.3692 21.8438 10.1512 21.8438H9.6155C9.39747 21.8438 9.2207 22.0012 9.2207 22.1955C9.2207 22.3898 9.39747 22.5472 9.6155 22.5472Z" fill="#E82327"/>
<path d="M11.7581 22.5472H12.2938C12.5118 22.5472 12.6886 22.3898 12.6886 22.1955C12.6886 22.0012 12.5118 21.8438 12.2938 21.8438H11.7581C11.54 21.8438 11.3633 22.0012 11.3633 22.1955C11.3633 22.3898 11.54 22.5472 11.7581 22.5472Z" fill="#E82327"/>
<path d="M13.8987 22.5472H14.4344C14.6524 22.5472 14.8292 22.3898 14.8292 22.1955C14.8292 22.0012 14.6524 21.8438 14.4344 21.8438H13.8987C13.6807 21.8438 13.5039 22.0012 13.5039 22.1955C13.5039 22.3898 13.6807 22.5472 13.8987 22.5472Z" fill="#E82327"/>
<path d="M16.0452 22.5472H16.5809C16.7989 22.5472 16.9757 22.3898 16.9757 22.1955C16.9757 22.0012 16.7989 21.8438 16.5809 21.8438H16.0452C15.8272 21.8438 15.6504 22.0012 15.6504 22.1955C15.6504 22.3898 15.8272 22.5472 16.0452 22.5472Z" fill="#E82327"/>
<path d="M18.137 22.5472H18.6727C18.8907 22.5472 19.0675 22.3898 19.0675 22.1955C19.0675 22.0012 18.8907 21.8438 18.6727 21.8438H18.137C17.919 21.8438 17.7422 22.0012 17.7422 22.1955C17.7422 22.3898 17.919 22.5472 18.137 22.5472Z" fill="#E82327"/>
</svg>
