<svg width="22" height="22" viewBox="0 0 22 22" fill="none" xmlns="http://www.w3.org/2000/svg">
<path d="M11.2896 9.90133C10.5164 9.89323 9.76281 9.65775 9.12382 9.22454C8.48484 8.79132 7.98899 8.17974 7.6987 7.46679C7.40842 6.75385 7.33667 5.9714 7.49251 5.21798C7.64834 4.46456 8.02478 3.77384 8.57443 3.23279C9.12409 2.69173 9.82238 2.32453 10.5814 2.17742C11.3404 2.03031 12.1262 2.10987 12.8399 2.40607C13.5535 2.70227 14.1631 3.20187 14.5919 3.84198C15.0207 4.48209 15.2496 5.23409 15.2496 6.00329C15.2423 7.042 14.8215 8.03549 14.0792 8.76613C13.337 9.49676 12.3339 9.90497 11.2896 9.90133ZM11.2896 3.47299C10.7883 3.48107 10.3007 3.63632 9.88779 3.91922C9.47494 4.20213 9.15533 4.60007 8.96911 5.06308C8.78289 5.52609 8.73836 6.0335 8.84112 6.5216C8.94388 7.0097 9.18934 7.45671 9.54668 7.80649C9.90402 8.15626 10.3573 8.39321 10.8496 8.48756C11.3419 8.58191 11.8512 8.52947 12.3136 8.33681C12.776 8.14415 13.1709 7.81987 13.4486 7.4047C13.7263 6.98952 13.8745 6.50198 13.8746 6.00329C13.8674 5.32733 13.5914 4.68172 13.107 4.20758C12.6226 3.73344 11.9692 3.46933 11.2896 3.47299Z" fill="#0099AD"/>
<path d="M11.2893 9.90133C10.516 9.89323 9.76248 9.65775 9.1235 9.22454C8.48451 8.79132 7.98866 8.17974 7.69838 7.46679C7.40809 6.75385 7.33635 5.9714 7.49218 5.21798C7.64801 4.46456 8.02445 3.77384 8.57411 3.23279C9.12376 2.69173 9.82205 2.32453 10.5811 2.17742C11.3401 2.03031 12.1259 2.10987 12.8395 2.40607C13.5532 2.70227 14.1628 3.20187 14.5916 3.84198C15.0204 4.48209 15.2492 5.23409 15.2493 6.00329C15.242 7.042 14.8212 8.03549 14.0789 8.76613C13.3367 9.49676 12.3335 9.90497 11.2893 9.90133ZM11.2893 3.47299C10.788 3.48107 10.3003 3.63632 9.88747 3.91922C9.47461 4.20213 9.155 4.60007 8.96878 5.06308C8.78256 5.52609 8.73804 6.0335 8.8408 6.5216C8.94356 7.0097 9.18902 7.45671 9.54636 7.80649C9.90369 8.15626 10.357 8.39321 10.8493 8.48756C11.3415 8.58191 11.8509 8.52947 12.3133 8.33681C12.7757 8.14415 13.1706 7.81987 13.4483 7.4047C13.726 6.98952 13.8742 6.50198 13.8743 6.00329C13.867 5.32733 13.591 4.68172 13.1066 4.20758C12.6223 3.73344 11.9689 3.46933 11.2893 3.47299ZM13.6887 10.8177C10.6393 10.2899 7.50003 10.7703 4.75116 12.1854C4.55603 12.2932 4.39446 12.4523 4.28411 12.6453C4.17377 12.8383 4.11891 13.0577 4.12554 13.2796V15.7142C4.12554 15.8956 4.19797 16.0695 4.3269 16.1978C4.45583 16.326 4.6307 16.3981 4.81304 16.3981C4.99537 16.3981 5.17024 16.326 5.29917 16.1978C5.4281 16.0695 5.50054 15.8956 5.50054 15.7142V13.3685C8.04956 12.0963 10.9483 11.6926 13.7505 12.2196L13.6887 10.8177Z" fill="#0099AD"/>
<path d="M21.3125 13.7936H16.7062V12.7815C16.7062 12.6001 16.6338 12.4262 16.5049 12.298C16.376 12.1697 16.2011 12.0977 16.0187 12.0977C15.8364 12.0977 15.6615 12.1697 15.5326 12.298C15.4037 12.4262 15.3312 12.6001 15.3312 12.7815V13.7936H10.3125C10.1302 13.7936 9.95529 13.8657 9.82636 13.9939C9.69743 14.1222 9.625 14.2961 9.625 14.4775V21.3162C9.625 21.4975 9.69743 21.6715 9.82636 21.7997C9.95529 21.928 10.1302 22 10.3125 22H21.3125C21.4948 22 21.6697 21.928 21.7986 21.7997C21.9276 21.6715 22 21.4975 22 21.3162V14.4775C22 14.2961 21.9276 14.1222 21.7986 13.9939C21.6697 13.8657 21.4948 13.7936 21.3125 13.7936ZM20.625 20.6323H11V15.1614H15.3312V15.4418C15.3312 15.6231 15.4037 15.7971 15.5326 15.9253C15.6615 16.0536 15.8364 16.1256 16.0187 16.1256C16.2011 16.1256 16.376 16.0536 16.5049 15.9253C16.6338 15.7971 16.7062 15.6231 16.7062 15.4418V15.1614H20.625V20.6323Z" fill="#0099AD"/>
<path d="M13.6194 17.5002H17.7169V18.4576H13.6194V17.5002ZM6.0775 7.11907C4.17412 7.15075 2.30374 7.6188 0.611875 8.48681C0.427874 8.58348 0.273747 8.72809 0.165973 8.90516C0.0581984 9.08222 0.000829707 9.2851 0 9.49209V11.6121C0 11.7934 0.0724328 11.9674 0.201364 12.0956C0.330295 12.2239 0.505164 12.2959 0.6875 12.2959C0.869836 12.2959 1.0447 12.2239 1.17364 12.0956C1.30257 11.9674 1.375 11.7934 1.375 11.6121V9.62886C2.99152 8.82848 4.78126 8.43626 6.58625 8.48681C6.35009 8.05821 6.17867 7.59735 6.0775 7.11907ZM21.3881 8.47997C19.8707 7.68819 18.2031 7.22223 16.4931 7.11224C16.3924 7.58967 16.2234 8.05027 15.9912 8.47997C17.6021 8.51832 19.1845 8.91066 20.625 9.62886V11.6121C20.625 11.7934 20.6974 11.9674 20.8264 12.0956C20.9553 12.2239 21.1302 12.2959 21.3125 12.2959C21.4948 12.2959 21.6697 12.2239 21.7986 12.0956C21.9276 11.9674 22 11.7934 22 11.6121V9.49209C22.0004 9.28394 21.9436 9.07963 21.8358 8.90125C21.728 8.72286 21.5732 8.57719 21.3881 8.47997ZM5.95375 6.00437V5.54618C5.41517 5.47449 4.92515 5.19894 4.58567 4.7769C4.2462 4.35486 4.08344 3.81884 4.13128 3.28043C4.17912 2.74203 4.43386 2.24272 4.84249 1.88644C5.25111 1.53017 5.78213 1.34438 6.325 1.36776C6.88966 1.36674 7.43238 1.58514 7.8375 1.9764C8.19493 1.68315 8.5875 1.43506 9.00625 1.23783C8.53848 0.702806 7.91872 0.321334 7.22864 0.143687C6.53856 -0.03396 5.81056 0.00055768 5.1406 0.24269C4.47064 0.484823 3.89016 0.923205 3.47568 1.50006C3.06119 2.07691 2.83215 2.76515 2.81875 3.47407C2.83318 4.34173 3.17226 5.17287 3.76977 5.80516C4.36728 6.43745 5.18029 6.82546 6.05 6.8934C5.99168 6.60045 5.95947 6.30295 5.95375 6.00437ZM15.6544 2.74067e-05C15.1819 0.000130867 14.7142 0.0939263 14.2786 0.27593C13.843 0.457933 13.4483 0.724491 13.1175 1.06002C13.5823 1.22755 14.0218 1.45764 14.4237 1.74389C14.7447 1.52226 15.1201 1.39144 15.5099 1.36537C15.8998 1.3393 16.2894 1.41896 16.6373 1.59584C16.9852 1.77273 17.2783 2.04022 17.4854 2.36979C17.6925 2.69936 17.8057 3.07865 17.8131 3.46723C17.8088 3.86636 17.6909 4.25611 17.4731 4.59135C17.2553 4.9266 16.9465 5.19363 16.5825 5.36154C16.6102 5.57242 16.6239 5.78487 16.6237 5.99753C16.6219 6.27242 16.5989 6.54677 16.555 6.81817C17.304 6.62664 17.9682 6.1942 18.4445 5.58814C18.9207 4.98209 19.1822 4.23643 19.1881 3.46723C19.179 2.54217 18.8023 1.65827 18.1402 1.00862C17.4781 0.358969 16.5844 -0.00363034 15.6544 2.74067e-05Z" fill="#0099AD"/>
</svg>
