<svg width="24" height="24" viewBox="0 0 24 24" fill="none" xmlns="http://www.w3.org/2000/svg">
<path fill-rule="evenodd" clip-rule="evenodd" d="M5 4.41V13.844C5.193 13.777 5.418 13.702 5.663 13.628C6.42 13.398 7.417 13.15 8.25 13.15C9.628 13.15 10.918 13.571 12.121 13.964L12.155 13.974C13.394 14.379 14.545 14.75 15.75 14.75C16.809 14.75 18.308 14.314 19 14.09V4.758L18.994 4.752L18.981 4.747H18.971C18.191 4.984 16.821 5.35 15.75 5.35C14.372 5.35 13.082 4.929 11.879 4.536L11.845 4.526C10.606 4.121 9.455 3.75 8.25 3.75C7.564 3.75 6.68 3.935 5.938 4.133C5.62301 4.21727 5.31024 4.30963 5 4.41ZM5 14.906L5.045 14.889C5.273 14.806 5.591 14.695 5.955 14.584C6.695 14.359 7.573 14.15 8.25 14.15C9.456 14.15 10.606 14.521 11.845 14.925L11.879 14.936C13.082 15.329 14.372 15.75 15.75 15.75C16.994 15.75 18.647 15.256 19.321 15.038C19.5195 14.974 19.6923 14.8483 19.8144 14.6792C19.9366 14.5101 20.0016 14.3065 20 14.098V4.759C20 4.064 19.319 3.597 18.68 3.791C17.9 4.027 16.658 4.35 15.75 4.35C14.544 4.35 13.394 3.979 12.155 3.575L12.121 3.564C10.918 3.17 9.628 2.75 8.25 2.75C7.426 2.75 6.436 2.965 5.68 3.167C5.23551 3.28578 4.79525 3.41986 4.36 3.569L4.34 3.576L4.334 3.578C4.334 3.578 4.332 3.579 4.5 4.05L4.333 3.579C4.23564 3.6135 4.15136 3.6773 4.09173 3.76164C4.0321 3.84598 4.00006 3.94671 4 4.05V20.75C4 20.8826 4.05268 21.0098 4.14645 21.1036C4.24021 21.1973 4.36739 21.25 4.5 21.25C4.63261 21.25 4.75979 21.1973 4.85355 21.1036C4.94732 21.0098 5 20.8826 5 20.75V14.906Z" fill="#666666"/>
</svg>
