<svg width="32" height="32" viewBox="0 0 32 32" fill="none" xmlns="http://www.w3.org/2000/svg">
<mask id="path-1-inside-1_1833_13134" fill="white">
<path d="M4.86136 10.6953C7.54622 8.01049 11.8992 8.01045 14.5841 10.6953L15.5563 11.6676L16.5286 10.6953C19.2135 8.01043 23.5665 8.01044 26.2513 10.6953C28.9362 13.3801 28.9362 17.7331 26.2513 20.418L15.5563 31.113L4.86136 20.418C2.1765 17.7331 2.1765 13.3801 4.86136 10.6953Z"/>
</mask>
<path d="M4.86136 10.6953C7.54622 8.01049 11.8992 8.01045 14.5841 10.6953L15.5563 11.6676L16.5286 10.6953C19.2135 8.01043 23.5665 8.01044 26.2513 10.6953C28.9362 13.3801 28.9362 17.7331 26.2513 20.418L15.5563 31.113L4.86136 20.418C2.1765 17.7331 2.1765 13.3801 4.86136 10.6953Z" fill="#FF3B30"/>
<path d="M4.86136 10.6953L4.15426 9.98817L4.15425 9.98817L4.86136 10.6953ZM15.5563 11.6676L14.8492 12.3747L15.5563 13.0818L16.2635 12.3747L15.5563 11.6676ZM26.2513 10.6953L26.9584 9.98817L26.9584 9.98817L26.2513 10.6953ZM15.5563 31.113L14.8492 31.8201L15.5563 32.5272L16.2635 31.8201L15.5563 31.113ZM4.86136 10.6953L5.56846 11.4024C7.8628 9.10811 11.5827 9.10809 13.877 11.4024L14.5841 10.6953L15.2912 9.98817C12.2158 6.91281 7.22963 6.91287 4.15426 9.98817L4.86136 10.6953ZM14.5841 10.6953L13.877 11.4024L14.8492 12.3747L15.5563 11.6676L16.2635 10.9604L15.2912 9.98817L14.5841 10.6953ZM15.5563 11.6676L16.2635 12.3747L17.2357 11.4024L16.5286 10.6953L15.8215 9.98817L14.8492 10.9604L15.5563 11.6676ZM16.5286 10.6953L17.2357 11.4024C19.53 9.10807 23.2499 9.10807 25.5442 11.4024L26.2513 10.6953L26.9584 9.98817C23.8831 6.91282 18.8969 6.9128 15.8215 9.98817L16.5286 10.6953ZM26.2513 10.6953L25.5442 11.4024C27.8386 13.6967 27.8386 17.4166 25.5442 19.7109L26.2513 20.418L26.9584 21.1251C30.0338 18.0497 30.0338 13.0636 26.9584 9.98817L26.2513 10.6953ZM26.2513 20.418L25.5442 19.7109L14.8492 30.4059L15.5563 31.113L16.2635 31.8201L26.9584 21.1251L26.2513 20.418ZM15.5563 31.113L16.2635 30.4059L5.56847 19.7109L4.86136 20.418L4.15425 21.1251L14.8492 31.8201L15.5563 31.113ZM4.86136 20.418L5.56847 19.7109C3.27414 17.4166 3.27414 13.6967 5.56847 11.4024L4.86136 10.6953L4.15425 9.98817C1.07887 13.0636 1.07887 18.0497 4.15425 21.1251L4.86136 20.418Z" fill="#FF3B30" mask="url(#path-1-inside-1_1833_13134)"/>
</svg>
