<svg width="30" height="30" viewBox="0 0 30 30" fill="none" xmlns="http://www.w3.org/2000/svg">
<mask id="path-1-inside-1_1660_9818" fill="white">
<path d="M4.68734 10.3127C7.27614 7.72386 11.4732 7.7239 14.062 10.3127L14.9998 11.2504L15.9375 10.3127C18.5263 7.72384 22.7234 7.72384 25.3122 10.3127C27.901 12.9015 27.901 17.0985 25.3122 19.6873L14.9998 29.9998L4.68734 19.6873C2.09861 17.0985 2.0986 12.9015 4.68734 10.3127Z"/>
</mask>
<path d="M4.68734 10.3127L3.98024 9.60555L3.98023 9.60556L4.68734 10.3127ZM14.062 10.3127L14.7691 9.60555L14.7691 9.60554L14.062 10.3127ZM14.9998 11.2504L14.2927 11.9575L14.9998 12.6646L15.7069 11.9575L14.9998 11.2504ZM15.9375 10.3127L16.6446 11.0198L15.9375 10.3127ZM25.3122 10.3127L26.0193 9.60555L26.0193 9.60555L25.3122 10.3127ZM25.3122 19.6873L26.0193 20.3945L25.3122 19.6873ZM14.9998 29.9998L14.2927 30.7069L14.9998 31.414L15.7069 30.7069L14.9998 29.9998ZM4.68734 19.6873L3.98023 20.3944L3.98024 20.3945L4.68734 19.6873ZM4.68734 10.3127L5.39445 11.0198C7.59271 8.8215 11.1566 8.82152 13.3549 11.0198L14.062 10.3127L14.7691 9.60554C11.7898 6.62628 6.95956 6.62622 3.98024 9.60555L4.68734 10.3127ZM14.062 10.3127L13.3549 11.0198L14.2927 11.9575L14.9998 11.2504L15.7069 10.5433L14.7691 9.60555L14.062 10.3127ZM14.9998 11.2504L15.7069 11.9575L16.6446 11.0198L15.9375 10.3127L15.2304 9.60555L14.2927 10.5433L14.9998 11.2504ZM15.9375 10.3127L16.6446 11.0198C18.8429 8.82147 22.4068 8.82147 24.6051 11.0198L25.3122 10.3127L26.0193 9.60555C23.04 6.62621 18.2098 6.62621 15.2304 9.60555L15.9375 10.3127ZM25.3122 10.3127L24.6051 11.0198C26.8034 13.2181 26.8034 16.782 24.6051 18.9802L25.3122 19.6873L26.0193 20.3945C28.9987 17.4151 28.9986 12.5849 26.0193 9.60555L25.3122 10.3127ZM25.3122 19.6873L24.6051 18.9802L14.2927 29.2927L14.9998 29.9998L15.7069 30.7069L26.0193 20.3945L25.3122 19.6873ZM14.9998 29.9998L15.7069 29.2927L5.39445 18.9802L4.68734 19.6873L3.98024 20.3945L14.2927 30.7069L14.9998 29.9998ZM4.68734 19.6873L5.39446 18.9802C3.19623 16.782 3.19623 13.218 5.39446 11.0198L4.68734 10.3127L3.98023 9.60556C1.00097 12.5849 1.00098 17.4151 3.98023 20.3944L4.68734 19.6873Z" fill="#666666" mask="url(#path-1-inside-1_1660_9818)"/>
</svg>
