<svg width="22" height="28" viewBox="0 0 22 28" fill="none" xmlns="http://www.w3.org/2000/svg">
<path d="M18.1711 0H3.82892C2.81378 0.000871878 1.84054 0.308771 1.12273 0.856149C0.404914 1.40353 0.00114335 2.14568 0 2.91979V25.0802C0.00114335 25.8543 0.404914 26.5965 1.12273 27.1439C1.84054 27.6912 2.81378 27.9991 3.82892 28H18.1711C19.1862 27.9991 20.1595 27.6912 20.8773 27.1439C21.5951 26.5965 21.9989 25.8543 22 25.0802V2.91979C21.9989 2.14568 21.5951 1.40353 20.8773 0.856149C20.1595 0.308771 19.1862 0.000871878 18.1711 0ZM15.3106 1.04813V1.72552C15.3103 1.86234 15.2388 1.99349 15.1119 2.09021C14.985 2.18694 14.813 2.24134 14.6335 2.2415H7.36842C7.18902 2.24134 7.01704 2.18693 6.89019 2.0902C6.76334 1.99347 6.69198 1.86232 6.69178 1.72552V1.04813H15.3106ZM20.6251 25.0802C20.6244 25.5764 20.3656 26.0522 19.9054 26.4031C19.4453 26.7539 18.8214 26.9513 18.1707 26.9519H3.82892C3.17819 26.9513 2.55432 26.7539 2.09418 26.4031C1.63404 26.0522 1.37521 25.5764 1.37448 25.0802V2.91979C1.37521 2.42356 1.63404 1.94782 2.09418 1.59694C2.55432 1.24605 3.17819 1.04868 3.82892 1.04813H5.31572V1.72552C5.31634 2.1402 5.53264 2.53776 5.91717 2.83098C6.3017 3.12421 6.82304 3.28915 7.36684 3.28963H14.632C15.1758 3.28915 15.6972 3.12422 16.0818 2.831C16.4664 2.53779 16.6828 2.14023 16.6835 1.72552V1.04813H18.1711C18.8217 1.04876 19.4455 1.24617 19.9056 1.59704C20.3656 1.94792 20.6244 2.42361 20.6251 2.91979V25.0802Z" fill="#4250CE"/>
<path d="M18.8946 24.457H10.4431C10.2608 24.457 10.086 24.5122 9.95715 24.6105C9.82826 24.7088 9.75586 24.8421 9.75586 24.9811C9.75586 25.1201 9.82826 25.2534 9.95715 25.3517C10.086 25.4499 10.2608 25.5052 10.4431 25.5052H18.8946C19.0769 25.5052 19.2517 25.4499 19.3806 25.3517C19.5094 25.2534 19.5819 25.1201 19.5819 24.9811C19.5819 24.8421 19.5094 24.7088 19.3806 24.6105C19.2517 24.5122 19.0769 24.457 18.8946 24.457Z" fill="#4250CE"/>
</svg>
