<svg width="37" height="33" viewBox="0 0 37 33" fill="none" xmlns="http://www.w3.org/2000/svg">
<path d="M1.15625 5.15625V27.8438H35.8438V5.15625H1.15625ZM14.2953 20.2811H5.36038V8.93784H14.2947L14.2953 20.2811ZM21.6531 23.118H15.3463V6.57422H21.6531V23.118ZM22.7041 17.5508C23.4449 18.0935 24.3737 18.3904 25.3323 18.3908C27.6546 18.3908 29.5358 16.6975 29.5358 14.6092C29.5358 12.5214 27.654 10.8281 25.3323 10.8281C24.3737 10.8286 23.4449 11.1254 22.7041 11.6681V8.93784H31.6385V20.2811H22.7041V17.5508ZM22.7041 21.699H33.2156V7.51987H22.7041V6.10191H34.7921V23.1175H22.7041V21.699ZM2.20728 6.10191H14.2947V7.51987H3.78383V21.699H14.2953V23.1175H2.20728V6.10191Z" fill="#666666"/>
<path d="M10.0903 16.9728C9.81046 16.9715 9.54261 16.8711 9.34557 16.6938C9.14853 16.5166 9.03839 16.2768 9.03931 16.0272H7.98886C7.98856 16.4438 8.14315 16.8487 8.42842 17.1787C8.71368 17.5086 9.11354 17.7448 9.56541 17.8504V18.3908H10.6164V17.8504C11.0682 17.7447 11.4679 17.5084 11.7532 17.1785C12.0384 16.8486 12.1931 16.4437 12.193 16.0272C12.193 14.9851 11.2501 14.1369 10.0909 14.1369C9.81114 14.1355 9.54338 14.0353 9.34636 13.8581C9.14933 13.6809 9.03912 13.4413 9.03989 13.1917C9.03989 12.6694 9.51164 12.2461 10.0909 12.2461C10.6708 12.2461 11.142 12.6694 11.142 13.1917H12.1924C12.1927 12.7751 12.0381 12.3702 11.7529 12.0403C11.4676 11.7104 11.0677 11.4741 10.6159 11.3685V10.8281H9.56483V11.3685C9.11306 11.4743 8.71332 11.7106 8.42808 12.0404C8.14284 12.3703 7.98818 12.7752 7.98828 13.1917C7.98828 14.2338 8.9312 15.082 10.0903 15.082C10.6702 15.082 11.1414 15.5059 11.1414 16.0272C11.1425 16.2768 11.0324 16.5167 10.8353 16.694C10.6382 16.8713 10.3703 16.9716 10.0903 16.9728Z" fill="#808080"/>
</svg>
