<svg width="22" height="16" viewBox="0 0 22 16" fill="none" xmlns="http://www.w3.org/2000/svg">
<path d="M0 0V16H22V0H0ZM8.33323 10.6665H2.6664V2.66691H8.33287L8.33323 10.6665ZM12.9998 12.6673H8.99983V1H12.9998V12.6673ZM13.6664 8.74109C14.1362 9.1238 14.7253 9.33314 15.3333 9.33346C16.8062 9.33346 17.9993 8.13927 17.9993 6.66655C17.9993 5.19418 16.8058 4 15.3333 4C14.7253 4.00031 14.1362 4.20965 13.6664 4.59236V2.66691H19.3329V10.6665H13.6664V8.74109ZM13.6664 11.6665H20.3331V1.66691H13.6664V0.666909H21.333V12.6669H13.6664V11.6665ZM0.6666 0.666909H8.33287V1.66691H1.6665V11.6665H8.33323V12.6669H0.6666V0.666909Z" fill="#459902"/>
</svg>
