<svg width="24" height="24" viewBox="0 0 24 24" fill="none" xmlns="http://www.w3.org/2000/svg">
<path d="M21.5238 7.34465H9.53328L9.04809 6.44926L16.6217 2.64048C17.0164 2.44182 17.2207 1.83657 17.077 1.29111L16.919 0.692119C16.7753 0.147019 16.3374 -0.134884 15.943 0.0635367L12.5954 1.74701C12.426 1.83224 12.3387 2.09105 12.4004 2.32519C12.462 2.55922 12.6491 2.68005 12.8188 2.59483L16.1664 0.91129C16.2226 0.882841 16.2851 0.923198 16.3055 1.00097L16.4635 1.5999C16.484 1.67779 16.4548 1.76434 16.3983 1.79272L8.63929 5.69479L8.21434 4.91061L11.3715 3.32253C11.541 3.2373 11.6283 2.97844 11.5666 2.74435C11.5049 2.51026 11.3176 2.38943 11.1482 2.47478L7.80554 4.15615L7.28409 3.19382C7.14102 2.92978 6.91308 2.77214 6.67438 2.77214H0.761711C0.341725 2.77214 0 3.24434 0 3.82468V18.8288C0 19.4091 0.341725 19.8813 0.761711 19.8813H5.18547L4.75173 23.0365C4.68291 23.5372 4.96087 24 5.32902 24H16.9564C17.3253 24 17.6025 23.5362 17.5338 23.0365L17.1 19.8813H21.5238C21.9438 19.8813 22.2855 19.4091 22.2855 18.8288V17.1387C22.2855 16.8896 22.1394 16.6876 21.9591 16.6876C21.7787 16.6876 21.6326 16.8896 21.6326 17.1387V18.8288C21.6326 18.9117 21.5838 18.9792 21.5238 18.9792H18.9427L18.2883 17.3152C18.1549 16.9759 17.8985 16.7651 17.6191 16.7651H4.66642C4.38702 16.7651 4.13057 16.9759 3.99716 17.3152L3.34282 18.9792H0.761711C0.701732 18.9792 0.652896 18.9117 0.652896 18.8288V11.3347H14.8408V12.1938C14.8408 12.7742 15.1825 13.2464 15.6025 13.2464H21.5238C21.5608 13.2464 21.597 13.2414 21.6326 13.2344V15.0336C21.6326 15.2827 21.7787 15.4847 21.9591 15.4847C22.1394 15.4847 22.2855 15.2827 22.2855 15.0336V8.39714C22.2855 7.81679 21.9438 7.34465 21.5238 7.34465ZM5.40789 23.0978L6.15437 17.6673H16.1311L16.8777 23.0978H5.40789ZM17.7147 17.7459L18.1996 18.9792H16.976L16.7957 17.6673H17.6191C17.659 17.6674 17.6956 17.6975 17.7147 17.7459ZM4.57083 17.7459C4.5899 17.6975 4.62655 17.6673 4.66646 17.6673H5.48985L5.30952 18.9792H4.08586L4.57083 17.7459ZM0.761711 3.67432H6.67433C6.70841 3.67432 6.74097 3.69687 6.76143 3.73453L8.71768 7.34465H0.652896V3.82468C0.652896 3.74174 0.701732 3.67432 0.761711 3.67432ZM0.652896 10.4325V8.24683H14.8495C14.8444 8.29615 14.8408 8.34607 14.8408 8.39732V10.4325H0.652896ZM21.5238 12.3442H15.6025C15.5425 12.3442 15.4937 12.2767 15.4937 12.1938V8.39726C15.4937 8.31438 15.5425 8.24689 15.6025 8.24689C15.6031 8.24689 15.6037 8.24677 15.6044 8.24677H21.5238C21.5838 8.24677 21.6326 8.3142 21.6326 8.39714V12.1938C21.6326 12.2768 21.5838 12.3442 21.5238 12.3442Z" fill="#158ADF"/>
<path d="M20.2988 8.87891C19.7335 8.87891 19.2734 9.51453 19.2734 10.2958C19.2734 11.0771 19.7334 11.7127 20.2988 11.7127C20.8642 11.7127 21.3242 11.0771 21.3242 10.2958C21.3242 9.51447 20.8642 8.87891 20.2988 8.87891ZM20.2988 10.8104C20.0934 10.8104 19.9263 10.5795 19.9263 10.2957C19.9263 10.0119 20.0934 9.78103 20.2988 9.78103C20.5042 9.78103 20.6713 10.0119 20.6713 10.2957C20.6713 10.5795 20.5042 10.8104 20.2988 10.8104Z" fill="#158ADF"/>
<path d="M22.9746 8.87891C22.4092 8.87891 21.9492 9.51453 21.9492 10.2958C21.9492 11.0771 22.4092 11.7127 22.9746 11.7127C23.54 11.7127 24 11.0771 24 10.2958C24 9.51447 23.54 8.87891 22.9746 8.87891ZM22.9746 10.8104C22.7692 10.8104 22.6021 10.5795 22.6021 10.2957C22.6021 10.0119 22.7692 9.78103 22.9746 9.78103C23.18 9.78103 23.3471 10.0119 23.3471 10.2957C23.3471 10.5795 23.18 10.8104 22.9746 10.8104Z" fill="#158ADF"/>
<path d="M17.4914 20.873H10.9436C10.7633 20.873 10.6172 21.075 10.6172 21.3241C10.6172 21.5733 10.7633 21.7752 10.9436 21.7752H17.4914C17.6717 21.7752 17.8178 21.5733 17.8178 21.3241C17.8178 21.075 17.6716 20.873 17.4914 20.873Z" fill="#158ADF"/>
<path d="M11.4905 19.6483H16.94C17.1203 19.6483 17.2664 19.4463 17.2664 19.1972C17.2664 18.9481 17.1203 18.7461 16.94 18.7461H11.4905C11.3102 18.7461 11.1641 18.9481 11.1641 19.1972C11.1641 19.4463 11.3102 19.6483 11.4905 19.6483Z" fill="#158ADF"/>
</svg>
