<svg width="22" height="22" viewBox="0 0 22 22" fill="none" xmlns="http://www.w3.org/2000/svg">
<path d="M7.1671 18.3333H9.3571C9.5031 18.3333 9.63085 18.2722 9.74035 18.15C9.84985 18.0278 9.9046 17.8852 9.9046 17.7222C9.9046 17.5593 9.84985 17.4167 9.74035 17.2944C9.63085 17.1722 9.5031 17.1111 9.3571 17.1111H7.7146V15.8889H9.3571C9.5031 15.8889 9.63085 15.8278 9.74035 15.7056C9.84985 15.5833 9.9046 15.4407 9.9046 15.2778V12.8333C9.9046 12.6704 9.84985 12.5278 9.74035 12.4056C9.63085 12.2833 9.5031 12.2222 9.3571 12.2222H7.1671C7.0211 12.2222 6.89336 12.2833 6.78386 12.4056C6.67436 12.5278 6.61961 12.6704 6.61961 12.8333C6.61961 12.9963 6.67436 13.1389 6.78386 13.2611C6.89336 13.3833 7.0211 13.4444 7.1671 13.4444H8.8096V14.6667H7.1671C7.0211 14.6667 6.89336 14.7278 6.78386 14.85C6.67436 14.9722 6.61961 15.1148 6.61961 15.2778V17.7222C6.61961 17.8852 6.67436 18.0278 6.78386 18.15C6.89336 18.2722 7.0211 18.3333 7.1671 18.3333ZM14.8321 18.3333C14.9781 18.3333 15.1058 18.2722 15.2153 18.15C15.3248 18.0278 15.3796 17.8852 15.3796 17.7222V12.8333C15.3796 12.6704 15.3248 12.5278 15.2153 12.4056C15.1058 12.2833 14.9781 12.2222 14.8321 12.2222C14.6861 12.2222 14.5583 12.2833 14.4488 12.4056C14.3393 12.5278 14.2846 12.6704 14.2846 12.8333V14.6667H13.1896V12.8333C13.1896 12.6704 13.1348 12.5278 13.0253 12.4056C12.9158 12.2833 12.7881 12.2222 12.6421 12.2222C12.4961 12.2222 12.3683 12.2833 12.2588 12.4056C12.1493 12.5278 12.0946 12.6704 12.0946 12.8333V15.2778C12.0946 15.4407 12.1493 15.5833 12.2588 15.7056C12.3683 15.8278 12.4961 15.8889 12.6421 15.8889H14.2846V17.7222C14.2846 17.8852 14.3393 18.0278 14.4488 18.15C14.5583 18.2722 14.6861 18.3333 14.8321 18.3333ZM3.33462 22C2.73237 22 2.21662 21.7604 1.78738 21.2813C1.35815 20.8022 1.14426 20.227 1.14572 19.5556V9.83889C0.725968 9.41111 0.402213 8.86111 0.174454 8.18889C-0.0533054 7.51667 -0.0580504 6.78333 0.160219 5.98889L1.30997 1.83333C1.45597 1.3037 1.71621 0.865741 2.0907 0.519444C2.46519 0.173148 2.89771 0 3.38827 0H18.6087C19.1015 0 19.5304 0.168259 19.8954 0.504778C20.2603 0.841296 20.525 1.28415 20.6892 1.83333L21.839 5.98889C22.058 6.78333 22.0536 7.50648 21.8258 8.15833C21.5981 8.81018 21.274 9.37037 20.8535 9.83889V19.5556C20.8535 20.2278 20.6392 20.8034 20.2107 21.2826C19.7822 21.7617 19.2668 22.0008 18.6646 22H3.33462ZM13.4086 8.55555C13.9013 8.55555 14.2755 8.36692 14.531 7.98967C14.7865 7.61241 14.8868 7.18993 14.8321 6.72222L14.2298 2.44444H12.0946V6.96667C12.0946 7.39444 12.2223 7.76641 12.4778 8.08255C12.7333 8.3987 13.0436 8.55637 13.4086 8.55555ZM8.4811 8.55555C8.90085 8.55555 9.24322 8.39748 9.50821 8.08133C9.7732 7.76518 9.90533 7.39363 9.9046 6.96667V2.44444H7.76935L7.1671 6.72222C7.0941 7.21111 7.18973 7.63889 7.45399 8.00556C7.71825 8.37222 8.06062 8.55555 8.4811 8.55555ZM3.60836 8.55555C3.93686 8.55555 4.22448 8.42315 4.47122 8.15833C4.71796 7.89352 4.86834 7.55741 4.92236 7.15L5.52461 2.44444H3.38937L2.29437 6.53889C2.18487 6.9463 2.24436 7.38426 2.47285 7.85278C2.70134 8.3213 3.07985 8.55555 3.60836 8.55555ZM18.3908 8.55555C18.9201 8.55555 19.3033 8.3213 19.5406 7.85278C19.7778 7.38426 19.8326 6.9463 19.7048 6.53889L18.5551 2.44444H16.4746L17.0768 7.15C17.1316 7.55741 17.2823 7.89352 17.5291 8.15833C17.7758 8.42315 18.0631 8.55555 18.3908 8.55555ZM3.33462 19.5556H18.6646V10.9389C18.5733 10.9796 18.5142 11 18.4872 11H18.3908C17.8981 11 17.4648 10.9083 17.0911 10.725C16.7173 10.5417 16.3476 10.2463 15.9818 9.83889C15.6533 10.2056 15.2792 10.4907 14.8595 10.6944C14.4397 10.8981 13.9926 11 13.5181 11C13.0253 11 12.5643 10.8981 12.1351 10.6944C11.7059 10.4907 11.3274 10.2056 10.9996 9.83889C10.6893 10.2056 10.3287 10.4907 9.91774 10.6944C9.50675 10.8981 9.06437 11 8.5906 11C8.06135 11 7.58247 10.8981 7.15396 10.6944C6.72546 10.4907 6.34659 10.2056 6.01736 9.83889C5.63411 10.2667 5.25561 10.5673 4.88185 10.7409C4.50809 10.9144 4.08323 11.0008 3.60727 11H3.48353C3.43828 11 3.38827 10.9796 3.33352 10.9389L3.33462 19.5556Z" fill="#ED2020"/>
</svg>
