<svg width="24" height="24" viewBox="0 0 24 24" fill="none" xmlns="http://www.w3.org/2000/svg">
<path d="M18.3984 1.19922V10.8C17.9512 10.8 17.6002 11.1621 17.6 11.5984L17.5984 15.2008H1.60078C0.705835 15.2008 0 15.9221 0 16.8015V20.7992C0 21.6787 0.708812 22.4 1.60078 22.4H1.99922V23.5984C1.99837 23.8206 2.17865 24.0008 2.40079 24H5.20003C5.42094 23.9991 5.60083 23.8193 5.60002 23.5984V22.4H18.3985V23.5984C18.3976 23.8209 18.5783 24.0013 18.8008 24H21.5992C21.8217 24.0013 22.0024 23.8209 22.0016 23.5984V22.4H22.4C23.295 22.4 24 21.6787 24 20.7992V16.8015C24 15.9221 23.2951 15.2008 22.4 15.2008H21.5992V11.5984C21.5992 11.1621 21.2457 10.8 20.8 10.8L20.7992 1.19922C20.7992 0.541338 20.2681 0 19.6007 0C18.9335 0 18.3984 0.541338 18.3984 1.19922ZM19.6007 0.800783C19.8183 0.800783 19.9992 0.970703 19.9992 1.19922L20 10.8H19.1999L19.1992 1.19922C19.1992 0.970703 19.3832 0.800783 19.6007 0.800783ZM8.22337 4.52344C5.48134 4.52344 2.85324 5.62871 0.915585 7.58905C0.525508 7.95344 1.12538 8.54706 1.48511 8.14999C3.27386 6.34029 5.69571 5.32422 8.22337 5.32422C10.7513 5.32422 13.176 6.34003 14.9648 8.14999C15.327 8.54972 15.9213 7.95053 15.5343 7.58905C13.5967 5.62841 10.9657 4.52344 8.22337 4.52344ZM8.22337 7.03986C6.13986 7.03986 4.14451 7.87705 2.67261 9.36638C2.25908 9.71811 2.90222 10.3312 3.23902 9.92732C4.562 8.58868 6.35423 7.83671 8.22337 7.83671C10.0924 7.83671 11.8849 8.58893 13.2078 9.92732C13.5747 10.3145 14.1576 9.73818 13.7781 9.36638C12.3062 7.87731 10.3067 7.03986 8.22337 7.03986ZM8.22337 9.55235C6.79879 9.55235 5.43569 10.1228 4.42965 11.1406C4.04125 11.499 4.63255 12.102 4.99605 11.7047C5.85319 10.8375 7.01316 10.3523 8.22337 10.3523C9.43379 10.3523 10.5967 10.8373 11.4539 11.7047C11.8251 12.0962 12.4057 11.5103 12.0234 11.1406C11.0173 10.1226 9.64815 9.55235 8.22337 9.55235ZM18.4 11.6H20.7992V15.2008H18.3984L18.4 11.6ZM8.22337 12.0648C7.45726 12.0648 6.72388 12.3718 6.18357 12.9187C5.79084 13.2984 6.37721 13.8791 6.75309 13.4828C7.14444 13.0866 7.67168 12.8656 8.22337 12.8656C8.77481 12.8656 9.30551 13.087 9.69682 13.4828C10.0727 13.8764 10.6555 13.2968 10.264 12.9187C9.72378 12.3724 8.98912 12.0648 8.22337 12.0648ZM1.60073 16.0016H22.4C22.8501 16.0016 23.2 16.3577 23.2 16.8015V20.7992C23.2 21.2493 22.839 21.5992 22.4 21.5992H1.60073C1.15687 21.5992 0.800747 21.2493 0.800747 20.7992V16.8015C0.800747 16.3577 1.15063 16.0016 1.60073 16.0016ZM3.5984 16.8015C2.93102 16.8015 2.39995 17.342 2.39995 18C2.39995 18.658 2.93155 19.1992 3.5984 19.1992C4.26524 19.1992 4.80074 18.658 4.80074 18C4.80074 17.342 4.26577 16.8015 3.5984 16.8015ZM6.80232 16.8015C6.12883 16.8015 5.59997 17.342 5.59997 18C5.59997 18.658 6.13649 19.1992 6.80232 19.1992C7.46814 19.1992 8.00073 18.658 8.00073 18C8.00073 17.342 7.47574 16.8015 6.80232 16.8015ZM10.0015 16.8015C9.33248 16.8015 8.79917 17.342 8.79917 18C8.79917 18.658 9.33569 19.1992 10.0015 19.1992C10.6673 19.1992 11.2 18.658 11.2 18C11.2 17.342 10.6706 16.8015 10.0015 16.8015ZM3.5984 17.5984C3.81155 17.5984 4.00073 17.7743 4.00073 18C4.00073 18.2256 3.81468 18.3984 3.5984 18.3984C3.38212 18.3984 3.19996 18.2256 3.19996 18C3.19996 17.7743 3.38525 17.5984 3.5984 17.5984ZM6.80232 17.5984C7.01689 17.5984 7.20077 17.7743 7.20077 18C7.20077 18.2256 7.01857 18.3984 6.80232 18.3984C6.58601 18.3984 6.39998 18.2256 6.39998 18C6.39998 17.7743 6.58769 17.5984 6.80232 17.5984ZM10.0015 17.5984C10.2117 17.5984 10.4 17.7743 10.4 18C10.4 18.2256 10.2194 18.3984 10.0015 18.3984C9.78368 18.3984 9.59918 18.2256 9.59918 18C9.59918 17.7743 9.79134 17.5984 10.0015 17.5984ZM12.3984 17.5984C11.8766 17.5984 11.8766 18.3984 12.3984 18.3984H16.0015C16.5233 18.3984 16.5233 17.5984 16.0015 17.5984H12.3984ZM17.7992 17.5984C17.2774 17.5984 17.2774 18.3984 17.7992 18.3984H18.8007C19.3225 18.3984 19.3225 17.5984 18.8007 17.5984H17.7992ZM2.79918 22.4H4.79995V23.2H2.79918V22.4ZM19.1999 22.4H21.2V23.2H19.1999V22.4Z" fill="#EB9633"/>
</svg>
