<svg width="22" height="22" viewBox="0 0 22 22" fill="none" xmlns="http://www.w3.org/2000/svg">
<path d="M21.3716 1.85938H17.6269C17.5519 1.85938 17.48 1.8894 17.4269 1.94286C17.3739 1.99631 17.3441 2.0688 17.3441 2.14439C17.3441 2.19296 17.3593 2.23642 17.3802 2.27604V4.44754C17.3803 4.52712 17.3648 4.60593 17.3346 4.67947C17.3045 4.75301 17.2602 4.81983 17.2044 4.8761C17.1485 4.93238 17.0822 4.977 17.0093 5.00741C16.9363 5.03783 16.8581 5.05344 16.7791 5.05336H15.6137C15.5405 5.05336 15.4679 5.03881 15.4002 5.01055C15.3325 4.98229 15.271 4.94086 15.2192 4.88864C15.1674 4.83642 15.1263 4.77443 15.0982 4.7062C15.0702 4.63797 15.0558 4.56484 15.0558 4.49099V2.31119C15.0932 2.26363 15.1141 2.20506 15.1154 2.14439C15.1155 2.10694 15.1082 2.06984 15.094 2.03522C15.0798 2.0006 15.059 1.96915 15.0327 1.94267C15.0065 1.91618 14.9752 1.89519 14.9409 1.8809C14.9065 1.86661 14.8697 1.85929 14.8326 1.85938H7.28409C7.20909 1.85938 7.13716 1.8894 7.08412 1.94286C7.03109 1.99631 7.0013 2.0688 7.0013 2.14439C7.0013 2.18849 7.01334 2.22875 7.0311 2.26645V4.46287C7.0311 4.5405 7.01593 4.61737 6.98645 4.68909C6.95698 4.7608 6.91378 4.82597 6.85931 4.88086C6.80485 4.93575 6.7402 4.97929 6.66904 5.009C6.59788 5.03871 6.52161 5.054 6.44459 5.054H5.4098C5.25274 5.054 5.10211 4.99111 4.99105 4.87918C4.87999 4.76724 4.81759 4.61542 4.81759 4.45712V2.28243C4.84277 2.24078 4.85655 2.19315 4.85754 2.14439C4.85762 2.10694 4.85036 2.06984 4.83618 2.03522C4.822 2.0006 4.80117 1.96915 4.7749 1.94267C4.74862 1.91618 4.71741 1.89519 4.68306 1.8809C4.64872 1.86661 4.61191 1.85929 4.57475 1.85938H0.628988C0.462331 1.85954 0.302539 1.9263 0.184635 2.04501C0.0667317 2.16373 0.000335579 2.32471 0 2.49268V21.3664C0 21.7166 0.282157 22.001 0.628988 22.001H21.3716C21.5384 22.0007 21.6982 21.9337 21.816 21.8147C21.9338 21.6957 22 21.5345 22 21.3664V2.49268C21.9997 2.32482 21.9334 2.16393 21.8156 2.04524C21.6978 1.92654 21.5382 1.85971 21.3716 1.85938ZM21.3716 21.431H0.628988C0.620608 21.431 0.612311 21.4293 0.604576 21.4261C0.596842 21.4228 0.589824 21.418 0.583927 21.412C0.578031 21.406 0.573374 21.3989 0.570225 21.3911C0.567076 21.3833 0.565498 21.3749 0.565582 21.3664V7.13283H21.4344V21.3658C21.4346 21.3742 21.4331 21.3826 21.43 21.3905C21.4269 21.3984 21.4224 21.4055 21.4165 21.4116C21.4107 21.4176 21.4037 21.4225 21.396 21.4258C21.3883 21.4291 21.38 21.4309 21.3716 21.431Z" fill="#5808BE"/>
<path d="M6.00154 4.40307C6.15752 4.40307 6.28433 4.27526 6.28433 4.11805V0.285017C6.28433 0.247588 6.27702 0.210526 6.26281 0.175946C6.24859 0.141366 6.22776 0.109946 6.2015 0.0834796C6.17524 0.0570134 6.14407 0.0360192 6.10976 0.0216957C6.07545 0.00737226 6.03868 0 6.00154 0C5.9644 0 5.92763 0.00737226 5.89332 0.0216957C5.85901 0.0360192 5.82784 0.0570134 5.80158 0.0834796C5.77532 0.109946 5.75449 0.141366 5.74028 0.175946C5.72606 0.210526 5.71875 0.247588 5.71875 0.285017V4.11869C5.71875 4.2759 5.84556 4.40307 6.00154 4.40307ZM16.2442 4.40307C16.4001 4.40307 16.5269 4.27526 16.5269 4.11805V0.285017C16.5269 0.247588 16.5196 0.210526 16.5054 0.175946C16.4912 0.141366 16.4704 0.109946 16.4441 0.0834796C16.4179 0.0570134 16.3867 0.0360192 16.3524 0.0216957C16.3181 0.00737226 16.2813 0 16.2442 0C16.207 0 16.1702 0.00737226 16.1359 0.0216957C16.1016 0.0360192 16.0705 0.0570134 16.0442 0.0834796C16.0179 0.109946 15.9971 0.141366 15.9829 0.175946C15.9687 0.210526 15.9614 0.247588 15.9614 0.285017V4.11869C15.9614 4.2759 16.0875 4.40307 16.2442 4.40307Z" fill="#5808BE"/>
<path d="M4.53899 11.4424C5.39974 11.4424 6.09751 10.7391 6.09751 9.87157C6.09751 9.00405 5.39974 8.30078 4.53899 8.30078C3.67824 8.30078 2.98047 9.00405 2.98047 9.87157C2.98047 10.7391 3.67824 11.4424 4.53899 11.4424Z" fill="#5808BE"/>
<path d="M9.01751 11.4424C9.87825 11.4424 10.576 10.7391 10.576 9.87157C10.576 9.00405 9.87825 8.30078 9.01751 8.30078C8.15676 8.30078 7.45898 9.00405 7.45898 9.87157C7.45898 10.7391 8.15676 11.4424 9.01751 11.4424Z" fill="#5808BE"/>
<path d="M13.496 11.4424C14.3568 11.4424 15.0545 10.7391 15.0545 9.87157C15.0545 9.00405 14.3568 8.30078 13.496 8.30078C12.6353 8.30078 11.9375 9.00405 11.9375 9.87157C11.9375 10.7391 12.6353 11.4424 13.496 11.4424Z" fill="#5808BE"/>
<path d="M4.53899 15.8174C5.39974 15.8174 6.09751 15.1141 6.09751 14.2466C6.09751 13.379 5.39974 12.6758 4.53899 12.6758C3.67824 12.6758 2.98047 13.379 2.98047 14.2466C2.98047 15.1141 3.67824 15.8174 4.53899 15.8174Z" fill="#5808BE"/>
<path d="M9.01751 15.8174C9.87825 15.8174 10.576 15.1141 10.576 14.2466C10.576 13.379 9.87825 12.6758 9.01751 12.6758C8.15676 12.6758 7.45898 13.379 7.45898 14.2466C7.45898 15.1141 8.15676 15.8174 9.01751 15.8174Z" fill="#5808BE"/>
<path d="M13.496 15.8174C14.3568 15.8174 15.0545 15.1141 15.0545 14.2466C15.0545 13.379 14.3568 12.6758 13.496 12.6758C12.6353 12.6758 11.9375 13.379 11.9375 14.2466C11.9375 15.1141 12.6353 15.8174 13.496 15.8174Z" fill="#5808BE"/>
<path d="M4.53899 20.1924C5.39974 20.1924 6.09751 19.4891 6.09751 18.6216C6.09751 17.754 5.39974 17.0508 4.53899 17.0508C3.67824 17.0508 2.98047 17.754 2.98047 18.6216C2.98047 19.4891 3.67824 20.1924 4.53899 20.1924Z" fill="#5808BE"/>
<path d="M9.01751 20.1924C9.87825 20.1924 10.576 19.4891 10.576 18.6216C10.576 17.754 9.87825 17.0508 9.01751 17.0508C8.15676 17.0508 7.45898 17.754 7.45898 18.6216C7.45898 19.4891 8.15676 20.1924 9.01751 20.1924Z" fill="#5808BE"/>
<path d="M13.496 20.1924C14.3568 20.1924 15.0545 19.4891 15.0545 18.6216C15.0545 17.754 14.3568 17.0508 13.496 17.0508C12.6353 17.0508 11.9375 17.754 11.9375 18.6216C11.9375 19.4891 12.6353 20.1924 13.496 20.1924Z" fill="#5808BE"/>
<path d="M17.871 11.4424C18.7318 11.4424 19.4295 10.7391 19.4295 9.87157C19.4295 9.00405 18.7318 8.30078 17.871 8.30078C17.0103 8.30078 16.3125 9.00405 16.3125 9.87157C16.3125 10.7391 17.0103 11.4424 17.871 11.4424Z" fill="#5808BE"/>
<path d="M17.871 15.8174C18.7318 15.8174 19.4295 15.1141 19.4295 14.2466C19.4295 13.379 18.7318 12.6758 17.871 12.6758C17.0103 12.6758 16.3125 13.379 16.3125 14.2466C16.3125 15.1141 17.0103 15.8174 17.871 15.8174Z" fill="#5808BE"/>
<path d="M17.871 20.1924C18.7318 20.1924 19.4295 19.4891 19.4295 18.6216C19.4295 17.754 18.7318 17.0508 17.871 17.0508C17.0103 17.0508 16.3125 17.754 16.3125 18.6216C16.3125 19.4891 17.0103 20.1924 17.871 20.1924Z" fill="#5808BE"/>
</svg>
