<svg width="20" height="17" viewBox="0 0 20 17" fill="none" xmlns="http://www.w3.org/2000/svg">
<path d="M19.1648 3.9773L16.9432 2.26549C16.7922 2.16861 16.6281 2.09395 16.4558 2.0438C16.2844 1.98784 16.1057 1.95696 15.9255 1.95213H9.53097L10.2802 6.6292H15.9255C16.0789 6.6292 16.2706 6.59459 16.4549 6.53753C16.6392 6.48047 16.8169 6.40189 16.9423 6.31677L19.1639 4.60309C19.2901 4.51797 19.3528 4.40478 19.3528 4.29066C19.3528 4.17654 19.2901 4.06336 19.1648 3.9773ZM8.59555 0.0812988H7.66014C7.5361 0.0812988 7.41713 0.130575 7.32942 0.218287C7.24171 0.305999 7.19243 0.424962 7.19243 0.549006V3.82296H4.07189C3.91661 3.82296 3.72579 3.85757 3.54151 3.91556C3.3563 3.97169 3.1795 4.04933 3.05416 4.13632L0.83255 5.84813C0.706269 5.93325 0.644531 6.04737 0.644531 6.16149C0.644531 6.27468 0.706269 6.38786 0.83255 6.47485L3.05416 8.18853C3.1795 8.27366 3.3563 8.35223 3.54151 8.40836C3.72579 8.46542 3.91661 8.50003 4.07189 8.50003H7.19243V16.451C7.19243 16.5751 7.24171 16.6941 7.32942 16.7818C7.41713 16.8695 7.5361 16.9188 7.66014 16.9188H8.59555C8.7196 16.9188 8.83856 16.8695 8.92627 16.7818C9.01398 16.6941 9.06326 16.5751 9.06326 16.451V0.549006C9.06326 0.424962 9.01398 0.305999 8.92627 0.218287C8.83856 0.130575 8.7196 0.0812988 8.59555 0.0812988Z" fill="#666666"/>
</svg>
