<svg width="48" height="48" viewBox="0 0 48 48" fill="none" xmlns="http://www.w3.org/2000/svg">
<circle cx="24" cy="24" r="24" fill="#0084FF"/>
<path d="M26.7422 13.5C27.8739 13.5117 28.7954 14.0947 29.332 15.1436C29.5537 15.5864 29.9155 16.3554 30.2305 17.0195L30.3477 17.2754C30.3943 17.357 30.4761 17.416 30.5811 17.416C33.3809 17.4162 35.667 19.7003 35.667 22.4971V29.4189C35.667 32.2157 33.3809 34.4998 30.5811 34.5H17.4209C14.6092 34.5 12.334 32.2158 12.334 29.4189V22.4971C12.334 19.7002 14.6092 17.416 17.4209 17.416C17.5141 17.4159 17.6076 17.3685 17.6426 17.2754L17.7119 17.1357C18.0385 16.4483 18.4356 15.6098 18.6689 15.1436C19.2056 14.0948 20.1155 13.5117 21.2471 13.5H26.7422ZM24.001 20.9697C22.776 20.9697 21.6211 21.4483 20.7461 22.3223C19.8828 23.1963 19.4044 24.3379 19.416 25.5498C19.416 26.7734 19.8935 27.916 20.7568 28.79C21.6318 29.6524 22.776 30.1299 24.001 30.1299C25.2608 30.1298 26.4042 29.6173 27.2324 28.79C28.0608 27.9626 28.5743 26.8201 28.5859 25.5498C28.5859 24.338 28.1073 23.1845 27.2441 22.3105C26.3809 21.4482 25.2259 20.9698 24.001 20.9697ZM24.001 22.7178C24.7592 22.7179 25.4703 23.0099 26.0068 23.5459C26.5435 24.0819 26.8359 24.7924 26.8359 25.5498C26.8243 27.1113 25.5642 28.3817 24.001 28.3818C23.2428 28.3818 22.5308 28.0906 21.9941 27.5547C21.4575 27.0186 21.166 26.3073 21.166 25.5498V25.5381C21.1544 24.8041 21.4459 24.0936 21.9824 23.5576C22.5308 23.0099 23.2426 22.7178 24.001 22.7178ZM30.5459 20.6904C29.9626 20.6904 29.4961 21.1683 29.4961 21.751C29.4962 22.3336 29.9626 22.7998 30.5459 22.7998C31.1291 22.7997 31.6073 22.3335 31.6074 21.751C31.6074 21.1684 31.1291 20.6906 30.5459 20.6904Z" fill="white"/>
</svg>
