<svg width="24" height="24" viewBox="0 0 24 24" fill="none" xmlns="http://www.w3.org/2000/svg">
<path d="M5.82348 3.6322L11.9995 9.80819L18.1435 3.6642C18.2792 3.51974 18.4427 3.40419 18.6241 3.32445C18.8056 3.24472 19.0013 3.20246 19.1995 3.2002C19.6238 3.2002 20.0308 3.36877 20.3308 3.66882C20.6309 3.96888 20.7995 4.37585 20.7995 4.8002C20.8032 4.99636 20.7668 5.19121 20.6925 5.37281C20.6182 5.5544 20.5076 5.71889 20.3675 5.8562L14.1435 12.0002L20.3675 18.2242C20.6312 18.4822 20.7858 18.8315 20.7995 19.2002C20.7995 19.6245 20.6309 20.0315 20.3308 20.3316C20.0308 20.6316 19.6238 20.8002 19.1995 20.8002C18.9956 20.8087 18.7921 20.7746 18.6021 20.7002C18.412 20.6259 18.2395 20.5128 18.0955 20.3682L11.9995 14.1922L5.83948 20.3522C5.70429 20.4918 5.54278 20.6033 5.36428 20.6802C5.18578 20.7571 4.99382 20.7979 4.79948 20.8002C4.37513 20.8002 3.96817 20.6316 3.66811 20.3316C3.36805 20.0315 3.19948 19.6245 3.19948 19.2002C3.19575 19.004 3.23214 18.8092 3.30643 18.6276C3.38072 18.446 3.49133 18.2815 3.63148 18.1442L9.85548 12.0002L3.63148 5.77619C3.36777 5.51821 3.21314 5.16885 3.19948 4.8002C3.19948 4.37585 3.36805 3.96888 3.66811 3.66882C3.96817 3.36877 4.37513 3.2002 4.79948 3.2002C5.18348 3.205 5.55148 3.3602 5.82348 3.6322Z" fill="#F52A19"/>
</svg>
