<svg width="23" height="22" viewBox="0 0 23 22" fill="none" xmlns="http://www.w3.org/2000/svg">
<path d="M5.75 10.0834C5.75 7.49104 5.75 6.19396 6.59238 5.38912C7.43379 4.58337 8.78983 4.58337 11.5 4.58337H14.375C17.0852 4.58337 18.4412 4.58337 19.2826 5.38912C20.125 6.19396 20.125 7.49104 20.125 10.0834V14.6667C20.125 17.259 20.125 18.5561 19.2826 19.361C18.4412 20.1667 17.0852 20.1667 14.375 20.1667H11.5C8.78983 20.1667 7.43379 20.1667 6.59238 19.361C5.75 18.5561 5.75 17.259 5.75 14.6667V10.0834Z" stroke="#999999" stroke-width="1.5"/>
<path d="M5.75 17.4167C4.9875 17.4167 4.25624 17.127 3.71707 16.6113C3.1779 16.0955 2.875 15.3961 2.875 14.6667V9.16671C2.875 5.70996 2.875 3.98112 3.99817 2.90771C5.12133 1.83429 6.92779 1.83337 10.5417 1.83337H14.375C15.1375 1.83337 15.8688 2.12311 16.4079 2.63883C16.9471 3.15456 17.25 3.85403 17.25 4.58337" stroke="#999999" stroke-width="1.5"/>
</svg>
