<svg width="21" height="16" viewBox="0 0 21 16" fill="none" xmlns="http://www.w3.org/2000/svg">
<g clip-path="url(#clip0_1198_16609)">
<mask id="mask0_1198_16609" style="mask-type:alpha" maskUnits="userSpaceOnUse" x="0" y="0" width="21" height="16">
<path d="M19 0H2C0.89543 0 0 0.955126 0 2.13333V13.8667C0 15.0449 0.89543 16 2 16H19C20.1046 16 21 15.0449 21 13.8667V2.13333C21 0.955126 20.1046 0 19 0Z" fill="white"/>
</mask>
<g mask="url(#mask0_1198_16609)">
<path d="M19 0H2C0.89543 0 0 0.955126 0 2.13333V13.8667C0 15.0449 0.89543 16 2 16H19C20.1046 16 21 15.0449 21 13.8667V2.13333C21 0.955126 20.1046 0 19 0Z" fill="white"/>
<path fill-rule="evenodd" clip-rule="evenodd" d="M0 0H9V7.46667H0V0Z" fill="#444379"/>
<path fill-rule="evenodd" clip-rule="evenodd" d="M1 1.06689V2.13356H2V1.06689H1ZM3 1.06689V2.13356H4V1.06689H3ZM5 1.06689V2.13356H6V1.06689H5ZM7 1.06689V2.13356H8V1.06689H7ZM6 2.13356V3.20023H7V2.13356H6ZM4 2.13356V3.20023H5V2.13356H4ZM2 2.13356V3.20023H3V2.13356H2ZM1 3.20023V4.26689H2V3.20023H1ZM3 3.20023V4.26689H4V3.20023H3ZM5 3.20023V4.26689H6V3.20023H5ZM7 3.20023V4.26689H8V3.20023H7ZM1 5.33356V6.40023H2V5.33356H1ZM3 5.33356V6.40023H4V5.33356H3ZM5 5.33356V6.40023H6V5.33356H5ZM7 5.33356V6.40023H8V5.33356H7ZM6 4.26689V5.33356H7V4.26689H6ZM4 4.26689V5.33356H5V4.26689H4ZM2 4.26689V5.33356H3V4.26689H2Z" fill="#A7B6E7"/>
<path fill-rule="evenodd" clip-rule="evenodd" d="M9 0V1.06667H21V0H9ZM9 2.13333V3.2H21V2.13333H9ZM9 4.26667V5.33333H21V4.26667H9ZM9 6.4V7.46667H21V6.4H9ZM0 8.53333V9.6H21V8.53333H0ZM0 10.6667V11.7333H21V10.6667H0ZM0 12.8V13.8667H21V12.8H0ZM0 14.9333V16H21V14.9333H0Z" fill="#ED4C49"/>
<path d="M19 0.533203H2C1.17157 0.533203 0.5 1.24955 0.5 2.1332V13.8665C0.5 14.7502 1.17157 15.4665 2 15.4665H19C19.8284 15.4665 20.5 14.7502 20.5 13.8665V2.1332C20.5 1.24955 19.8284 0.533203 19 0.533203Z" stroke="black" stroke-opacity="0.1"/>
</g>
</g>
<defs>
<clipPath id="clip0_1198_16609">
<rect width="21" height="16" fill="white"/>
</clipPath>
</defs>
</svg>
