<svg width="14" height="16" viewBox="0 0 14 16" fill="none" xmlns="http://www.w3.org/2000/svg">
<path d="M2.616 16C2.168 16 1.78667 15.8404 1.472 15.5211C1.15733 15.2019 1 14.8153 1 14.3614V1.79581H0V0.78123H4V0H10V0.78123H14V1.79581H13V14.3614C13 14.8282 12.846 15.2181 12.538 15.5313C12.23 15.8444 11.8453 16.0007 11.384 16H2.616ZM12 1.79581H2V14.3614C2 14.5434 2.05767 14.6929 2.173 14.8099C2.28833 14.9269 2.436 14.9854 2.616 14.9854H11.385C11.5383 14.9854 11.6793 14.9205 11.808 14.7906C11.9367 14.6607 12.0007 14.5174 12 14.3604V1.79581ZM4.808 12.9562H5.808V3.82498H4.808V12.9562ZM8.192 12.9562H9.192V3.82498H8.192V12.9562Z" fill="#F52A19"/>
</svg>
