<svg width="11" height="9" viewBox="0 0 11 9" fill="none" xmlns="http://www.w3.org/2000/svg">
<path d="M1.84913 7.83734C1.28774 7.23166 0.986328 6.55235 0.986328 5.45116C0.986328 3.51343 2.32549 1.77666 4.27292 0.917969L4.75964 1.68088C2.94193 2.67965 2.58657 3.97571 2.44486 4.79289C2.73754 4.63897 3.12071 4.58527 3.49624 4.6207C4.47949 4.71316 5.25454 5.5331 5.25454 6.55235C5.25454 7.06627 5.05356 7.55914 4.6958 7.92254C4.33805 8.28593 3.85284 8.49008 3.3469 8.49008C3.06711 8.4876 2.79059 8.42861 2.53346 8.31655C2.27632 8.20449 2.0437 8.04159 1.84913 7.83734ZM7.29953 7.83734C6.73814 7.23166 6.43673 6.55235 6.43673 5.45116C6.43673 3.51343 7.7759 1.77666 9.72333 0.917969L10.21 1.68088C8.39234 2.67965 8.03697 3.97571 7.89526 4.79289C8.18795 4.63897 8.57111 4.58527 8.94664 4.6207C9.9299 4.71316 10.7049 5.5331 10.7049 6.55235C10.7049 7.06627 10.504 7.55914 10.1462 7.92254C9.78846 8.28593 9.30324 8.49008 8.7973 8.49008C8.51751 8.4876 8.241 8.42861 7.98386 8.31655C7.72673 8.20449 7.4941 8.04159 7.29953 7.83734Z" fill="#2E8CFF"/>
</svg>
