<svg width="18" height="18" viewBox="0 0 18 18" fill="none" xmlns="http://www.w3.org/2000/svg">
<path d="M8.58017 1.83887H2.68448C2.23773 1.83887 1.80927 2.01632 1.49337 2.33219C1.17747 2.64806 1 3.07647 1 3.52318V15.3133C1 15.7601 1.17747 16.1885 1.49337 16.5043C1.80927 16.8202 2.23773 16.9977 2.68448 16.9977H14.4758C14.9226 16.9977 15.3511 16.8202 15.667 16.5043C15.9829 16.1885 16.1603 15.7601 16.1603 15.3133V9.41826" stroke="#666666" stroke-linecap="round" stroke-linejoin="round"/>
<path d="M13.9447 1.5252C14.2798 1.19017 14.7342 1.00195 15.2081 1.00195C15.682 1.00195 16.1364 1.19017 16.4715 1.5252C16.8065 1.86023 16.9948 2.31463 16.9948 2.78843C16.9948 3.26224 16.8065 3.71664 16.4715 4.05167L8.88035 11.6429C8.68036 11.8426 8.43329 11.9889 8.16192 12.0681L5.74216 12.7755C5.66969 12.7967 5.59286 12.798 5.51973 12.7792C5.4466 12.7605 5.37985 12.7224 5.32647 12.6691C5.27309 12.6157 5.23504 12.5489 5.2163 12.4758C5.19756 12.4027 5.19883 12.3259 5.21997 12.2534L5.92745 9.8339C6.00707 9.56277 6.15362 9.31603 6.35363 9.11639L13.9447 1.5252Z" stroke="#666666" stroke-linecap="round" stroke-linejoin="round"/>
</svg>
