<svg width="24" height="18" viewBox="0 0 24 18" fill="none" xmlns="http://www.w3.org/2000/svg">
<path d="M2.76999 17.75C2.19416 17.75 1.71375 17.5575 1.32875 17.1725C0.943749 16.7875 0.750833 16.3067 0.75 15.73V2.27C0.75 1.69417 0.942916 1.21375 1.32875 0.82875C1.71458 0.44375 2.19458 0.250833 2.76874 0.25H21.2312C21.8062 0.25 22.2862 0.442916 22.6712 0.82875C23.0562 1.21458 23.2491 1.695 23.2499 2.27V15.7313C23.2499 16.3062 23.057 16.7867 22.6712 17.1725C22.2853 17.5583 21.8053 17.7508 21.2312 17.75H2.76999ZM12 9.145L1.99999 2.60625V15.7313C1.99999 15.9554 2.07208 16.1396 2.21624 16.2837C2.36041 16.4279 2.54499 16.5 2.76999 16.5H21.2312C21.4553 16.5 21.6395 16.4279 21.7837 16.2837C21.9278 16.1396 21.9999 15.955 21.9999 15.73V2.605L12 9.145ZM12 7.75L21.6149 1.5H2.38499L12 7.75ZM1.99999 2.60625V1.5V15.7313C1.99999 15.9554 2.07208 16.1396 2.21624 16.2837C2.36041 16.4279 2.54499 16.5 2.76999 16.5H1.99999V2.60625Z" fill="black" fill-opacity="0.6"/>
</svg>
