<svg width="40" height="40" viewBox="0 0 40 40" fill="none" xmlns="http://www.w3.org/2000/svg">
<path d="M37.791 0H2.20506C0.98616 0 -0.00195312 0.988114 -0.00195312 2.20701V37.793C-0.00195312 39.0119 0.98616 40 2.20506 40H37.791C39.0099 40 39.998 39.0119 39.998 37.793V2.20701C39.998 0.988114 39.0099 0 37.791 0Z" fill="#3D5A98"/>
<path d="M26.5026 39.9819V24.4922H31.7008L32.4781 18.4559H26.5026V14.6029C26.5026 12.8556 26.9893 11.6625 29.4937 11.6625H32.691V6.2548C31.1428 6.09374 29.5869 6.01702 28.0303 6.02498C23.427 6.02498 20.2567 8.83021 20.2567 14.0047V18.4559H15.0586V24.4922H20.2567V39.9819H26.5026Z" fill="white"/>
</svg>
