<svg width="198" height="46" viewBox="0 0 198 46" fill="none" xmlns="http://www.w3.org/2000/svg">
<path d="M30.928 30.956C30.928 32.0307 30.7373 32.828 30.356 33.348C29.9747 33.868 29.368 34.3707 28.536 34.856C28.0507 35.1333 27.444 35.4107 26.716 35.688C25.988 35.9307 25.1907 36.1387 24.324 36.312C23.4573 36.52 22.5387 36.676 21.568 36.78C20.632 36.884 19.696 36.936 18.76 36.936C16.264 36.936 13.924 36.624 11.74 36C9.556 35.3413 7.64933 34.336 6.02 32.984C4.42533 31.632 3.16 29.916 2.224 27.836C1.288 25.7213 0.82 23.208 0.82 20.296C0.82 17.5573 1.288 15.148 2.224 13.068C3.16 10.988 4.44267 9.23733 6.072 7.816C7.70133 6.39467 9.608 5.32 11.792 4.592C13.976 3.864 16.3333 3.5 18.864 3.5C22.1573 3.5 24.7573 4.02 26.664 5.06C28.6053 6.1 29.576 7.46933 29.576 9.168C29.576 10.0693 29.3507 10.8493 28.9 11.508C28.4493 12.1667 27.9293 12.6867 27.34 13.068C26.4733 12.548 25.3813 12.0453 24.064 11.56C22.7467 11.0747 21.2387 10.832 19.54 10.832C18.1533 10.832 16.888 11.0573 15.744 11.508C14.6 11.9587 13.612 12.6 12.78 13.432C11.948 14.2293 11.3067 15.2173 10.856 16.396C10.4053 17.54 10.18 18.8227 10.18 20.244C10.18 21.804 10.388 23.1733 10.804 24.352C11.2547 25.5307 11.8613 26.5187 12.624 27.316C13.4213 28.0787 14.34 28.668 15.38 29.084C16.4547 29.4653 17.6333 29.656 18.916 29.656C19.6787 29.656 20.3373 29.5867 20.892 29.448C21.4813 29.3093 21.932 29.1533 22.244 28.98V23.988H16.68C16.472 23.6067 16.264 23.104 16.056 22.48C15.8827 21.856 15.796 21.1973 15.796 20.504C15.796 19.256 16.0733 18.3547 16.628 17.8C17.2173 17.2453 17.9627 16.968 18.864 16.968H27.652C28.692 16.968 29.4893 17.2627 30.044 17.852C30.6333 18.4067 30.928 19.204 30.928 20.244V30.956ZM43.8273 26.848C44.3126 28.096 45.1273 28.98 46.2713 29.5C47.4153 29.9853 48.6979 30.228 50.1193 30.228C51.5753 30.228 52.9619 30.0547 54.2793 29.708C55.5966 29.3267 56.6539 28.8933 57.4513 28.408C58.0059 28.7547 58.4739 29.24 58.8553 29.864C59.2366 30.488 59.4273 31.1467 59.4273 31.84C59.4273 32.7067 59.1846 33.452 58.6993 34.076C58.2139 34.7 57.5206 35.22 56.6193 35.636C55.7526 36.052 54.7126 36.3467 53.4993 36.52C52.2859 36.728 50.9513 36.832 49.4953 36.832C47.4499 36.832 45.5433 36.5547 43.7753 36C42.0419 35.4107 40.5339 34.544 39.2513 33.4C37.9686 32.256 36.9633 30.8173 36.2353 29.084C35.5073 27.3507 35.1433 25.3227 35.1433 23C35.1433 20.712 35.5073 18.7533 36.2353 17.124C36.9979 15.46 37.9859 14.108 39.1993 13.068C40.4473 11.9933 41.8513 11.2133 43.4113 10.728C44.9713 10.208 46.5659 9.948 48.1953 9.948C50.0326 9.948 51.6966 10.2253 53.1873 10.78C54.7126 11.3347 56.0126 12.0973 57.0873 13.068C58.1966 14.0387 59.0459 15.2 59.6353 16.552C60.2246 17.904 60.5193 19.3773 60.5193 20.972C60.5193 22.1507 60.1899 23.052 59.5312 23.676C58.8726 24.3 57.9539 24.6987 56.7753 24.872L43.8273 26.848ZM48.2473 16.396C46.9299 16.396 45.8206 16.7947 44.9193 17.592C44.0526 18.3893 43.5326 19.516 43.3593 20.972L52.1993 19.516C52.1646 19.1693 52.0606 18.8227 51.8873 18.476C51.7139 18.0947 51.4713 17.748 51.1593 17.436C50.8473 17.124 50.4486 16.8813 49.9633 16.708C49.4779 16.5 48.9059 16.396 48.2473 16.396ZM72.3663 26.848C72.8516 28.096 73.6663 28.98 74.8103 29.5C75.9543 29.9853 77.237 30.228 78.6583 30.228C80.1143 30.228 81.501 30.0547 82.8183 29.708C84.1356 29.3267 85.193 28.8933 85.9903 28.408C86.545 28.7547 87.013 29.24 87.3943 29.864C87.7756 30.488 87.9663 31.1467 87.9663 31.84C87.9663 32.7067 87.7236 33.452 87.2383 34.076C86.753 34.7 86.0596 35.22 85.1583 35.636C84.2916 36.052 83.2516 36.3467 82.0383 36.52C80.825 36.728 79.4903 36.832 78.0343 36.832C75.989 36.832 74.0823 36.5547 72.3143 36C70.581 35.4107 69.073 34.544 67.7903 33.4C66.5076 32.256 65.5023 30.8173 64.7743 29.084C64.0463 27.3507 63.6823 25.3227 63.6823 23C63.6823 20.712 64.0463 18.7533 64.7743 17.124C65.537 15.46 66.525 14.108 67.7383 13.068C68.9863 11.9933 70.3903 11.2133 71.9503 10.728C73.5103 10.208 75.105 9.948 76.7343 9.948C78.5716 9.948 80.2356 10.2253 81.7263 10.78C83.2516 11.3347 84.5516 12.0973 85.6263 13.068C86.7356 14.0387 87.585 15.2 88.1743 16.552C88.7636 17.904 89.0583 19.3773 89.0583 20.972C89.0583 22.1507 88.729 23.052 88.0703 23.676C87.4116 24.3 86.493 24.6987 85.3143 24.872L72.3663 26.848ZM76.7863 16.396C75.469 16.396 74.3596 16.7947 73.4583 17.592C72.5916 18.3893 72.0716 19.516 71.8983 20.972L80.7383 19.516C80.7036 19.1693 80.5996 18.8227 80.4263 18.476C80.253 18.0947 80.0103 17.748 79.6983 17.436C79.3863 17.124 78.9876 16.8813 78.5023 16.708C78.017 16.5 77.445 16.396 76.7863 16.396ZM102.257 35.948C101.876 36.052 101.321 36.156 100.593 36.26C99.9 36.364 99.1374 36.416 98.3054 36.416C96.572 36.416 95.324 36.1387 94.5614 35.584C93.7987 34.9947 93.4174 33.8853 93.4174 32.256V2.096C93.7987 1.992 94.336 1.888 95.0294 1.784C95.7574 1.68 96.5374 1.628 97.3694 1.628C99.1027 1.628 100.351 1.92267 101.113 2.512C101.876 3.06667 102.257 4.15867 102.257 5.788V19.516L111.201 10.364C113.004 10.364 114.443 10.7627 115.517 11.56C116.627 12.3573 117.181 13.3627 117.181 14.576C117.181 15.096 117.095 15.5813 116.921 16.032C116.748 16.448 116.471 16.8813 116.089 17.332C115.743 17.7827 115.275 18.268 114.685 18.788C114.131 19.2733 113.472 19.8453 112.709 20.504L109.641 23.156L118.013 31.424C117.84 33.0533 117.355 34.3013 116.557 35.168C115.795 36.0347 114.668 36.468 113.177 36.468C112.068 36.468 111.08 36.208 110.213 35.688C109.347 35.1333 108.411 34.2147 107.405 32.932L102.257 26.536V35.948ZM147.145 23.364C147.145 25.444 146.816 27.316 146.157 28.98C145.533 30.644 144.614 32.0653 143.401 33.244C142.222 34.388 140.801 35.272 139.137 35.896C137.473 36.52 135.601 36.832 133.521 36.832C131.441 36.832 129.569 36.5373 127.905 35.948C126.241 35.324 124.802 34.44 123.589 33.296C122.41 32.1173 121.492 30.696 120.833 29.032C120.209 27.368 119.897 25.4787 119.897 23.364C119.897 21.3187 120.226 19.464 120.885 17.8C121.544 16.136 122.462 14.732 123.641 13.588C124.854 12.4093 126.293 11.508 127.957 10.884C129.621 10.26 131.476 9.948 133.521 9.948C135.566 9.948 137.421 10.2773 139.085 10.936C140.749 11.56 142.17 12.4613 143.349 13.64C144.562 14.784 145.498 16.188 146.157 17.852C146.816 19.516 147.145 21.3533 147.145 23.364ZM133.521 16.864C132.065 16.864 130.938 17.436 130.141 18.58C129.344 19.6893 128.945 21.284 128.945 23.364C128.945 25.548 129.344 27.1947 130.141 28.304C130.938 29.3787 132.065 29.916 133.521 29.916C134.977 29.916 136.104 29.3613 136.901 28.252C137.698 27.1427 138.097 25.5133 138.097 23.364C138.097 21.284 137.698 19.6893 136.901 18.58C136.104 17.436 134.977 16.864 133.521 16.864ZM159.934 12.704H168.462C168.67 13.0853 168.861 13.5707 169.034 14.16C169.242 14.7147 169.346 15.3387 169.346 16.032C169.346 17.2453 169.069 18.1293 168.514 18.684C167.994 19.204 167.283 19.464 166.382 19.464H160.402V35.948C160.021 36.052 159.466 36.156 158.738 36.26C158.045 36.364 157.282 36.416 156.45 36.416C154.717 36.416 153.469 36.1387 152.706 35.584C151.943 34.9947 151.562 33.8853 151.562 32.256V10.728C151.562 8.96 151.857 7.452 152.446 6.204C153.07 4.92133 153.902 3.88133 154.942 3.084C155.982 2.252 157.195 1.64533 158.582 1.264C160.003 0.882665 161.511 0.691999 163.106 0.691999C165.671 0.691999 167.561 1.03867 168.774 1.732C169.987 2.39066 170.594 3.53466 170.594 5.164C170.594 5.85733 170.438 6.48133 170.126 7.036C169.849 7.59067 169.537 8.00667 169.19 8.284C168.531 8.11066 167.838 7.972 167.11 7.868C166.417 7.72933 165.602 7.66 164.666 7.66C163.175 7.66 162.014 7.92 161.182 8.44C160.35 8.92533 159.934 9.792 159.934 11.04V12.704ZM177.246 29.552C176.865 28.6853 176.449 27.7147 175.998 26.64C175.582 25.5653 175.131 24.3347 174.646 22.948C174.195 21.5613 173.71 19.984 173.19 18.216C172.705 16.4133 172.185 14.3507 171.63 12.028C172.115 11.5427 172.757 11.1267 173.554 10.78C174.386 10.3987 175.287 10.208 176.258 10.208C177.471 10.208 178.477 10.468 179.274 10.988C180.071 11.4733 180.661 12.4093 181.042 13.796C181.735 16.2227 182.411 18.632 183.07 21.024C183.763 23.3813 184.457 25.7387 185.15 28.096H185.358C185.774 26.9173 186.173 25.6347 186.554 24.248C186.97 22.8613 187.369 21.44 187.75 19.984C188.131 18.4933 188.478 17.02 188.79 15.564C189.137 14.0733 189.431 12.6173 189.674 11.196C190.263 10.884 190.87 10.6413 191.494 10.468C192.118 10.2947 192.777 10.208 193.47 10.208C194.683 10.208 195.741 10.468 196.642 10.988C197.543 11.508 197.994 12.4093 197.994 13.692C197.994 15.0787 197.769 16.7427 197.318 18.684C196.902 20.5907 196.347 22.584 195.654 24.664C194.961 26.7093 194.181 28.72 193.314 30.696C192.447 32.672 191.581 34.4053 190.714 35.896C188.738 39.2933 186.918 41.7893 185.254 43.384C183.625 45.0133 181.961 45.828 180.262 45.828C178.875 45.828 177.714 45.3947 176.778 44.528C175.842 43.6613 175.287 42.5347 175.114 41.148C176.223 40.212 177.333 39.1547 178.442 37.976C179.551 36.7973 180.522 35.6013 181.354 34.388C180.765 34.2147 180.123 33.816 179.43 33.192C178.771 32.5333 178.043 31.32 177.246 29.552Z" fill="#0084FF"/>
</svg>
