<svg width="13" height="20" viewBox="0 0 13 20" fill="none" xmlns="http://www.w3.org/2000/svg">
<path d="M13 18.4375C13 19.3019 10.0881 20 6.5 20C2.91186 20 0 19.3019 0 18.4375C0 17.6652 2.33303 17.0295 5.39255 16.8988H7.60745C10.6699 17.0295 13 17.6652 13 18.4375Z" fill="#E3E2E1"/>
<path d="M6.04225 0C2.70513 0 0 2.718 0 6.07466C0 9.43132 6.04225 17.4487 6.04225 17.4487C6.04225 17.4487 12.0816 9.43132 12.0816 6.07466C12.0816 2.718 9.37937 0 6.04225 0ZM6.04225 10.0967C3.83326 10.0967 2.04362 8.29659 2.04362 6.07466C2.04362 3.85273 3.83326 2.05261 6.04225 2.05261C8.25125 2.05261 10.0409 3.85273 10.0409 6.07466C10.0409 8.29659 8.25125 10.0967 6.04225 10.0967Z" fill="#E82327"/>
</svg>
