<svg width="125" height="125" viewBox="0 0 125 125" fill="none" xmlns="http://www.w3.org/2000/svg">
<circle cx="62.5" cy="62.5" r="62.5" fill="#D5E8FF" fill-opacity="0.5"/>
<rect x="23" y="23" width="44.5" height="73" rx="6.5" fill="white" stroke="black" stroke-width="2"/>
<rect x="36" y="24.5" width="18.5" height="5" rx="1" fill="black"/>
<path d="M47.0283 35.5C44.5274 35.5 42.5 37.7432 42.5 40.5103V56.0422C42.5 58.8093 44.5274 61.0525 47.0283 61.0525H51.3732L50.9586 63.831C50.8113 64.8183 51.9189 65.4084 52.5247 64.6655L55.186 61.4013C55.6321 61.0525 56.0849 61.0525 56.5377 61.0525H59.4811C59.934 61.0525 59.934 61.0525 60.1604 61.0525H60.3438H109.972C112.473 61.0525 114.5 58.8093 114.5 56.0422V40.5103C114.5 37.7432 112.473 35.5 109.972 35.5H47.0283Z" fill="#0084FF"/>
<path d="M60.5141 43.0012C60.6378 42.4918 61.3622 42.4918 61.4859 43.0012L61.9865 45.0632C62.0664 45.3922 62.4434 45.5484 62.7326 45.3722L64.5447 44.2682C64.9923 43.9954 65.5046 44.5077 65.2318 44.9553L64.1278 46.7674C63.9516 47.0566 64.1078 47.4336 64.4368 47.5135L66.4988 48.0141C67.0082 48.1378 67.0082 48.8622 66.4988 48.9859L64.4368 49.4865C64.1078 49.5664 63.9516 49.9434 64.1278 50.2326L65.2318 52.0447C65.5046 52.4923 64.9923 53.0046 64.5447 52.7318L62.7326 51.6278C62.4434 51.4516 62.0664 51.6078 61.9865 51.9368L61.4859 53.9988C61.3622 54.5082 60.6378 54.5082 60.5141 53.9988L60.0135 51.9368C59.9336 51.6078 59.5566 51.4516 59.2674 51.6278L57.4553 52.7318C57.0077 53.0046 56.4954 52.4923 56.7682 52.0447L57.8722 50.2326C58.0484 49.9434 57.8922 49.5664 57.5632 49.4865L55.5012 48.9859C54.9918 48.8622 54.9918 48.1378 55.5012 48.0141L57.5632 47.5135C57.8922 47.4336 58.0484 47.0566 57.8722 46.7674L56.7682 44.9553C56.4954 44.5077 57.0077 43.9954 57.4553 44.2682L59.2674 45.3722C59.5566 45.5484 59.9336 45.3922 60.0135 45.0632L60.5141 43.0012Z" fill="white"/>
<path d="M78.0141 43.0012C78.1378 42.4918 78.8622 42.4918 78.9859 43.0012L79.4865 45.0632C79.5664 45.3922 79.9434 45.5484 80.2326 45.3722L82.0447 44.2682C82.4923 43.9954 83.0046 44.5077 82.7318 44.9553L81.6278 46.7674C81.4516 47.0566 81.6078 47.4336 81.9368 47.5135L83.9988 48.0141C84.5082 48.1378 84.5082 48.8622 83.9988 48.9859L81.9368 49.4865C81.6078 49.5664 81.4516 49.9434 81.6278 50.2326L82.7318 52.0447C83.0046 52.4923 82.4923 53.0046 82.0447 52.7318L80.2326 51.6278C79.9434 51.4516 79.5664 51.6078 79.4865 51.9368L78.9859 53.9988C78.8622 54.5082 78.1378 54.5082 78.0141 53.9988L77.5135 51.9368C77.4336 51.6078 77.0566 51.4516 76.7674 51.6278L74.9553 52.7318C74.5077 53.0046 73.9954 52.4923 74.2682 52.0447L75.3722 50.2326C75.5484 49.9434 75.3922 49.5664 75.0632 49.4865L73.0012 48.9859C72.4918 48.8622 72.4918 48.1378 73.0012 48.0141L75.0632 47.5135C75.3922 47.4336 75.5484 47.0566 75.3722 46.7674L74.2682 44.9553C73.9954 44.5077 74.5077 43.9954 74.9553 44.2682L76.7674 45.3722C77.0566 45.5484 77.4336 45.3922 77.5135 45.0632L78.0141 43.0012Z" fill="white"/>
<path d="M95.5141 43.0012C95.6378 42.4918 96.3622 42.4918 96.4859 43.0012L96.9865 45.0632C97.0664 45.3922 97.4434 45.5484 97.7326 45.3722L99.5447 44.2682C99.9923 43.9954 100.505 44.5077 100.232 44.9553L99.1278 46.7674C98.9516 47.0566 99.1078 47.4336 99.4368 47.5135L101.499 48.0141C102.008 48.1378 102.008 48.8622 101.499 48.9859L99.4368 49.4865C99.1078 49.5664 98.9516 49.9434 99.1278 50.2326L100.232 52.0447C100.505 52.4923 99.9923 53.0046 99.5447 52.7318L97.7326 51.6278C97.4434 51.4516 97.0664 51.6078 96.9865 51.9368L96.4859 53.9988C96.3622 54.5082 95.6378 54.5082 95.5141 53.9988L95.0135 51.9368C94.9336 51.6078 94.5566 51.4516 94.2674 51.6278L92.4553 52.7318C92.0077 53.0046 91.4954 52.4923 91.7682 52.0447L92.8722 50.2326C93.0484 49.9434 92.8922 49.5664 92.5632 49.4865L90.5012 48.9859C89.9918 48.8622 89.9918 48.1378 90.5012 48.0141L92.5632 47.5135C92.8922 47.4336 93.0484 47.0566 92.8722 46.7674L91.7682 44.9553C91.4954 44.5077 92.0077 43.9954 92.4553 44.2682L94.2674 45.3722C94.5566 45.5484 94.9336 45.3922 95.0135 45.0632L95.5141 43.0012Z" fill="white"/>
</svg>
