<svg width="21" height="14" viewBox="0 0 21 14" fill="none" xmlns="http://www.w3.org/2000/svg">
<path d="M10.5 12.9231C14.5541 12.9231 18.0608 10.5323 19.8649 7C18.0608 3.46769 14.5541 1.07692 10.5 1.07692C6.44595 1.07692 2.93919 3.46769 1.13514 7C2.93919 10.5323 6.44595 12.9231 10.5 12.9231ZM10.5 0C15.1216 0 19.1149 2.85385 21 7C19.1149 11.1462 15.1216 14 10.5 14C5.87838 14 1.88514 11.1462 0 7C1.88514 2.85385 5.87838 0 10.5 0ZM10.5 2.15385C13.0338 2.15385 15.0608 4.30769 15.0608 7C15.0608 9.69231 13.0338 11.8462 10.5 11.8462C7.96622 11.8462 5.93919 9.69231 5.93919 7C5.93919 4.30769 7.96622 2.15385 10.5 2.15385ZM10.5 3.23077C9.5592 3.23077 8.65693 3.62788 7.99168 4.33475C7.32643 5.04162 6.9527 6.00034 6.9527 7C6.9527 7.99966 7.32643 8.95838 7.99168 9.66525C8.65693 10.3721 9.5592 10.7692 10.5 10.7692C11.4408 10.7692 12.3431 10.3721 13.0083 9.66525C13.6736 8.95838 14.0473 7.99966 14.0473 7C14.0473 6.00034 13.6736 5.04162 13.0083 4.33475C12.3431 3.62788 11.4408 3.23077 10.5 3.23077Z" fill="#666666"/>
</svg>
