<svg width="25" height="25" viewBox="0 0 20 17" fill="none" xmlns="http://www.w3.org/2000/svg">
<path d="M14.7826 1.54545H0.869565V0H14.7826V1.54545ZM14.3478 8.5H13.0435V12.3636L16.1826 14.0327L16.8348 13.09L14.3478 11.7841V8.5ZM20 11.5909C20 14.5814 17.2783 17 13.913 17C10.8435 17 8.32174 14.9832 7.89565 12.3636H0.869565V7.72727H0V6.18182L0.869565 2.31818H14.7826L15.6522 6.18182V6.40591C18.1652 7.07818 20 9.14136 20 11.5909ZM2.6087 10.8182H7.82609V7.72727H2.6087V10.8182ZM18.2609 11.5909C18.2609 9.45818 16.313 7.72727 13.913 7.72727C11.513 7.72727 9.56522 9.45818 9.56522 11.5909C9.56522 13.7236 11.513 15.4545 13.913 15.4545C16.313 15.4545 18.2609 13.7236 18.2609 11.5909Z" fill="#666666"/>
</svg>
