<svg width="125" height="125" viewBox="0 0 125 125" fill="none" xmlns="http://www.w3.org/2000/svg">
<circle cx="62.5" cy="62.5" r="62.5" fill="#D5E8FF" fill-opacity="0.5"/>
<path d="M69.75 40H26.4167C23.4251 40 21 42.4251 21 45.4167V77.9167C21 80.9082 23.4251 83.3333 26.4167 83.3333H69.75C72.7415 83.3333 75.1666 80.9082 75.1666 77.9167V45.4167C75.1666 42.4251 72.7415 40 69.75 40Z" fill="white" stroke="black" stroke-opacity="0.6" stroke-width="3" stroke-linecap="round" stroke-linejoin="round"/>
<path d="M75.1666 48.125L50.8729 63.5625C50.0368 64.0864 49.07 64.3642 48.0833 64.3642C47.0966 64.3642 46.1299 64.0864 45.2937 63.5625L21 48.125" fill="white"/>
<path d="M75.1666 48.125L50.8729 63.5625C50.0368 64.0864 49.07 64.3642 48.0833 64.3642C47.0966 64.3642 46.1299 64.0864 45.2937 63.5625L21 48.125" stroke="black" stroke-opacity="0.6" stroke-width="3" stroke-linecap="round" stroke-linejoin="round"/>
<path d="M37.5283 19C35.0274 19 33 21.2432 33 24.0103V39.5422C33 42.3093 35.0274 44.5525 37.5283 44.5525H41.8732L41.4586 47.331C41.3113 48.3183 42.4189 48.9084 43.0247 48.1655L45.686 44.9013C46.1321 44.5525 46.5849 44.5525 47.0377 44.5525H49.9811C50.434 44.5525 50.434 44.5525 50.6604 44.5525H50.8438H100.472C102.973 44.5525 105 42.3093 105 39.5422V24.0103C105 21.2432 102.973 19 100.472 19H37.5283Z" fill="#0084FF"/>
<path d="M46.5141 26.0012C46.6378 25.4918 47.3622 25.4918 47.4859 26.0012L47.9865 28.0632C48.0664 28.3922 48.4434 28.5484 48.7326 28.3722L50.5447 27.2682C50.9923 26.9954 51.5046 27.5077 51.2318 27.9553L50.1278 29.7674C49.9516 30.0566 50.1078 30.4336 50.4368 30.5135L52.4988 31.0141C53.0082 31.1378 53.0082 31.8622 52.4988 31.9859L50.4368 32.4865C50.1078 32.5664 49.9516 32.9434 50.1278 33.2326L51.2318 35.0447C51.5046 35.4923 50.9923 36.0046 50.5447 35.7318L48.7326 34.6278C48.4434 34.4516 48.0664 34.6078 47.9865 34.9368L47.4859 36.9988C47.3622 37.5082 46.6378 37.5082 46.5141 36.9988L46.0135 34.9368C45.9336 34.6078 45.5566 34.4516 45.2674 34.6278L43.4553 35.7318C43.0077 36.0046 42.4954 35.4923 42.7682 35.0447L43.8722 33.2326C44.0484 32.9434 43.8922 32.5664 43.5632 32.4865L41.5012 31.9859C40.9918 31.8622 40.9918 31.1378 41.5012 31.0141L43.5632 30.5135C43.8922 30.4336 44.0484 30.0566 43.8722 29.7674L42.7682 27.9553C42.4954 27.5077 43.0077 26.9954 43.4553 27.2682L45.2674 28.3722C45.5566 28.5484 45.9336 28.3922 46.0135 28.0632L46.5141 26.0012Z" fill="white"/>
<path d="M64.0141 26.0012C64.1378 25.4918 64.8622 25.4918 64.9859 26.0012L65.4865 28.0632C65.5664 28.3922 65.9434 28.5484 66.2326 28.3722L68.0447 27.2682C68.4923 26.9954 69.0046 27.5077 68.7318 27.9553L67.6278 29.7674C67.4516 30.0566 67.6078 30.4336 67.9368 30.5135L69.9988 31.0141C70.5082 31.1378 70.5082 31.8622 69.9988 31.9859L67.9368 32.4865C67.6078 32.5664 67.4516 32.9434 67.6278 33.2326L68.7318 35.0447C69.0046 35.4923 68.4923 36.0046 68.0447 35.7318L66.2326 34.6278C65.9434 34.4516 65.5664 34.6078 65.4865 34.9368L64.9859 36.9988C64.8622 37.5082 64.1378 37.5082 64.0141 36.9988L63.5135 34.9368C63.4336 34.6078 63.0566 34.4516 62.7674 34.6278L60.9553 35.7318C60.5077 36.0046 59.9954 35.4923 60.2682 35.0447L61.3722 33.2326C61.5484 32.9434 61.3922 32.5664 61.0632 32.4865L59.0012 31.9859C58.4918 31.8622 58.4918 31.1378 59.0012 31.0141L61.0632 30.5135C61.3922 30.4336 61.5484 30.0566 61.3722 29.7674L60.2682 27.9553C59.9954 27.5077 60.5077 26.9954 60.9553 27.2682L62.7674 28.3722C63.0566 28.5484 63.4336 28.3922 63.5135 28.0632L64.0141 26.0012Z" fill="white"/>
<path d="M81.5141 26.0012C81.6378 25.4918 82.3622 25.4918 82.4859 26.0012L82.9865 28.0632C83.0664 28.3922 83.4434 28.5484 83.7326 28.3722L85.5447 27.2682C85.9923 26.9954 86.5046 27.5077 86.2318 27.9553L85.1278 29.7674C84.9516 30.0566 85.1078 30.4336 85.4368 30.5135L87.4988 31.0141C88.0082 31.1378 88.0082 31.8622 87.4988 31.9859L85.4368 32.4865C85.1078 32.5664 84.9516 32.9434 85.1278 33.2326L86.2318 35.0447C86.5046 35.4923 85.9923 36.0046 85.5447 35.7318L83.7326 34.6278C83.4434 34.4516 83.0664 34.6078 82.9865 34.9368L82.4859 36.9988C82.3622 37.5082 81.6378 37.5082 81.5141 36.9988L81.0135 34.9368C80.9336 34.6078 80.5566 34.4516 80.2674 34.6278L78.4553 35.7318C78.0077 36.0046 77.4954 35.4923 77.7682 35.0447L78.8722 33.2326C79.0484 32.9434 78.8922 32.5664 78.5632 32.4865L76.5012 31.9859C75.9918 31.8622 75.9918 31.1378 76.5012 31.0141L78.5632 30.5135C78.8922 30.4336 79.0484 30.0566 78.8722 29.7674L77.7682 27.9553C77.4954 27.5077 78.0077 26.9954 78.4553 27.2682L80.2674 28.3722C80.5566 28.5484 80.9336 28.3922 81.0135 28.0632L81.5141 26.0012Z" fill="white"/>
</svg>
