<svg width="100" height="112" viewBox="0 0 100 112" fill="none" xmlns="http://www.w3.org/2000/svg">
<path d="M50 61.4706C63.3111 61.4706 75.4167 65.3488 84.3222 70.8141C88.7667 73.5412 92.5667 76.76 95.3111 80.2582C98.0111 83.695 100 87.8079 100 92.2059C100 96.9279 97.7167 100.65 94.4278 103.304C91.3167 105.819 87.2111 107.484 82.85 108.646C74.0833 110.977 62.3833 111.765 50 111.765C37.6167 111.765 25.9167 110.982 17.15 108.646C12.7889 107.484 8.68333 105.819 5.57222 103.304C2.27778 100.644 0 96.9279 0 92.2059C0 87.8079 1.98889 83.695 4.68889 80.2526C7.43333 76.76 11.2278 73.5468 15.6778 70.8085C24.5833 65.3544 36.6944 61.4706 50 61.4706ZM50 0C57.3671 0 64.4325 2.94379 69.6419 8.18378C74.8512 13.4238 77.7778 20.5307 77.7778 27.9412C77.7778 35.3516 74.8512 42.4586 69.6419 47.6986C64.4325 52.9386 57.3671 55.8823 50 55.8823C42.6329 55.8823 35.5675 52.9386 30.3581 47.6986C25.1488 42.4586 22.2222 35.3516 22.2222 27.9412C22.2222 20.5307 25.1488 13.4238 30.3581 8.18378C35.5675 2.94379 42.6329 0 50 0Z" fill="#333333"/>
</svg>
