<svg width="30" height="30" viewBox="0 0 20 15" fill="none" xmlns="http://www.w3.org/2000/svg">
<path d="M18.3333 0H1.66667C0.746528 0 0 0.719866 0 1.60714V13.3929C0 14.2801 0.746528 15 1.66667 15H18.3333C19.2535 15 20 14.2801 20 13.3929V1.60714C20 0.719866 19.2535 0 18.3333 0ZM18.3333 13.3929H1.66667V1.60714H18.3333V13.3929ZM7.22222 7.5C8.44792 7.5 9.44444 6.53906 9.44444 5.35714C9.44444 4.17522 8.44792 3.21429 7.22222 3.21429C5.99653 3.21429 5 4.17522 5 5.35714C5 6.53906 5.99653 7.5 7.22222 7.5ZM4.11111 11.7857H10.3333C10.7639 11.7857 11.1111 11.4978 11.1111 11.1429V10.5C11.1111 9.43527 10.066 8.57143 8.77778 8.57143C8.40278 8.57143 8.12847 8.83929 7.22222 8.83929C6.28819 8.83929 6.0625 8.57143 5.66667 8.57143C4.37847 8.57143 3.33333 9.43527 3.33333 10.5V11.1429C3.33333 11.4978 3.68056 11.7857 4.11111 11.7857ZM12.5 9.64286H16.3889C16.5417 9.64286 16.6667 9.52232 16.6667 9.375V8.83929C16.6667 8.69196 16.5417 8.57143 16.3889 8.57143H12.5C12.3472 8.57143 12.2222 8.69196 12.2222 8.83929V9.375C12.2222 9.52232 12.3472 9.64286 12.5 9.64286ZM12.5 7.5H16.3889C16.5417 7.5 16.6667 7.37946 16.6667 7.23214V6.69643C16.6667 6.54911 16.5417 6.42857 16.3889 6.42857H12.5C12.3472 6.42857 12.2222 6.54911 12.2222 6.69643V7.23214C12.2222 7.37946 12.3472 7.5 12.5 7.5ZM12.5 5.35714H16.3889C16.5417 5.35714 16.6667 5.23661 16.6667 5.08929V4.55357C16.6667 4.40625 16.5417 4.28571 16.3889 4.28571H12.5C12.3472 4.28571 12.2222 4.40625 12.2222 4.55357V5.08929C12.2222 5.23661 12.3472 5.35714 12.5 5.35714Z" fill="#666666"/>
</svg>
