<svg width="25" height="25" viewBox="0 0 25 25" fill="none" xmlns="http://www.w3.org/2000/svg">
<g clip-path="url(#clip0_1198_16629)">
<path d="M10.9375 3.12498C8.8655 3.12498 6.87836 3.94808 5.41323 5.41321C3.9481 6.87834 3.125 8.86548 3.125 10.9375C3.125 13.0095 3.9481 14.9966 5.41323 16.4618C6.87836 17.9269 8.8655 18.75 10.9375 18.75C13.0095 18.75 14.9966 17.9269 16.4618 16.4618C17.9269 14.9966 18.75 13.0095 18.75 10.9375C18.75 8.86548 17.9269 6.87834 16.4618 5.41321C14.9966 3.94808 13.0095 3.12498 10.9375 3.12498ZM3.44659e-07 10.9375C3.29656e-06 9.20508 0.411524 7.49745 1.20067 5.95522C1.98983 4.41299 3.13403 3.08028 4.53907 2.06682C5.94411 1.05336 7.56979 0.388156 9.28224 0.125978C10.9947 -0.1362 12.7449 0.0121495 14.3888 0.558811C16.0327 1.10547 17.5233 2.03481 18.7377 3.27029C19.9521 4.50577 20.8557 6.01205 21.374 7.66511C21.8923 9.31816 22.0105 11.0707 21.719 12.7784C21.4274 14.4861 20.7343 16.1001 19.6969 17.4875L24.5422 22.3312L22.3328 24.5422L17.4891 19.6984C15.8633 20.9146 13.9311 21.6542 11.9089 21.8345C9.88658 22.0148 7.85403 21.6287 6.03876 20.7194C4.22349 19.81 2.69715 18.4134 1.63063 16.6858C0.564104 14.9581 -0.000509258 12.9678 3.44659e-07 10.9375Z" fill="#0084FF"/>
</g>
<defs>
<clipPath id="clip0_1198_16629">
<rect width="25" height="25" fill="white"/>
</clipPath>
</defs>
</svg>
