<svg width="22" height="22" viewBox="0 0 22 22" fill="none" xmlns="http://www.w3.org/2000/svg">
<g clip-path="url(#clip0_732_10934)">
<path d="M21.6576 0.135045C21.9277 0.331473 22.0382 0.593378 21.9891 0.920759L18.8462 19.7779C18.8053 20.0153 18.6744 20.1994 18.4534 20.3304C18.3388 20.3958 18.2119 20.4286 18.0728 20.4286C17.9828 20.4286 17.8845 20.4081 17.7781 20.3672L12.2168 18.096L9.24578 21.7176C9.09846 21.9059 8.89794 22 8.64422 22C8.53782 22 8.44779 21.9836 8.37413 21.9509C8.21863 21.8936 8.09381 21.7974 7.99969 21.6624C7.90557 21.5273 7.85851 21.378 7.85851 21.2143V16.9297L18.4656 3.92857L5.34177 15.2846L0.492435 13.2958C0.189608 13.1812 0.0259177 12.9561 0.00136409 12.6205C-0.015005 12.2932 0.115947 12.0517 0.394221 11.8962L20.8228 0.110491C20.9456 0.0368304 21.0765 0 21.2156 0C21.3793 0 21.5267 0.0450149 21.6576 0.135045Z" fill="#0084FF"/>
</g>
<defs>
<clipPath id="clip0_732_10934">
<rect width="22" height="22" fill="white"/>
</clipPath>
</defs>
</svg>
