<svg width="28" height="26" viewBox="0 0 28 26" fill="none" xmlns="http://www.w3.org/2000/svg">
<path d="M13.0489 1.92705C13.3483 1.00574 14.6517 1.00574 14.9511 1.92705L17.1432 8.67376C17.2771 9.08578 17.661 9.36475 18.0943 9.36475H25.1882C26.1569 9.36475 26.5597 10.6044 25.776 11.1738L20.0369 15.3435C19.6864 15.5981 19.5397 16.0495 19.6736 16.4615L21.8657 23.2082C22.1651 24.1295 21.1106 24.8956 20.3269 24.3262L14.5878 20.1565C14.2373 19.9019 13.7627 19.9019 13.4122 20.1565L7.67312 24.3262C6.88941 24.8956 5.83493 24.1295 6.13428 23.2082L8.32642 16.4615C8.46029 16.0495 8.31363 15.5981 7.96315 15.3435L2.22405 11.1738C1.44034 10.6044 1.84311 9.36475 2.81184 9.36475H9.90575C10.339 9.36475 10.7229 9.08578 10.8568 8.67376L13.0489 1.92705Z" stroke="#FFB45C" stroke-width="2"/>
</svg>
