<svg width="106" height="106" viewBox="0 0 106 106" fill="none" xmlns="http://www.w3.org/2000/svg">
<circle cx="53" cy="53" r="51.5" fill="#D5E8FF" fill-opacity="0.5" stroke="#0084FF" stroke-width="3"/>
<path d="M45.2425 64.6282C44.2553 63.6411 44.2553 62.0406 45.2425 61.0534L64.1373 42.1586C65.1244 41.1715 66.7249 41.1715 67.7121 42.1586C68.6992 43.1458 68.6992 44.7463 67.7121 45.7334L48.8173 64.6282C47.8301 65.6154 46.2296 65.6154 45.2425 64.6282Z" fill="#D9D9D9"/>
<path d="M45.2425 64.6282C44.2553 63.6411 44.2553 62.0406 45.2425 61.0534L64.1373 42.1586C65.1244 41.1715 66.7249 41.1715 67.7121 42.1586C68.6992 43.1458 68.6992 44.7463 67.7121 45.7334L48.8173 64.6282C47.8301 65.6154 46.2296 65.6154 45.2425 64.6282Z" fill="#0084FF"/>
<rect x="40.1172" y="52.7192" width="14.3973" height="4.80558" rx="2.40279" transform="rotate(45 40.1172 52.7192)" fill="#D9D9D9"/>
<rect x="40.1172" y="52.7192" width="14.3973" height="4.80558" rx="2.40279" transform="rotate(45 40.1172 52.7192)" fill="#0084FF"/>
</svg>
