<svg width="23" height="23" viewBox="0 0 23 23" fill="none" xmlns="http://www.w3.org/2000/svg">
<path d="M10.7348 5.28239L10.9679 2.91339C11.0601 1.96139 11.961 1.31539 12.871 1.54739C14.2401 1.89739 15.2017 3.15239 15.2017 4.59139V7.62639C15.2017 8.30139 15.2017 8.63939 15.3497 8.88639C15.4338 9.02739 15.5493 9.14639 15.6872 9.23139C15.9304 9.38239 16.2617 9.38239 16.9235 9.38239H17.3248C19.0505 9.38239 19.9129 9.38239 20.4439 9.77239C20.8422 10.0654 21.1229 10.4944 21.2344 10.9804C21.3823 11.6304 21.0509 12.4434 20.3872 14.0674L20.0568 14.8774C19.8652 15.3465 19.7868 15.8532 19.8278 16.3574C20.0629 19.2314 17.7534 21.6524 14.9302 21.4934L4.36675 20.8944C3.21252 20.8294 2.63591 20.7964 2.11503 20.3414C1.59314 19.8864 1.49485 19.4174 1.29927 18.4804C0.882256 16.4871 0.901259 14.4289 1.355 12.4434C1.64179 11.1954 2.84973 10.5234 4.09719 10.6834C7.40485 11.1034 10.4034 8.66339 10.7348 5.28239Z" stroke="#808080" stroke-width="2" stroke-linecap="round" stroke-linejoin="round"/>
<path d="M6.06733 11L5.9285 11.457C5.03086 14.4136 5.07935 17.5716 6.06733 20.5" stroke="#808080" stroke-width="2" stroke-linecap="round" stroke-linejoin="round"/>
</svg>
