<svg width="24" height="25" viewBox="0 0 24 25" fill="none" xmlns="http://www.w3.org/2000/svg">
<path fill-rule="evenodd" clip-rule="evenodd" d="M12.7262 23.803L12.713 23.8055L12.6278 23.8494L12.6037 23.8544L12.5869 23.8494L12.5017 23.8055C12.4889 23.8013 12.4793 23.8034 12.4729 23.8118L12.4681 23.8243L12.4477 24.361L12.4537 24.3861L12.4657 24.4024L12.5905 24.4952L12.6085 24.5002L12.623 24.4952L12.7478 24.4024L12.7622 24.3823L12.767 24.361L12.7466 23.8255C12.7434 23.8122 12.7366 23.8046 12.7262 23.803ZM13.0444 23.6613L13.0288 23.6638L12.8066 23.7804L12.7946 23.7929L12.791 23.8067L12.8127 24.3459L12.8187 24.361L12.8283 24.3698L13.0696 24.4864C13.0848 24.4906 13.0964 24.4872 13.1044 24.4763L13.1092 24.4588L13.0684 23.6889C13.0644 23.6738 13.0564 23.6646 13.0444 23.6613ZM12.1859 23.6638C12.1806 23.6604 12.1743 23.6594 12.1683 23.6608C12.1622 23.6622 12.1569 23.6659 12.1535 23.6713L12.1463 23.6889L12.1055 24.4588C12.1063 24.4738 12.1131 24.4839 12.1259 24.4889L12.1439 24.4864L12.3852 24.3698L12.3972 24.3597L12.402 24.3459L12.4224 23.8067L12.4188 23.7917L12.4068 23.7792L12.1859 23.6638Z" fill="#00900E"/>
<path fill-rule="evenodd" clip-rule="evenodd" d="M23.4727 1.05134C23.8103 1.40406 24 1.8824 24 2.38115C24 2.8799 23.8103 3.35824 23.4727 3.71096L9.97375 17.8091C9.79536 17.9955 9.58356 18.1433 9.35046 18.2441C9.11736 18.345 8.86752 18.3969 8.61521 18.3969C8.3629 18.3969 8.11306 18.345 7.87995 18.2441C7.64685 18.1433 7.43506 17.9955 7.25667 17.8091L0.549818 10.8058C0.377806 10.6323 0.240604 10.4247 0.146216 10.1953C0.0518283 9.96579 0.002146 9.71897 6.79989e-05 9.46922C-0.00201 9.21947 0.0435581 8.9718 0.134113 8.74064C0.224668 8.50948 0.358396 8.29947 0.527495 8.12287C0.696594 7.94626 0.897677 7.8066 1.11901 7.71202C1.34034 7.61745 1.5775 7.56986 1.81663 7.57203C2.05576 7.5742 2.29209 7.62608 2.51181 7.72466C2.73154 7.82324 2.93027 7.96653 3.0964 8.14618L8.61461 13.9093L20.9249 1.05134C21.0922 0.876548 21.2908 0.737893 21.5093 0.643292C21.7279 0.548691 21.9622 0.5 22.1988 0.5C22.4354 0.5 22.6697 0.548691 22.8883 0.643292C23.1069 0.737893 23.3054 0.876548 23.4727 1.05134Z" fill="#00900E"/>
</svg>
