<svg width="40" height="40" viewBox="0 0 40 40" fill="none" xmlns="http://www.w3.org/2000/svg">
<path d="M5.71233 0C2.56055 0 -0.00195312 2.5625 -0.00195312 5.71429V34.2857C-0.00195312 37.4375 2.56055 40 5.71233 40H34.2838C37.4355 40 39.998 37.4375 39.998 34.2857V5.71429C39.998 2.5625 37.4355 0 34.2838 0H5.71233ZM32.2391 7.5L22.9713 18.0893L33.873 32.5H25.3373L18.6588 23.7589L11.007 32.5H6.7659L16.6766 21.1696L6.22126 7.5H14.9713L21.0159 15.4911L27.998 7.5H32.2391ZM28.8641 29.9643L13.6945 9.90179H11.1677L26.507 29.9643H28.8552H28.8641Z" fill="black"/>
</svg>
