<svg width="49" height="48" viewBox="0 0 49 48" fill="none" xmlns="http://www.w3.org/2000/svg">
<path d="M43.5 8V12H37.5V18H33.5V12H27.5V8H33.5V2H37.5V8H43.5ZM26.5 22C27.2959 21.9997 28.0591 21.6833 28.6217 21.1203C29.1843 20.5573 29.5003 19.7939 29.5 18.998C29.4997 18.2021 29.1833 17.4389 28.6203 16.8763C28.0573 16.3137 27.2939 15.9977 26.498 15.998C26.1039 15.9981 25.7137 16.0759 25.3496 16.2268C24.9856 16.3778 24.6548 16.5989 24.3763 16.8777C24.0977 17.1564 23.8767 17.4873 23.7261 17.8515C23.5754 18.2156 23.4979 18.6059 23.498 19C23.4981 19.3941 23.5759 19.7843 23.7268 20.1484C23.8778 20.5124 24.0989 20.8432 24.3777 21.1217C24.6564 21.4003 24.9873 21.6213 25.3515 21.7719C25.7156 21.9226 26.1059 22.0001 26.5 22ZM33.5 28.468L32.474 27.328C32.0989 26.9103 31.64 26.5763 31.1273 26.3476C30.6145 26.1189 30.0594 26.0007 29.498 26.0007C28.9366 26.0007 28.3815 26.1189 27.8687 26.3476C27.356 26.5763 26.8971 26.9103 26.522 27.328L25.21 28.79L15.5 18L9.5 24.666V12H23.5V8H9.5C8.43913 8 7.42172 8.42143 6.67157 9.17157C5.92143 9.92172 5.5 10.9391 5.5 12V36C5.5 37.0609 5.92143 38.0783 6.67157 38.8284C7.42172 39.5786 8.43913 40 9.5 40H33.5C34.5609 40 35.5783 39.5786 36.3284 38.8284C37.0786 38.0783 37.5 37.0609 37.5 36V22H33.5V28.468Z" fill="#0084FF"/>
</svg>
