<svg width="20" height="21" viewBox="0 0 20 21" fill="none" xmlns="http://www.w3.org/2000/svg">
<path d="M10 0.5C10.5854 0.5 11.0997 0.801866 11.3966 1.2584C11.6422 1.63588 11.9622 2.01287 12.3971 2.12988C12.7964 2.23733 13.2171 2.10438 13.5945 1.93543C14.0661 1.72434 14.6288 1.73468 15.1104 2.0127C15.637 2.31681 15.9337 2.8647 15.9419 3.43142C15.9471 3.78854 16.023 4.16354 16.2714 4.42016C16.5446 4.70239 16.9654 4.78049 17.3582 4.77648C17.9402 4.77054 18.5085 5.07031 18.8203 5.61035C19.1732 6.22179 19.0939 6.96222 18.6781 7.4818C18.4841 7.72421 18.357 8.03439 18.4289 8.33643C18.5002 8.63564 18.7513 8.85732 19.0306 8.9861C19.6028 9.24994 20 9.82847 20 10.5C20 11.1832 19.5888 11.7691 19.0004 12.0259C18.7001 12.1569 18.4232 12.3789 18.3326 12.6938C18.2825 12.8681 18.227 13.04 18.1661 13.2095C18.1494 13.2561 18.1681 13.3082 18.2109 13.333C19.0079 13.7933 19.2805 14.8133 18.8203 15.6104C18.36 16.4073 17.341 16.6799 16.5439 16.2197C16.4502 16.1654 16.3317 16.1834 16.256 16.2609C16.1425 16.3771 16.0256 16.4899 15.9055 16.5994C15.781 16.7131 15.7487 16.8979 15.833 17.0439C16.2932 17.841 16.0205 18.86 15.2236 19.3203C14.4266 19.7805 13.4066 19.5079 12.9463 18.7109C12.8489 18.5423 12.6472 18.4657 12.4596 18.5179C12.2429 18.5783 12.0228 18.6302 11.7995 18.6736C11.7229 18.6884 11.667 18.755 11.667 18.833C11.667 19.7535 10.9205 20.5 10 20.5C9.07952 20.5 8.33301 19.7535 8.33301 18.833C8.33301 18.7155 8.25118 18.6142 8.13702 18.5865C8.05412 18.5663 7.97169 18.545 7.88975 18.5225C7.69549 18.4691 7.48692 18.5488 7.38672 18.7236C6.92642 19.5205 5.9074 19.7931 5.11035 19.333C4.3132 18.8728 4.03977 17.8538 4.5 17.0566C4.58663 16.906 4.5531 16.7157 4.42494 16.5984C4.30627 16.4898 4.19067 16.3779 4.07836 16.2627C3.99902 16.1814 3.8746 16.1626 3.77637 16.2197C2.97931 16.6798 1.96028 16.4073 1.5 15.6104C1.03976 14.8132 1.3132 13.7932 2.11035 13.333C2.15839 13.3048 2.17919 13.2462 2.16049 13.1937C2.06408 12.9229 1.98221 12.6456 1.91352 12.363C1.88577 12.2488 1.78448 12.167 1.66699 12.167C0.746518 12.167 1.93278e-07 11.4205 0 10.5C0 9.57952 0.746517 8.83301 1.66699 8.83301C1.74497 8.83301 1.81157 8.77707 1.8263 8.7005C1.85174 8.56831 1.87987 8.43715 1.91101 8.30717C1.97779 8.02843 1.86083 7.74 1.67491 7.52185C1.23075 7.00071 1.13804 6.23751 1.5 5.61035C1.81231 5.06942 2.38197 4.76981 2.965 4.7769C3.36066 4.78171 3.78512 4.70399 4.06043 4.41977C4.3109 4.16119 4.38641 3.78263 4.39097 3.42266C4.39816 2.85451 4.69572 2.30479 5.22363 2C5.76067 1.69007 6.39827 1.71299 6.89793 2.00468C7.16781 2.16222 7.48639 2.25858 7.78654 2.17165C8.11113 2.07764 8.34191 1.79107 8.48057 1.4829C8.74131 0.903432 9.32323 0.5 10 0.5Z" fill="#0084FF"/>
<path fill-rule="evenodd" clip-rule="evenodd" d="M15.4323 7.0599C15.5824 7.20443 15.6667 7.40043 15.6667 7.60479C15.6667 7.80916 15.5824 8.00516 15.4323 8.14969L9.43278 13.9265C9.35349 14.0028 9.25936 14.0634 9.15576 14.1047C9.05216 14.146 8.94112 14.1673 8.82898 14.1673C8.71684 14.1673 8.6058 14.146 8.5022 14.1047C8.3986 14.0634 8.30447 14.0028 8.22519 13.9265L5.24436 11.0568C5.16791 10.9857 5.10693 10.9007 5.06498 10.8067C5.02303 10.7126 5.00095 10.6115 5.00003 10.5092C4.99911 10.4068 5.01936 10.3053 5.05961 10.2106C5.09985 10.1159 5.15929 10.0299 5.23444 9.95749C5.3096 9.88512 5.39897 9.82789 5.49734 9.78914C5.59571 9.75039 5.70111 9.73089 5.80739 9.73178C5.91367 9.73267 6.01871 9.75393 6.11636 9.79432C6.21402 9.83471 6.30234 9.89343 6.37618 9.96704L8.82871 12.3285L14.3 7.0599C14.3743 6.98828 14.4626 6.93146 14.5597 6.8927C14.6568 6.85394 14.761 6.83398 14.8661 6.83398C14.9713 6.83398 15.0754 6.85394 15.1726 6.8927C15.2697 6.93146 15.358 6.98828 15.4323 7.0599Z" fill="white"/>
</svg>
