<svg width="20" height="20" viewBox="0 0 20 20" fill="none" xmlns="http://www.w3.org/2000/svg">
<path fill-rule="evenodd" clip-rule="evenodd" d="M16.273 3.92043C16.0247 3.66404 15.9489 3.28926 15.9435 2.93237C15.9348 2.36534 15.6369 1.81699 15.11 1.51283C14.6286 1.23484 14.066 1.2244 13.5946 1.43538C13.2171 1.60432 12.7963 1.73726 12.3971 1.629C11.9629 1.51121 11.6429 1.13453 11.3971 0.757593C11.0998 0.301491 10.5851 0 10 0C9.32325 0 8.7407 0.403356 8.47966 0.982776C8.34101 1.29052 8.11048 1.57676 7.7864 1.67111C7.48657 1.7584 7.16821 1.66213 6.89855 1.50466C6.39864 1.21274 5.76052 1.18983 5.22329 1.5C4.69476 1.80515 4.39659 2.35607 4.3898 2.92505C4.38551 3.28441 4.31024 3.66236 4.06022 3.92052C3.78545 4.20422 3.36179 4.28178 2.96687 4.27658C2.38319 4.26888 1.81262 4.56857 1.5 5.11004C1.13759 5.73775 1.22991 6.50322 1.67476 7.02499C1.86043 7.24278 1.97721 7.53067 1.90928 7.80869C1.87739 7.93918 1.84852 8.07085 1.82274 8.20363C1.80819 8.27856 1.743 8.33333 1.66667 8.33333C0.746192 8.33333 0 9.07952 0 10C0 10.9205 0.746193 11.6667 1.66667 11.6667C1.78242 11.6667 1.88221 11.7473 1.90971 11.8597C1.97924 12.144 2.06308 12.4227 2.1604 12.695C2.17908 12.7473 2.15811 12.8056 2.11004 12.8333C1.31289 13.2936 1.03976 14.3129 1.5 15.11C1.96024 15.9072 2.97956 16.1803 3.77671 15.7201C3.87453 15.6636 3.99812 15.6824 4.07692 15.7634C4.19003 15.8795 4.30642 15.9924 4.42597 16.1019C4.55307 16.2184 4.5862 16.4073 4.5 16.5566C4.03976 17.3538 4.31289 18.3731 5.11004 18.8333C5.9072 19.2936 6.92651 19.0204 7.38675 18.2233C7.48698 18.0497 7.69451 17.9707 7.88767 18.0244C7.97135 18.0476 8.05556 18.0696 8.14026 18.0903C8.2527 18.1178 8.33333 18.2176 8.33333 18.3333C8.33333 19.2538 9.07952 20 10 20C10.9205 20 11.6667 19.2538 11.6667 18.3333C11.6667 18.257 11.7214 18.1918 11.7964 18.1773C12.0222 18.1334 12.2449 18.0806 12.464 18.0192C12.65 17.9672 12.85 18.0432 12.9466 18.2105C13.4068 19.0076 14.4261 19.2807 15.2233 18.8205C16.0204 18.3603 16.2936 17.341 15.8333 16.5438C15.75 16.3995 15.7819 16.2168 15.9049 16.1042C16.026 15.9933 16.144 15.8789 16.2585 15.7612C16.3334 15.6842 16.4508 15.6664 16.5438 15.7201C17.341 16.1803 18.3603 15.9072 18.8205 15.11C19.2807 14.3129 19.0076 13.2936 18.2105 12.8333C18.1685 12.8091 18.1502 12.7582 18.1666 12.7126C18.2279 12.5424 18.2838 12.3698 18.3343 12.1948C18.4251 11.8805 18.7015 11.6587 19.0012 11.5275C19.5892 11.27 20 10.683 20 10C20 9.32893 19.6034 8.75049 19.0318 8.4863C18.7533 8.35757 18.5029 8.13627 18.4311 7.83794C18.3586 7.5365 18.4855 7.22679 18.6791 6.9846C19.095 6.46427 19.1737 5.72175 18.8205 5.11004C18.5088 4.57013 17.9406 4.27061 17.3587 4.27652C16.9663 4.2805 16.546 4.20231 16.273 3.92043Z" fill="#00900E"/>
<path fill-rule="evenodd" clip-rule="evenodd" d="M15.4323 6.55941C15.5824 6.70394 15.6667 6.89994 15.6667 7.1043C15.6667 7.30867 15.5824 7.50467 15.4323 7.6492L9.43278 13.426C9.35349 13.5023 9.25936 13.5629 9.15576 13.6042C9.05216 13.6456 8.94112 13.6668 8.82898 13.6668C8.71684 13.6668 8.6058 13.6456 8.5022 13.6042C8.3986 13.5629 8.30447 13.5023 8.22519 13.426L5.24436 10.5563C5.16791 10.4852 5.10693 10.4002 5.06498 10.3062C5.02303 10.2121 5.00095 10.111 5.00003 10.0087C4.99911 9.90634 5.01936 9.80485 5.05961 9.71013C5.09985 9.61541 5.15929 9.52936 5.23444 9.457C5.3096 9.38463 5.39897 9.3274 5.49734 9.28865C5.59571 9.2499 5.70111 9.2304 5.80739 9.23129C5.91367 9.23218 6.01871 9.25344 6.11636 9.29383C6.21402 9.33422 6.30234 9.39294 6.37618 9.46655L8.82871 11.828L14.3 6.55941C14.3743 6.48779 14.4626 6.43097 14.5597 6.39221C14.6568 6.35345 14.761 6.3335 14.8661 6.3335C14.9713 6.3335 15.0754 6.35345 15.1726 6.39221C15.2697 6.43097 15.358 6.48779 15.4323 6.55941Z" fill="white"/>
</svg>
