<svg width="40" height="40" viewBox="0 0 40 40" fill="none" xmlns="http://www.w3.org/2000/svg">
<path d="M39.98 9.09445C39.9614 8.23646 39.8926 7.38029 39.774 6.53033C39.6306 5.77442 39.3864 5.04117 39.048 4.35022C38.308 2.8885 37.1211 1.70089 35.6598 0.960048C34.9732 0.623478 34.2447 0.379986 33.4937 0.236012C32.6372 0.115272 31.7743 0.0451468 30.9096 0.0260013C30.5436 0.0120006 30.0695 0.00600034 29.8495 0.00600034L10.1526 0C9.93254 0 9.45852 0.00600028 9.0925 0.020001C8.2345 0.0386028 7.37833 0.10739 6.52837 0.226011C5.77247 0.369418 5.03922 0.613609 4.34826 0.952048C2.88655 1.69203 1.69894 2.87893 0.958095 4.34022C0.621525 5.02685 0.378033 5.75531 0.234059 6.50632C0.11265 7.36278 0.0418566 8.22566 0.0220482 9.09045C0.0100476 9.45647 0.00204726 9.9305 0.00204726 10.1505L-0.00195312 29.8475C-0.00195312 30.0675 0.00404715 30.5415 0.0180479 30.9075C0.0366497 31.7655 0.105437 32.6217 0.224058 33.4717C0.367465 34.2276 0.611656 34.9608 0.950094 35.6518C1.69008 37.1135 2.87698 38.3011 4.33826 39.042C5.0249 39.3785 5.75336 39.622 6.50437 39.766C7.36087 39.8867 8.22374 39.9569 9.0885 39.976C9.45452 39.99 9.92854 39.996 10.1486 39.996L29.8455 40C30.0655 40 30.5396 39.994 30.9056 39.98C31.7636 39.9614 32.6198 39.8926 33.4697 39.774C34.2256 39.6306 34.9589 39.3864 35.6498 39.048C37.1123 38.3083 38.3006 37.1214 39.042 35.6598C39.3786 34.9731 39.6221 34.2447 39.766 33.4937C39.8874 32.6372 39.9582 31.7743 39.978 30.9095C39.99 30.5435 39.998 30.0695 39.998 29.8495L40 10.1545C40 9.9345 39.994 9.46047 39.98 9.09445ZM20.4331 33.9157H20.4271C18.046 33.9174 15.7027 33.3204 13.6127 32.1796L6.05235 34.1617L8.07645 26.7753C6.50928 24.0558 5.88308 20.8953 6.29496 17.7837C6.70683 14.6721 8.13376 11.7832 10.3545 9.56514C12.5753 7.34703 15.4658 5.92354 18.5778 5.51537C21.6899 5.10719 24.8498 5.73715 27.5674 7.30755C30.285 8.87796 32.4087 11.3011 33.609 14.2012C34.8094 17.1014 35.0194 20.3165 34.2065 23.3482C33.3937 26.3799 31.6033 29.0587 29.1131 30.9693C26.6228 32.8799 23.5718 33.9155 20.4331 33.9157Z" fill="#60D569"/>
<path d="M20.2116 8.35845C18.0936 8.35783 16.0142 8.92463 14.1895 9.9999C12.3649 11.0752 10.8616 12.6197 9.83602 14.4727C8.81046 16.3258 8.30007 18.4198 8.35794 20.5369C8.41581 22.6541 9.03982 24.7171 10.1651 26.5114L10.4471 26.9594L9.24903 31.3316L13.7353 30.1555L14.1673 30.4116C15.9928 31.4948 18.0768 32.0655 20.1996 32.0636H20.2056C23.3493 32.0642 26.3646 30.8158 28.5879 28.5932C30.8113 26.3706 32.0606 23.3558 32.0612 20.212C32.0617 17.0683 30.8134 14.0531 28.5907 11.8297C26.3681 9.60634 23.3533 8.35698 20.2096 8.35645L20.2116 8.35845ZM27.1799 25.2993C26.9181 25.7326 26.5693 26.1068 26.1555 26.3984C25.7417 26.69 25.2719 26.8926 24.7758 26.9934C24.0271 27.122 23.2586 27.0741 22.5317 26.8534C21.8419 26.6395 21.1642 26.3885 20.5016 26.1013C18.0409 24.8665 15.9436 23.0131 14.4153 20.7231C13.5813 19.6631 13.0752 18.3826 12.9592 17.0389C12.95 16.4843 13.0562 15.9339 13.271 15.4226C13.4859 14.9113 13.8047 14.4502 14.2073 14.0687C14.3267 13.9334 14.4727 13.824 14.6361 13.7472C14.7995 13.6705 14.9769 13.6281 15.1573 13.6227C15.3933 13.6227 15.6313 13.6227 15.8394 13.6347C16.0594 13.6447 16.3514 13.5507 16.6394 14.2467C16.9394 14.9588 17.6514 16.7129 17.7395 16.8909C17.7956 16.9843 17.8277 17.0902 17.833 17.1991C17.8382 17.308 17.8164 17.4165 17.7695 17.5149C17.6801 17.7291 17.5602 17.9292 17.4134 18.1089C17.2334 18.3169 17.0394 18.573 16.8794 18.733C16.6994 18.911 16.5154 19.103 16.7214 19.459C17.2573 20.3746 17.9252 21.2062 18.7035 21.9271C19.5497 22.6775 20.5194 23.2756 21.5696 23.6952C21.9257 23.8752 22.1337 23.8432 22.3417 23.6052C22.5497 23.3672 23.2317 22.5652 23.4697 22.2091C23.7078 21.8531 23.9438 21.9131 24.2698 22.0311C24.5958 22.1491 26.3499 23.0112 26.7059 23.1912C27.0619 23.3712 27.2999 23.4572 27.3879 23.6052C27.4841 24.1781 27.4118 24.7667 27.1799 25.2993Z" fill="#60D569"/>
</svg>
