<svg width="44" height="44" viewBox="0 0 44 44" fill="none" xmlns="http://www.w3.org/2000/svg">
<g clip-path="url(#clip0_732_10706)">
<path d="M20.6348 24.3212H23.549C23.947 24.3212 24.2697 24.0351 24.2697 23.6821C24.2697 23.3291 23.947 23.043 23.549 23.043H20.6348C20.2368 23.043 19.9141 23.3291 19.9141 23.6821C19.9141 24.0351 20.2367 24.3212 20.6348 24.3212Z" fill="#E82327"/>
<path d="M18.8023 8.01344C18.4997 7.7843 18.0447 7.81599 17.7861 8.08434L10.3016 15.8554C10.0431 16.1238 10.0789 16.5272 10.3815 16.7564C10.5173 16.8593 10.6837 16.9095 10.8493 16.9095C11.0528 16.9095 11.2551 16.8335 11.3977 16.6855L18.8823 8.91448C19.1408 8.64608 19.1049 8.24267 18.8023 8.01344Z" fill="#E82327"/>
<path d="M10.3708 12.6566C10.5081 12.7647 10.679 12.818 10.8493 12.818C11.0481 12.818 11.2459 12.7456 11.3882 12.6035L13.4112 10.5852C13.6757 10.3213 13.6489 9.91745 13.3514 9.68292C13.0538 9.44839 12.5983 9.47222 12.334 9.73605L10.3108 11.7544C10.0466 12.0181 10.0733 12.422 10.3708 12.6566Z" fill="#E82327"/>
<path d="M39.9411 35.6831C39.7449 35.1343 39.1769 34.7656 38.5277 34.7656H14.145C13.747 34.7656 13.4243 35.0517 13.4243 35.4047C13.4243 35.7577 13.747 36.0439 14.145 36.0439H38.5278C38.5458 36.0439 38.5617 36.0542 38.5671 36.0693L40.7878 42.2827C40.7899 42.2888 40.794 42.3003 40.7817 42.3153C40.7694 42.3302 40.7558 42.3302 40.7485 42.3302H3.43709C3.42978 42.3302 3.41623 42.3302 3.40384 42.3153C3.39154 42.3003 3.39557 42.2888 3.39778 42.2827L5.61843 36.0693C5.62392 36.0541 5.63967 36.0439 5.65774 36.0439H10.8917C11.2898 36.0439 11.6124 35.7577 11.6124 35.4047C11.6124 35.0517 11.2898 34.7656 10.8917 34.7656H5.65784C5.00862 34.7656 4.44061 35.1343 4.24447 35.6831L2.02382 41.8964C1.87939 42.3005 1.95848 42.7284 2.24081 43.0703C2.52313 43.4123 2.9592 43.6085 3.43709 43.6085H40.7484C41.2264 43.6085 41.6623 43.4123 41.9447 43.0703C42.2269 42.7284 42.3061 42.3005 42.1616 41.8964L39.9411 35.6831Z" fill="#E82327"/>
<path d="M41.1179 0H3.06967C1.48045 0 0.1875 1.14658 0.1875 2.55589V24.2021C0.1875 25.6113 1.48045 26.7579 3.06967 26.7579H17.2213C17.1718 28.0419 17.0296 30.1725 16.7192 31.367H13.6171C13.2191 31.367 12.8964 31.6532 12.8964 32.0061C12.8964 32.3591 13.2191 32.6453 13.6171 32.6453H30.5706C30.9687 32.6453 31.2914 32.3591 31.2914 32.0061C31.2914 31.6532 30.9687 31.367 30.5706 31.367H27.4685C27.1583 30.1725 27.016 28.0419 26.9665 26.7579H41.1181C42.7073 26.7579 44.0002 25.6113 44.0002 24.2021V2.55589C44.0001 1.14658 42.7071 0 41.1179 0ZM18.1909 31.367C18.5088 29.9222 18.6239 27.8052 18.6631 26.7579H25.5245C25.5636 27.8052 25.6786 29.9222 25.9967 31.367H18.1909ZM42.5586 24.2021C42.5586 24.9065 41.9123 25.4797 41.1179 25.4797H3.06967C2.27525 25.4797 1.62892 24.9065 1.62892 24.2021V21.8858H42.5587L42.5586 24.2021ZM42.5586 20.6075H40.6654V11.1736C40.6654 10.8207 40.3427 10.5345 39.9447 10.5345C39.5467 10.5345 39.224 10.8207 39.224 11.1736V20.6075H4.9636V4.33256C4.9636 4.23942 5.04903 4.16365 5.15406 4.16365H39.0335C39.1385 4.16365 39.224 4.23942 39.224 4.33256V8.24925C39.224 8.60225 39.5467 8.88841 39.9447 8.88841C40.3427 8.88841 40.6654 8.60225 40.6654 8.24925V4.33256C40.6654 3.53459 39.9333 2.88541 39.0335 2.88541H5.15406C4.25423 2.88541 3.52218 3.53459 3.52218 4.33256V20.6075H1.62892V2.55589C1.62892 1.8514 2.27525 1.27824 3.06967 1.27824H41.1179C41.9123 1.27824 42.5586 1.8514 42.5586 2.55589V20.6075Z" fill="#E82327"/>
<path d="M10.894 37.4043H9.91606C9.518 37.4043 9.19531 37.6905 9.19531 38.0434C9.19531 38.3964 9.518 38.6825 9.91606 38.6825H10.894C11.292 38.6825 11.6146 38.3964 11.6146 38.0434C11.6146 37.6905 11.292 37.4043 10.894 37.4043Z" fill="#E82327"/>
<path d="M13.8262 38.6825H14.8041C15.2022 38.6825 15.5249 38.3964 15.5249 38.0434C15.5249 37.6905 15.2022 37.4043 14.8041 37.4043H13.8262C13.4282 37.4043 13.1055 37.6905 13.1055 38.0434C13.1055 38.3964 13.4282 38.6825 13.8262 38.6825Z" fill="#E82327"/>
<path d="M17.7403 38.6825H18.7182C19.1163 38.6825 19.439 38.3964 19.439 38.0434C19.439 37.6905 19.1163 37.4043 18.7182 37.4043H17.7403C17.3422 37.4043 17.0195 37.6905 17.0195 38.0434C17.0195 38.3964 17.3422 38.6825 17.7403 38.6825Z" fill="#E82327"/>
<path d="M21.6504 38.6825H22.6284C23.0263 38.6825 23.349 38.3964 23.349 38.0434C23.349 37.6905 23.0263 37.4043 22.6284 37.4043H21.6504C21.2524 37.4043 20.9297 37.6905 20.9297 38.0434C20.9297 38.3964 21.2524 38.6825 21.6504 38.6825Z" fill="#E82327"/>
<path d="M25.5606 38.6825H26.5385C26.9366 38.6825 27.2592 38.3964 27.2592 38.0434C27.2592 37.6905 26.9366 37.4043 26.5385 37.4043H25.5606C25.1625 37.4043 24.8398 37.6905 24.8398 38.0434C24.8398 38.3964 25.1625 38.6825 25.5606 38.6825Z" fill="#E82327"/>
<path d="M29.4746 38.6825H30.4526C30.8506 38.6825 31.1733 38.3964 31.1733 38.0434C31.1733 37.6905 30.8506 37.4043 30.4526 37.4043H29.4746C29.0766 37.4043 28.7539 37.6905 28.7539 38.0434C28.7539 38.3964 29.0766 38.6825 29.4746 38.6825Z" fill="#E82327"/>
<path d="M33.295 38.6825H34.2729C34.671 38.6825 34.9937 38.3964 34.9937 38.0434C34.9937 37.6905 34.671 37.4043 34.2729 37.4043H33.295C32.8969 37.4043 32.5742 37.6905 32.5742 38.0434C32.5742 38.3964 32.8969 38.6825 33.295 38.6825Z" fill="#E82327"/>
<path d="M10.894 39.6924H9.91606C9.518 39.6924 9.19531 39.9785 9.19531 40.3315C9.19531 40.6845 9.518 40.9706 9.91606 40.9706H10.894C11.292 40.9706 11.6146 40.6845 11.6146 40.3315C11.6146 39.9785 11.292 39.6924 10.894 39.6924Z" fill="#E82327"/>
<path d="M13.8262 40.9706H14.8041C15.2022 40.9706 15.5249 40.6845 15.5249 40.3315C15.5249 39.9785 15.2022 39.6924 14.8041 39.6924H13.8262C13.4282 39.6924 13.1055 39.9785 13.1055 40.3315C13.1055 40.6845 13.4282 40.9706 13.8262 40.9706Z" fill="#E82327"/>
<path d="M17.7403 40.9706H18.7182C19.1163 40.9706 19.439 40.6845 19.439 40.3315C19.439 39.9785 19.1163 39.6924 18.7182 39.6924H17.7403C17.3422 39.6924 17.0195 39.9785 17.0195 40.3315C17.0195 40.6845 17.3422 40.9706 17.7403 40.9706Z" fill="#E82327"/>
<path d="M21.6504 40.9706H22.6284C23.0263 40.9706 23.349 40.6845 23.349 40.3315C23.349 39.9785 23.0263 39.6924 22.6284 39.6924H21.6504C21.2524 39.6924 20.9297 39.9785 20.9297 40.3315C20.9297 40.6845 21.2524 40.9706 21.6504 40.9706Z" fill="#E82327"/>
<path d="M25.5606 40.9706H26.5385C26.9366 40.9706 27.2592 40.6845 27.2592 40.3315C27.2592 39.9785 26.9366 39.6924 26.5385 39.6924H25.5606C25.1625 39.6924 24.8398 39.9785 24.8398 40.3315C24.8398 40.6845 25.1625 40.9706 25.5606 40.9706Z" fill="#E82327"/>
<path d="M29.4746 40.9706H30.4526C30.8506 40.9706 31.1733 40.6845 31.1733 40.3315C31.1733 39.9785 30.8506 39.6924 30.4526 39.6924H29.4746C29.0766 39.6924 28.7539 39.9785 28.7539 40.3315C28.7539 40.6845 29.0766 40.9706 29.4746 40.9706Z" fill="#E82327"/>
<path d="M33.295 40.9706H34.2729C34.671 40.9706 34.9937 40.6845 34.9937 40.3315C34.9937 39.9785 34.671 39.6924 34.2729 39.6924H33.295C32.8969 39.6924 32.5742 39.9785 32.5742 40.3315C32.5742 40.6845 32.8969 40.9706 33.295 40.9706Z" fill="#E82327"/>
</g>
<defs>
<clipPath id="clip0_732_10706">
<rect width="44" height="44" fill="white"/>
</clipPath>
</defs>
</svg>
