<svg width="30" height="44" viewBox="0 0 30 44" fill="none" xmlns="http://www.w3.org/2000/svg">
<g clip-path="url(#clip0_732_10740)">
<path d="M24.6212 0H5.18805C3.81257 0.0013701 2.49387 0.485212 1.52125 1.34538C0.548644 2.20554 0.0015492 3.37178 0 4.58824V39.4118C0.0015492 40.6283 0.548644 41.7944 1.52125 42.6546C2.49387 43.5148 3.81257 43.9987 5.18805 44H24.6212C25.9966 43.9987 27.3154 43.5148 28.2879 42.6546C29.2605 41.7944 29.8076 40.6283 29.8092 39.4118V4.58824C29.8076 3.37178 29.2605 2.20554 28.2879 1.34538C27.3154 0.485212 25.9966 0.0013701 24.6212 0ZM20.7453 1.64705V2.71153C20.7448 2.92654 20.6481 3.13263 20.4761 3.28462C20.3041 3.43662 20.071 3.5221 19.8279 3.52235H9.98391C9.74091 3.5221 9.50782 3.4366 9.336 3.28459C9.16409 3.13258 9.0674 2.92649 9.06712 2.71153V1.64705H20.7453ZM27.9463 39.4118C27.9453 40.1916 27.5946 40.9391 26.9712 41.4906C26.3476 42.0419 25.5024 42.3521 24.6206 42.353H5.18805C4.30633 42.3521 3.46101 42.0419 2.83754 41.4906C2.21406 40.9391 1.86336 40.1916 1.86237 39.4118V4.58824C1.86336 3.80845 2.21406 3.06086 2.83754 2.50947C3.46101 1.95808 4.30633 1.64793 5.18805 1.64705H7.20261V2.71153C7.20345 3.36317 7.49654 3.98791 8.01756 4.44869C8.53857 4.90947 9.245 5.16866 9.98182 5.16942H19.8258C20.5626 5.16866 21.2692 4.90948 21.7903 4.44871C22.3114 3.98795 22.6045 3.36322 22.6055 2.71153V1.64705H24.6212C25.5028 1.64805 26.348 1.95826 26.9714 2.50963C27.5947 3.06102 27.9453 3.80853 27.9463 4.58824V39.4118Z" fill="#4250CE"/>
<path d="M20.6288 38.4316H9.1773C8.93031 38.4316 8.69346 38.5185 8.51883 38.6728C8.34419 38.8273 8.24609 39.0368 8.24609 39.2552C8.24609 39.4736 8.34419 39.683 8.51883 39.8375C8.69346 39.9919 8.93031 40.0788 9.1773 40.0788H20.6288C20.8758 40.0788 21.1126 39.9919 21.2872 39.8375C21.4618 39.683 21.5599 39.4736 21.5599 39.2552C21.5599 39.0368 21.4618 38.8273 21.2872 38.6728C21.1126 38.5185 20.8758 38.4316 20.6288 38.4316Z" fill="#4250CE"/>
</g>
<defs>
<clipPath id="clip0_732_10740">
<rect width="30" height="44" fill="white"/>
</clipPath>
</defs>
</svg>
