<svg width="44" height="44" viewBox="0 0 44 44" fill="none" xmlns="http://www.w3.org/2000/svg">
<g clip-path="url(#clip0_732_10728)">
<path d="M41.9018 13.4652H18.5591L17.6146 11.8236L32.3586 4.84087C33.127 4.47666 33.5248 3.36705 33.245 2.36703L32.9374 1.26889C32.6577 0.269534 31.8052 -0.247287 31.0373 0.116484L24.5204 3.20285C24.1906 3.35911 24.0206 3.83359 24.1406 4.26285C24.2606 4.69191 24.6249 4.91343 24.9552 4.75718L31.4722 1.6707C31.5816 1.61854 31.7034 1.69253 31.7432 1.83511L32.0506 2.93314C32.0907 3.07594 32.0336 3.23462 31.9237 3.28666L16.8187 10.4405L15.9914 9.00279L22.1378 6.0913C22.4676 5.93506 22.6376 5.46047 22.5175 5.03131C22.3974 4.60215 22.0327 4.38062 21.7029 4.53709L15.1956 7.6196L14.1805 5.85533C13.9019 5.37126 13.4581 5.08225 12.9935 5.08225H1.48287C0.665261 5.08225 0 5.94796 0 7.01192V34.5195C0 35.5835 0.665261 36.4491 1.48287 36.4491H10.0949L9.25054 42.2335C9.11655 43.1516 9.65763 44 10.3744 44H33.0103C33.7284 44 34.2679 43.1498 34.1342 42.2335L33.2898 36.4491H41.9018C42.7194 36.4491 43.3847 35.5835 43.3847 34.5195V31.421C43.3847 30.9642 43.1003 30.594 42.7492 30.594C42.3981 30.594 42.1137 30.9642 42.1137 31.421V34.5195C42.1137 34.6714 42.0187 34.7951 41.9018 34.7951H36.877L35.6031 31.7445C35.3435 31.1225 34.8442 30.7361 34.3003 30.7361H9.08444C8.54052 30.7361 8.04126 31.1225 7.78154 31.7445L6.50771 34.7951H1.48287C1.36611 34.7951 1.27104 34.6714 1.27104 34.5195V20.7802H28.8916V22.3554C28.8916 23.4193 29.5568 24.285 30.3745 24.285H41.9018C41.974 24.285 42.0443 24.276 42.1137 24.263V27.5616C42.1137 28.0184 42.3981 28.3886 42.7492 28.3886C43.1003 28.3886 43.3847 28.0184 43.3847 27.5616V15.3948C43.3847 14.3308 42.7194 13.4652 41.9018 13.4652ZM10.5279 42.346L11.9811 32.3901H31.4035L32.8569 42.346H10.5279ZM34.4864 32.5343L35.4305 34.7951H33.0484L32.6973 32.3901H34.3004C34.378 32.3902 34.4492 32.4454 34.4864 32.5343ZM8.89836 32.5343C8.93547 32.4453 9.00682 32.3901 9.08452 32.3901H10.6875L10.3364 34.7951H7.95423L8.89836 32.5343ZM1.48287 6.73625H12.9934C13.0597 6.73625 13.1231 6.7776 13.163 6.84663L16.9713 13.4652H1.27104V7.01192C1.27104 6.85986 1.36611 6.73625 1.48287 6.73625ZM1.27104 19.1261V15.1191H28.9085C28.8986 15.2096 28.8916 15.3011 28.8916 15.395V19.1261H1.27104ZM41.9018 22.631H30.3745C30.2576 22.631 30.1626 22.5073 30.1626 22.3554V15.3949C30.1626 15.243 30.2576 15.1193 30.3745 15.1193L30.3781 15.1191H41.9018C42.0187 15.1191 42.1137 15.2427 42.1137 15.3948V22.3554C42.1137 22.5074 42.0187 22.631 41.9018 22.631Z" fill="#158ADF"/>
<path d="M33.5353 16.2783C32.4346 16.2783 31.5391 17.4437 31.5391 18.8759C31.5391 20.3083 32.4346 21.4736 33.5353 21.4736C34.636 21.4736 35.5314 20.3083 35.5314 18.8759C35.5314 17.4435 34.636 16.2783 33.5353 16.2783ZM33.5353 19.8195C33.1354 19.8195 32.8101 19.3961 32.8101 18.8757C32.8101 18.3555 33.1354 17.9323 33.5353 17.9323C33.935 17.9323 34.2604 18.3555 34.2604 18.8757C34.2604 19.3961 33.935 19.8195 33.5353 19.8195Z" fill="#158ADF"/>
<path d="M38.7423 16.2783C37.6417 16.2783 36.7461 17.4437 36.7461 18.8759C36.7461 20.3083 37.6416 21.4736 38.7423 21.4736C39.8431 21.4736 40.7385 20.3083 40.7385 18.8759C40.7385 17.4435 39.843 16.2783 38.7423 16.2783ZM38.7423 19.8195C38.3424 19.8195 38.0171 19.3961 38.0171 18.8757C38.0171 18.3555 38.3424 17.9323 38.7423 17.9323C39.1422 17.9323 39.4675 18.3555 39.4675 18.8757C39.4674 19.3961 39.1421 19.8195 38.7423 19.8195Z" fill="#158ADF"/>
<path d="M28.066 38.2676H15.3191C14.9681 38.2676 14.6836 38.6378 14.6836 39.0945C14.6836 39.5513 14.9681 39.9215 15.3191 39.9215H28.066C28.4171 39.9215 28.7015 39.5513 28.7015 39.0945C28.7015 38.6378 28.417 38.2676 28.066 38.2676Z" fill="#158ADF"/>
<path d="M16.3894 36.0202H26.9983C27.3494 36.0202 27.6338 35.6499 27.6338 35.1932C27.6338 34.7365 27.3494 34.3662 26.9983 34.3662H16.3894C16.0385 34.3662 15.7539 34.7365 15.7539 35.1932C15.7539 35.6499 16.0385 36.0202 16.3894 36.0202Z" fill="#158ADF"/>
</g>
<defs>
<clipPath id="clip0_732_10728">
<rect width="44" height="44" fill="white"/>
</clipPath>
</defs>
</svg>
