<svg width="44" height="44" viewBox="0 0 44 44" fill="none" xmlns="http://www.w3.org/2000/svg">
<g clip-path="url(#clip0_732_10736)">
<path d="M33.7304 2.19857V19.8C32.9105 19.8 32.267 20.4639 32.2666 21.2638L32.2638 27.8681H2.93476C1.29403 27.8681 0 29.1904 0 30.8028V38.1319C0 39.7443 1.29949 41.0667 2.93476 41.0667H3.66524V43.2638C3.66368 43.671 3.9942 44.0015 4.40144 44H9.5334C9.93838 43.9984 10.2682 43.6688 10.2667 43.2638V41.0667H33.7305V43.2638C33.7289 43.6716 34.0603 44.0023 34.4681 44H39.5986C40.0064 44.0023 40.3378 43.6716 40.3362 43.2638V41.0667H41.0667C42.7074 41.0667 44 39.7443 44 38.1319V30.8028C44 29.1904 42.7077 27.8681 41.0667 27.8681H39.5986V21.2638C39.5986 20.4639 38.9504 19.8 38.1334 19.8L38.1319 2.19857C38.1318 0.992453 37.1581 0 35.9347 0C34.7114 0 33.7304 0.992453 33.7304 2.19857ZM35.9347 1.4681C36.3336 1.4681 36.6652 1.77962 36.6652 2.19857L36.6666 19.8H35.1999L35.1985 2.19857C35.1985 1.77962 35.5358 1.4681 35.9347 1.4681ZM15.0762 8.29297C10.0491 8.29297 5.23094 10.3193 1.67857 13.9133C0.963432 14.5813 2.06319 15.6696 2.72271 14.9417C6.00207 11.6239 10.4421 9.76107 15.0762 9.76107C19.7108 9.76107 24.156 11.6234 27.4355 14.9417C28.0994 15.6745 29.189 14.576 28.4796 13.9133C24.9272 10.3187 20.1038 8.29297 15.0762 8.29297ZM15.0762 12.9064C11.2564 12.9064 7.59827 14.4413 4.89978 17.1717C4.14165 17.8165 5.32074 18.9405 5.93821 18.2001C8.36366 15.7459 11.6494 14.3673 15.0762 14.3673C18.5027 14.3673 21.7889 15.7464 24.2142 18.2001C24.8869 18.9099 25.9556 17.8533 25.2598 17.1717C22.5614 14.4417 18.8957 12.9064 15.0762 12.9064ZM15.0762 17.5127C12.4645 17.5127 9.96544 18.5585 8.12103 20.4245C7.40896 21.0814 8.49301 22.187 9.15942 21.4586C10.7309 19.8688 12.8575 18.9793 15.0762 18.9793C17.2953 18.9793 19.4273 19.8684 20.9988 21.4586C21.6794 22.1763 22.7438 21.1022 22.0429 20.4245C20.1984 18.5581 17.6883 17.5127 15.0762 17.5127ZM33.7333 21.2667H38.1318V27.8681H33.7304L33.7333 21.2667ZM15.0762 22.1189C13.6716 22.1189 12.3271 22.6817 11.3366 23.6844C10.6165 24.3804 11.6915 25.4451 12.3807 24.7185C13.0981 23.9922 14.0647 23.587 15.0762 23.587C16.0871 23.587 17.0601 23.9929 17.7775 24.7185C18.4667 25.4401 19.5351 24.3775 18.8174 23.6844C17.8269 22.6827 16.4801 22.1189 15.0762 22.1189ZM2.93468 29.3362H41.0666C41.8918 29.3362 42.5333 29.9891 42.5333 30.8028V38.1319C42.5333 38.9571 41.8715 39.5986 41.0666 39.5986H2.93468C2.12092 39.5986 1.46804 38.9571 1.46804 38.1319V30.8028C1.46804 29.9891 2.10948 29.3362 2.93468 29.3362ZM6.59706 30.8028C5.37354 30.8028 4.39992 31.7937 4.39992 33C4.39992 34.2063 5.37452 35.1986 6.59706 35.1986C7.81961 35.1986 8.80136 34.2063 8.80136 33C8.80136 31.7937 7.82058 30.8028 6.59706 30.8028ZM12.4709 30.8028C11.2362 30.8028 10.2666 31.7937 10.2666 33C10.2666 34.2063 11.2502 35.1986 12.4709 35.1986C13.6916 35.1986 14.668 34.2063 14.668 33C14.668 31.7937 13.7055 30.8028 12.4709 30.8028ZM18.3361 30.8028C17.1095 30.8028 16.1318 31.7937 16.1318 33C16.1318 34.2063 17.1154 35.1986 18.3361 35.1986C19.5568 35.1986 20.5333 34.2063 20.5333 33C20.5333 31.7937 19.5627 30.8028 18.3361 30.8028ZM6.59706 32.2638C6.98784 32.2638 7.33468 32.5863 7.33468 33C7.33468 33.4137 6.99358 33.7305 6.59706 33.7305C6.20055 33.7305 5.8666 33.4137 5.8666 33C5.8666 32.5863 6.20628 32.2638 6.59706 32.2638ZM12.4709 32.2638C12.8643 32.2638 13.2014 32.5863 13.2014 33C13.2014 33.4137 12.8674 33.7305 12.4709 33.7305C12.0743 33.7305 11.7333 33.4137 11.7333 33C11.7333 32.5863 12.0774 32.2638 12.4709 32.2638ZM18.3361 32.2638C18.7214 32.2638 19.0666 32.5863 19.0666 33C19.0666 33.4137 18.7355 33.7305 18.3361 33.7305C17.9367 33.7305 17.5985 33.4137 17.5985 33C17.5985 32.5863 17.9508 32.2638 18.3361 32.2638ZM22.7304 32.2638C21.7738 32.2638 21.7738 33.7305 22.7304 33.7305H29.3361C30.2927 33.7305 30.2927 32.2638 29.3361 32.2638H22.7304ZM32.6318 32.2638C31.6753 32.2638 31.6753 33.7305 32.6318 33.7305H34.468C35.4246 33.7305 35.4246 32.2638 34.468 32.2638H32.6318ZM5.13182 41.0667H8.79992V42.5333H5.13182V41.0667ZM35.1999 41.0667H38.8666V42.5333H35.1999V41.0667Z" fill="#EB9633"/>
</g>
<defs>
<clipPath id="clip0_732_10736">
<rect width="44" height="44" fill="white"/>
</clipPath>
</defs>
</svg>
