<svg width="30" height="30" viewBox="0 0 30 30" fill="none" xmlns="http://www.w3.org/2000/svg">
<circle cx="15" cy="15" r="14.5" fill="white" stroke="#666666"/>
<path d="M15 15.7826C16.8636 15.7826 18.5583 16.3256 19.8051 17.0907C20.4273 17.4725 20.9593 17.9232 21.3436 18.4129C21.7216 18.8941 22 19.4699 22 20.0856C22 20.7467 21.6803 21.2677 21.2199 21.6393C20.7843 21.9914 20.2096 22.2245 19.599 22.3873C18.3717 22.7135 16.7337 22.8238 15 22.8238C13.2663 22.8238 11.6283 22.7143 10.401 22.3873C9.79044 22.2245 9.21567 21.9914 8.78011 21.6393C8.31889 21.2669 8 20.7467 8 20.0856C8 19.4699 8.27844 18.8941 8.65644 18.4121C9.04067 17.9232 9.57189 17.4733 10.1949 17.09C11.4417 16.3264 13.1372 15.7826 15 15.7826ZM15 7.17676C16.0314 7.17676 17.0206 7.58889 17.7499 8.32249C18.4792 9.05609 18.8889 10.0511 18.8889 11.0885C18.8889 12.126 18.4792 13.121 17.7499 13.8546C17.0206 14.5882 16.0314 15.0003 15 15.0003C13.9686 15.0003 12.9794 14.5882 12.2501 13.8546C11.5208 13.121 11.1111 12.126 11.1111 11.0885C11.1111 10.0511 11.5208 9.05609 12.2501 8.32249C12.9794 7.58889 13.9686 7.17676 15 7.17676Z" fill="#666666"/>
</svg>
