<svg width="19" height="22" viewBox="0 0 19 22" fill="none" xmlns="http://www.w3.org/2000/svg">
<path fill-rule="evenodd" clip-rule="evenodd" d="M14.2085 0.694039C14.2041 0.589485 14.1777 0.487149 14.1311 0.394056C14.0845 0.300962 14.0188 0.219314 13.9385 0.154714C13.8582 0.0901143 13.7652 0.0440922 13.666 0.0198058C13.5667 -0.00448052 13.4635 -0.00645607 13.3635 0.0140147C12.8919 0.110746 11.3526 0.503477 10.1378 1.74938C9.51714 2.38588 9.17381 3.18875 8.98706 3.92004C8.89744 4.27612 8.83624 4.6391 8.80409 5.00537L8.57489 4.90477C7.92126 4.61845 7.07522 4.28569 6.11317 4.28569C5.08321 4.28569 3.62127 4.71518 2.414 5.93013C1.18974 7.16249 0.287109 9.13969 0.287109 12.121C0.287109 13.7964 1.10391 16.2321 2.20461 18.2102C2.76109 19.2095 3.4166 20.14 4.12399 20.8258C4.81158 21.4914 5.64913 22.0234 6.56213 21.9992C7.24123 21.9963 7.92975 21.7226 8.46454 21.5097L8.5117 21.4904C9.12854 21.2457 9.56807 21.0803 9.93685 21.0803C10.2896 21.0803 10.7329 21.2457 11.3592 21.4923L11.4054 21.5097C11.9487 21.7235 12.6495 21.9992 13.322 21.9992C13.8303 21.9992 14.4179 21.7206 14.9329 21.3927C15.5519 20.9889 16.1207 20.5095 16.6269 19.9649C17.6993 18.8216 18.7179 17.1878 18.6783 15.4389C18.6753 15.3045 18.6359 15.1737 18.5646 15.061C18.4934 14.9483 18.393 14.8581 18.2746 14.8004C17.7758 14.5408 17.3306 14.1848 16.9636 13.7519C16.5175 13.2266 16.1883 12.5795 16.1675 11.8288C16.145 10.8816 16.3672 9.94515 16.8117 9.11454C17.2098 8.3697 17.6606 7.94408 17.87 7.83091C17.9595 7.78276 18.0379 7.71552 18.0999 7.63369C18.1619 7.55186 18.2061 7.45735 18.2296 7.35653C18.253 7.25571 18.255 7.15091 18.2357 7.04919C18.2163 6.94748 18.1758 6.85121 18.1171 6.76686C17.7945 6.30255 17.1815 5.6912 16.459 5.19884C15.745 4.71131 14.8141 4.26538 13.8615 4.28472C13.6948 4.28924 13.5313 4.30117 13.371 4.32051C13.72 3.78849 13.9237 3.12878 14.0425 2.55032C14.1691 1.94044 14.2252 1.31738 14.2095 0.694039M11.1394 2.77474C11.6497 2.25142 12.2495 1.9206 12.7466 1.71649C12.7243 1.89593 12.6951 2.07438 12.6589 2.25142C12.5353 2.85309 12.341 3.3561 12.1024 3.64242C11.6497 4.18315 11.0423 4.77322 10.2274 5.00634C10.2538 4.77709 10.2953 4.53235 10.3575 4.28666C10.5037 3.7111 10.7537 3.17134 11.1394 2.77474ZM13.8907 5.73473C14.4236 5.72506 15.0621 5.9872 15.6771 6.40702C16.0015 6.62756 16.2883 6.87133 16.5165 7.09575C16.1798 7.44205 15.8487 7.89862 15.5724 8.4171C15.007 9.47386 14.7249 10.6654 14.7547 11.8704C14.7867 13.0506 15.3055 14.0082 15.8978 14.7047C16.3317 15.2144 16.8221 15.6081 17.2465 15.8751C17.1268 16.9343 16.4694 18.0419 15.6082 18.9589C15.1841 19.4174 14.7067 19.8209 14.1869 20.1603C13.7077 20.466 13.4097 20.5482 13.3229 20.5482C12.9456 20.5482 12.4853 20.3799 11.8666 20.1371L11.7912 20.1081C11.2592 19.8982 10.5782 19.6302 9.9378 19.6302C9.27757 19.6302 8.60036 19.9001 8.07029 20.111L8.00238 20.1381C7.39119 20.3799 6.93941 20.5482 6.5527 20.5482H6.53101C6.17637 20.5598 5.6878 20.3432 5.09736 19.7715C4.5239 19.2153 3.9495 18.4143 3.43452 17.4905C2.39325 15.6197 1.70283 13.4404 1.70283 12.1219C1.70283 9.45503 2.49983 7.87734 3.40528 6.96613C4.32772 6.0375 5.42465 5.7357 6.11506 5.7357C6.77058 5.7357 7.39119 5.96302 8.0203 6.2387L8.27496 6.35188C8.49944 6.45151 8.7324 6.55502 8.94368 6.63724C9.23795 6.75041 9.5841 6.85875 9.9378 6.85875C10.2915 6.85875 10.6414 6.75718 10.947 6.64594C11.1743 6.56372 11.4233 6.45828 11.6638 6.35672L11.9015 6.25611C12.5551 5.98333 13.205 5.75021 13.8907 5.7357" fill="black" fill-opacity="0.6"/>
</svg>
