<svg width="22" height="22" viewBox="0 0 22 22" fill="none" xmlns="http://www.w3.org/2000/svg">
<g clip-path="url(#clip0_1256_21063)">
<path d="M20.3976 2.06011L15.0301 2.06013V0.689941C15.0301 0.310098 14.7301 0.00244141 14.3598 0.00244141C13.9894 0.00244141 13.6894 0.310098 13.6894 0.689941V2.05979H8.32661V0.689941C8.32661 0.310098 8.02663 0.00244141 7.65626 0.00244141C7.28589 0.00244141 6.98591 0.310098 6.98591 0.689941V2.05979H1.62781C0.887407 2.05979 0.287109 2.67544 0.287109 3.43479V20.6223C0.287109 21.3816 0.887407 21.9973 1.62781 21.9973H20.3976C21.138 21.9973 21.7383 21.3816 21.7383 20.6223V3.43479C21.7383 2.67576 21.138 2.06011 20.3976 2.06011ZM20.3976 20.6223H1.62781V3.43479H6.98591V4.12744C6.98591 4.50726 7.28589 4.81494 7.65626 4.81494C8.02663 4.81494 8.32661 4.50726 8.32661 4.12744V3.43513H13.6894V4.12778C13.6894 4.50763 13.9894 4.81528 14.3598 4.81528C14.7301 4.81528 15.0301 4.50763 15.0301 4.12778V3.43513H20.3976V20.6223ZM15.7052 10.9976H17.0459C17.4159 10.9976 17.7162 10.6896 17.7162 10.3101V8.93511C17.7162 8.55561 17.4159 8.24761 17.0459 8.24761H15.7052C15.3351 8.24761 15.0348 8.55561 15.0348 8.93511V10.3101C15.0348 10.6896 15.3351 10.9976 15.7052 10.9976ZM15.7052 16.4973H17.0459C17.4159 16.4973 17.7162 16.1896 17.7162 15.8098V14.4348C17.7162 14.0553 17.4159 13.7473 17.0459 13.7473H15.7052C15.3351 13.7473 15.0348 14.0553 15.0348 14.4348V15.8098C15.0348 16.19 15.3351 16.4973 15.7052 16.4973ZM11.6831 13.7473H10.3424C9.97232 13.7473 9.672 14.0553 9.672 14.4348V15.8098C9.672 16.1896 9.97232 16.4973 10.3424 16.4973H11.6831C12.0531 16.4973 12.3534 16.1896 12.3534 15.8098V14.4348C12.3534 14.0556 12.0531 13.7473 11.6831 13.7473ZM11.6831 8.24761H10.3424C9.97232 8.24761 9.672 8.55561 9.672 8.93511V10.3101C9.672 10.6896 9.97232 10.9976 10.3424 10.9976H11.6831C12.0531 10.9976 12.3534 10.6896 12.3534 10.3101V8.93511C12.3534 8.55526 12.0531 8.24761 11.6831 8.24761ZM6.32026 8.24761H4.97956C4.60952 8.24761 4.30921 8.55561 4.30921 8.93511V10.3101C4.30921 10.6896 4.60952 10.9976 4.97956 10.9976H6.32026C6.69029 10.9976 6.99061 10.6896 6.99061 10.3101V8.93511C6.99061 8.55526 6.69029 8.24761 6.32026 8.24761ZM6.32026 13.7473H4.97956C4.60952 13.7473 4.30921 14.0553 4.30921 14.4348V15.8098C4.30921 16.1896 4.60952 16.4973 4.97956 16.4973H6.32026C6.69029 16.4973 6.99061 16.1896 6.99061 15.8098V14.4348C6.99061 14.0556 6.69029 13.7473 6.32026 13.7473Z" fill="black" fill-opacity="0.6"/>
</g>
<defs>
<clipPath id="clip0_1256_21063">
<rect width="21.4512" height="22" fill="white" transform="translate(0.287109)"/>
</clipPath>
</defs>
</svg>
