<svg width="24" height="24" viewBox="0 0 24 24" fill="none" xmlns="http://www.w3.org/2000/svg">
<g clip-path="url(#clip0_1256_21049)">
<path d="M5.84066 19.7195V18.6719H7.33816L9.2565 12.0258C9.35389 11.6522 9.54967 11.3567 9.84386 11.1395C10.138 10.9223 10.467 10.8141 10.8306 10.8148H13.7378C14.1021 10.8148 14.431 10.923 14.7245 11.1395C15.0187 11.3567 15.2145 11.6522 15.3119 12.0258L17.2302 18.6719H18.7277V19.7195H5.84066ZM8.42195 18.6719H16.1464L14.3272 12.3254C14.2877 12.1781 14.2124 12.0642 14.1014 11.9839C13.9904 11.9036 13.8627 11.8631 13.7184 11.8624H10.85C10.7063 11.8624 10.5786 11.9029 10.467 11.9839C10.356 12.0642 10.2807 12.1781 10.2412 12.3254L8.42195 18.6719ZM11.7734 8.07524V3.88477H12.7949V8.07524H11.7734ZM17.3405 10.446L16.6122 9.69905L19.5112 6.75105L20.215 7.47286L17.3405 10.446ZM18.9238 15.4086V14.361H23.0098V15.4086H18.9238ZM7.22784 10.445L4.3544 7.47286L5.05718 6.75105L7.95718 9.69905L7.22784 10.445ZM1.55859 15.4086V14.361H5.64453V15.4086H1.55859Z" fill="black" fill-opacity="0.6"/>
</g>
<defs>
<clipPath id="clip0_1256_21049">
<rect width="23.4013" height="24" fill="white" transform="translate(0.0957031)"/>
</clipPath>
</defs>
</svg>
