<svg width="22" height="20" viewBox="0 0 22 20" fill="none" xmlns="http://www.w3.org/2000/svg">
<path d="M19.1743 15.8105C19.8636 16.1568 20.4334 16.6437 20.8836 17.2714C21.3338 17.899 21.6187 18.606 21.7383 19.3924H20.5776C20.5003 18.9812 20.3561 18.5988 20.145 18.2453C19.934 17.8918 19.6772 17.5888 19.3748 17.3363C19.0723 17.0838 18.7311 16.8818 18.3513 16.7303C17.9714 16.5788 17.5775 16.5067 17.1695 16.5139C16.7545 16.5139 16.3606 16.586 15.9877 16.7303C15.6149 16.8746 15.2737 17.073 14.9642 17.3255C14.6547 17.578 14.398 17.8846 14.194 18.2453C13.99 18.606 13.8458 18.9884 13.7614 19.3924H12.6007C12.7133 18.6132 12.9946 17.9098 13.4448 17.2822C13.895 16.6545 14.4683 16.164 15.1647 15.8105C14.7638 15.4858 14.4542 15.0926 14.2362 14.6309C14.0181 14.1692 13.9056 13.6786 13.8985 13.1592C13.8985 12.8346 13.9407 12.5208 14.0252 12.2178C14.1096 11.9148 14.2362 11.6298 14.405 11.3629C14.5738 11.0959 14.7743 10.8579 15.0064 10.6486C15.2386 10.4394 15.4988 10.2627 15.7873 10.1184C15.5973 9.83703 15.3793 9.58814 15.1331 9.37171C14.8869 9.15528 14.6196 8.9641 14.3311 8.79817C14.0427 8.63225 13.7403 8.51321 13.4237 8.44107C13.1072 8.36892 12.7801 8.32564 12.4424 8.31121C11.8797 8.31121 11.3416 8.42303 10.8281 8.64667C10.3145 8.87032 9.86787 9.19857 9.48801 9.63143C9.65684 10.1004 9.74125 10.5837 9.74125 11.0815C9.74125 11.7452 9.59704 12.3693 9.30864 12.9536C9.02023 13.538 8.61576 14.0285 8.09522 14.4253C8.55245 14.6634 8.96395 14.9556 9.32974 15.3019C9.69553 15.6482 10.0121 16.0377 10.2794 16.4706C10.5467 16.9034 10.7472 17.3652 10.8808 17.8557C11.0145 18.3463 11.0848 18.8585 11.0918 19.3924H9.74125C9.74125 18.8224 9.63573 18.285 9.4247 17.78C9.21367 17.275 8.92527 16.8349 8.55948 16.4598C8.1937 16.0846 7.76108 15.7852 7.26165 15.5616C6.76221 15.3379 6.23815 15.2297 5.68947 15.2369C5.12673 15.2369 4.60267 15.3451 4.1173 15.5616C3.63193 15.778 3.20284 16.0738 2.83002 16.4489C2.4572 16.8241 2.16528 17.2678 1.95425 17.78C1.74322 18.2922 1.6377 18.8297 1.6377 19.3924H0.287109C0.287109 18.8657 0.357453 18.3571 0.498139 17.8665C0.638826 17.376 0.839304 16.9143 1.09957 16.4814C1.35984 16.0485 1.67287 15.659 2.03866 15.3127C2.40444 14.9664 2.81947 14.6706 3.28373 14.4253C2.76319 14.0285 2.35872 13.538 2.07031 12.9536C1.7819 12.3693 1.6377 11.7452 1.6377 11.0815C1.6377 10.5116 1.74322 9.9741 1.95425 9.4691C2.16528 8.9641 2.45368 8.52403 2.81947 8.14889C3.18525 7.77374 3.61435 7.47435 4.10675 7.25071C4.59915 7.02706 5.12673 6.91885 5.68947 6.92606C6.28739 6.92606 6.85366 7.05592 7.38827 7.31564C7.92287 7.57535 8.38714 7.93607 8.78106 8.39778C8.96395 8.21742 9.16092 8.0551 9.37195 7.91082C9.58298 7.76653 9.80456 7.62946 10.0367 7.4996C9.51615 7.10281 9.11168 6.61224 8.82327 6.02788C8.53486 5.44353 8.39066 4.81949 8.39066 4.15577C8.39066 3.58584 8.49617 3.04838 8.7072 2.54338C8.91823 2.03838 9.20664 1.59831 9.57242 1.22316C9.93821 0.848018 10.3673 0.548625 10.8597 0.324982C11.3521 0.101338 11.8797 -0.00687613 12.4424 0.00033817C12.9981 0.00033817 13.5222 0.108553 14.0146 0.324982C14.507 0.541411 14.9361 0.837197 15.3019 1.21234C15.6677 1.58748 15.9596 2.03116 16.1777 2.54338C16.3957 3.05559 16.5012 3.59306 16.4942 4.15577C16.4942 4.81949 16.35 5.44353 16.0616 6.02788C15.7732 6.61224 15.3687 7.10281 14.8482 7.4996C15.3406 7.76653 15.7837 8.09117 16.1777 8.47353C16.5716 8.85589 16.9057 9.29957 17.1801 9.80457C17.6302 9.80457 18.0523 9.89114 18.4462 10.0643C18.8402 10.2374 19.1884 10.4791 19.4908 10.7893C19.7933 11.0995 20.0254 11.453 20.1872 11.8498C20.349 12.2466 20.4334 12.6831 20.4405 13.1592C20.4405 13.6786 20.3314 14.1692 20.1134 14.6309C19.8953 15.0926 19.5823 15.4858 19.1743 15.8105ZM5.68947 13.8518C6.06229 13.8518 6.41049 13.7796 6.73407 13.6354C7.05765 13.4911 7.34606 13.2927 7.5993 13.0402C7.85253 12.7877 8.04598 12.4955 8.17963 12.1636C8.31328 11.8318 8.38362 11.4711 8.39066 11.0815C8.39066 10.6991 8.32031 10.342 8.17963 10.0102C8.03894 9.67832 7.8455 9.38253 7.5993 9.12282C7.35309 8.8631 7.0682 8.66471 6.74462 8.52764C6.42104 8.39057 6.06933 8.31842 5.68947 8.31121C5.31666 8.31121 4.96846 8.38335 4.64488 8.52764C4.3213 8.67192 4.03289 8.87032 3.77965 9.12282C3.52642 9.37532 3.33297 9.6675 3.19932 9.99936C3.06567 10.3312 2.99533 10.6919 2.98829 11.0815C2.98829 11.4639 3.05864 11.821 3.19932 12.1528C3.34001 12.4847 3.53345 12.7805 3.77965 13.0402C4.02586 13.2999 4.31075 13.4983 4.63433 13.6354C4.9579 13.7724 5.30962 13.8446 5.68947 13.8518ZM9.74125 4.15577C9.74125 4.53813 9.81159 4.89524 9.95228 5.2271C10.093 5.55895 10.2864 5.85474 10.5326 6.11446C10.7788 6.37417 11.0637 6.57256 11.3873 6.70964C11.7109 6.84671 12.0626 6.91885 12.4424 6.92606C12.8153 6.92606 13.1635 6.85392 13.487 6.70964C13.8106 6.56535 14.099 6.36696 14.3523 6.11446C14.6055 5.86196 14.7989 5.56978 14.9326 5.23792C15.0662 4.90606 15.1366 4.54535 15.1436 4.15577C15.1436 3.77342 15.0733 3.41631 14.9326 3.08445C14.7919 2.75259 14.5985 2.45681 14.3523 2.19709C14.1061 1.93738 13.8212 1.73898 13.4976 1.60191C13.174 1.46484 12.8223 1.3927 12.4424 1.38548C12.0696 1.38548 11.7214 1.45763 11.3978 1.60191C11.0743 1.7462 10.7858 1.94459 10.5326 2.19709C10.2794 2.44959 10.0859 2.74177 9.95228 3.07363C9.81863 3.40549 9.74828 3.7662 9.74125 4.15577ZM17.1695 10.9733C16.8741 10.9733 16.5997 11.031 16.3465 11.1464C16.0932 11.2619 15.8681 11.417 15.6712 11.6118C15.4742 11.8065 15.3195 12.0374 15.2069 12.3043C15.0944 12.5713 15.0381 12.8562 15.0381 13.1592C15.0381 13.4622 15.0944 13.7436 15.2069 14.0033C15.3195 14.263 15.4707 14.4939 15.6606 14.6959C15.8506 14.8979 16.0757 15.0566 16.3359 15.172C16.5962 15.2874 16.8741 15.3451 17.1695 15.3451C17.4649 15.3451 17.7393 15.2874 17.9925 15.172C18.2458 15.0566 18.4709 14.9015 18.6678 14.7067C18.8648 14.5119 19.0195 14.281 19.1321 14.0141C19.2446 13.7472 19.3009 13.4622 19.3009 13.1592C19.3009 12.8562 19.2446 12.5749 19.1321 12.3151C19.0195 12.0554 18.8683 11.8246 18.6784 11.6226C18.4884 11.4206 18.2633 11.2619 18.0031 11.1464C17.7428 11.031 17.4649 10.9733 17.1695 10.9733Z" fill="black" fill-opacity="0.6"/>
</svg>
