<svg width="22" height="22" viewBox="0 0 22 22" fill="none" xmlns="http://www.w3.org/2000/svg">
<path fill-rule="evenodd" clip-rule="evenodd" d="M10.9775 1.53488C8.52986 1.53488 6.18243 2.5321 4.45166 4.30715C2.72089 6.08221 1.74855 8.4897 1.74855 11C1.74855 13.5103 2.72089 15.9178 4.45166 17.6928C6.18243 19.4679 8.52986 20.4651 10.9775 20.4651C13.4252 20.4651 15.7727 19.4679 17.5034 17.6928C19.2342 15.9178 20.2065 13.5103 20.2065 11C20.2065 8.4897 19.2342 6.08221 17.5034 4.30715C15.7727 2.5321 13.4252 1.53488 10.9775 1.53488ZM0.251953 11C0.251953 4.92493 5.05403 0 10.9775 0C16.9011 0 21.7031 4.92493 21.7031 11C21.7031 17.0751 16.9011 22 10.9775 22C5.05403 22 0.251953 17.0751 0.251953 11ZM10.9775 4.09302C11.176 4.09302 11.3663 4.17388 11.5067 4.3178C11.647 4.46172 11.7258 4.65693 11.7258 4.86047V5.18484C13.3521 5.48363 14.719 6.73712 14.719 8.44186C14.719 8.6454 14.6402 8.8406 14.4999 8.98452C14.3595 9.12845 14.1692 9.2093 13.9707 9.2093C13.7723 9.2093 13.5819 9.12845 13.4416 8.98452C13.3013 8.8406 13.2224 8.6454 13.2224 8.44186C13.2224 7.74809 12.6597 7.01237 11.7258 6.75042V10.3011C13.3521 10.5999 14.719 11.8534 14.719 13.5581C14.719 15.2629 13.3521 16.5164 11.7258 16.8152V17.1395C11.7258 17.3431 11.647 17.5383 11.5067 17.6822C11.3663 17.8261 11.176 17.907 10.9775 17.907C10.7791 17.907 10.5888 17.8261 10.4484 17.6822C10.3081 17.5383 10.2292 17.3431 10.2292 17.1395V16.8152C8.60295 16.5164 7.23606 15.2629 7.23606 13.5581C7.23606 13.3546 7.3149 13.1594 7.45523 13.0155C7.59557 12.8716 7.7859 12.7907 7.98436 12.7907C8.18282 12.7907 8.37315 12.8716 8.51348 13.0155C8.65382 13.1594 8.73266 13.3546 8.73266 13.5581C8.73266 14.2519 9.29537 14.9876 10.2292 15.2486V11.6989C8.60295 11.4001 7.23606 10.1466 7.23606 8.44186C7.23606 6.73712 8.60295 5.48363 10.2292 5.18484V4.86047C10.2292 4.65693 10.3081 4.46172 10.4484 4.3178C10.5888 4.17388 10.7791 4.09302 10.9775 4.09302ZM10.2292 6.75042C9.29537 7.01237 8.73266 7.74809 8.73266 8.44186C8.73266 9.13563 9.29537 9.87135 10.2292 10.1323V6.75042ZM11.7258 11.8667V15.2496C12.6597 14.9876 13.2224 14.2529 13.2224 13.5581C13.2224 12.8644 12.6597 12.1276 11.7258 11.8667Z" fill="black" fill-opacity="0.6"/>
</svg>
