<svg width="23" height="24" viewBox="0 0 23 24" fill="none" xmlns="http://www.w3.org/2000/svg">
<path d="M11.4894 8.70156C10.2985 8.70156 9.33398 9.44076 9.33398 10.3516C9.33398 11.2624 10.2985 12.0016 11.4894 12.0016C12.6802 12.0016 13.6447 12.7408 13.6447 13.6516C13.6447 14.5624 12.6802 15.3016 11.4894 15.3016M11.4894 8.70156C12.4269 8.70156 13.2266 9.16026 13.5219 9.80156M11.4894 8.70156V7.60156M11.4894 15.3016C10.5518 15.3016 9.75213 14.8429 9.45684 14.2016M11.4894 15.3016V16.4016" stroke="black" stroke-opacity="0.6" stroke-width="1.5" stroke-linecap="round" stroke-linejoin="round"/>
<path d="M11.4878 1C8.24608 1 6.1446 3.2209 3.65947 4.0305C2.6486 4.3605 2.14317 4.5244 1.93841 4.7565C1.73365 4.9875 1.67437 5.3274 1.55475 6.005C0.272307 13.2606 3.07428 19.9684 9.75592 22.5798C10.4726 22.8603 10.8314 23 11.491 23C12.1505 23 12.5105 22.8592 13.2282 22.5787C19.9088 19.9684 22.7075 13.2606 21.4251 6.005C21.3054 5.3274 21.2451 4.9875 21.0403 4.7554C20.8356 4.5233 20.3312 4.3594 19.3204 4.0305C16.8341 3.2209 14.7294 1 11.4878 1Z" stroke="black" stroke-opacity="0.6" stroke-width="1.5" stroke-linecap="round" stroke-linejoin="round"/>
</svg>
