<svg width="24" height="24" viewBox="0 0 24 24" fill="none" xmlns="http://www.w3.org/2000/svg">
<path d="M19.2467 16.2356H20.8968C21.3344 16.2356 21.7541 16.0573 22.0636 15.7399C22.373 15.4225 22.5469 14.9921 22.5469 14.5433V12.0048C22.5469 11.556 22.373 11.1255 22.0636 10.8082C21.7541 10.4908 21.3344 10.3125 20.8968 10.3125H19.2467C19.0279 10.3125 18.818 10.4016 18.6633 10.5603C18.5086 10.719 18.4217 10.9342 18.4217 11.1587V15.3894C18.4217 15.6138 18.5086 15.8291 18.6633 15.9877C18.818 16.1464 19.0279 16.2356 19.2467 16.2356ZM19.2467 16.2356V17.5048C19.2467 18.4025 18.899 19.2634 18.2801 19.8981C17.6612 20.5328 16.8218 20.8894 15.9465 20.8894M2.74579 10.3125H4.39589C4.6147 10.3125 4.82456 10.4016 4.97928 10.5603C5.13401 10.719 5.22093 10.9342 5.22093 11.1587V15.3894C5.22093 15.6138 5.13401 15.8291 4.97928 15.9877C4.82456 16.1464 4.6147 16.2356 4.39589 16.2356H2.74579C2.30816 16.2356 1.88846 16.0573 1.579 15.7399C1.26955 15.4225 1.0957 14.9921 1.0957 14.5433V12.0048C1.0957 11.556 1.26955 11.1255 1.579 10.8082C1.88846 10.4908 2.30816 10.3125 2.74579 10.3125Z" stroke="black" stroke-opacity="0.6" stroke-linecap="round" stroke-linejoin="round"/>
<path d="M4.39453 10.3077V8.61538C4.39453 6.59566 5.17685 4.65866 6.56938 3.23049C7.96192 1.80233 9.8506 1 11.8199 1C13.7893 1 15.678 1.80233 17.0705 3.23049C18.463 4.65866 19.2454 6.59566 19.2454 8.61538V10.3077M9.34481 6.92308V9.46154M14.2951 6.92308V9.46154M9.34481 12.8462C9.34481 15.0969 14.2951 15.0969 14.2951 12.8462M13.8826 18.7692C14.4296 18.7692 14.9542 18.9921 15.341 19.3888C15.7279 19.7855 15.9452 20.3236 15.9452 20.8846C15.9452 21.4457 15.7279 21.9837 15.341 22.3804C14.9542 22.7771 14.4296 23 13.8826 23H11.4074C10.8604 23 10.3357 22.7771 9.94893 22.3804C9.56212 21.9837 9.34481 21.4457 9.34481 20.8846C9.34481 20.3236 9.56212 19.7855 9.94893 19.3888C10.3357 18.9921 10.8604 18.7692 11.4074 18.7692H13.8826Z" stroke="black" stroke-opacity="0.6" stroke-linecap="round" stroke-linejoin="round"/>
</svg>
