<svg width="18" height="22" viewBox="0 0 18 22" fill="none" xmlns="http://www.w3.org/2000/svg">
<path d="M12.9048 12.1274C12.9048 11.903 12.8178 11.6878 12.6631 11.5291C12.5084 11.3704 12.2985 11.2812 12.0797 11.2812H5.47934C5.26053 11.2812 5.05067 11.3704 4.89595 11.5291C4.74122 11.6878 4.6543 11.903 4.6543 12.1274C4.6543 12.3518 4.74122 12.567 4.89595 12.7257C5.05067 12.8844 5.26053 12.9736 5.47934 12.9736H12.0797C12.2985 12.9736 12.5084 12.8844 12.6631 12.7257C12.8178 12.567 12.9048 12.3518 12.9048 12.1274ZM12.9048 16.6402C12.9048 16.4158 12.8178 16.2006 12.6631 16.0419C12.5084 15.8832 12.2985 15.7941 12.0797 15.7941H5.47934C5.26053 15.7941 5.05067 15.8832 4.89595 16.0419C4.74122 16.2006 4.6543 16.4158 4.6543 16.6402C4.6543 16.8646 4.74122 17.0799 4.89595 17.2385C5.05067 17.3972 5.26053 17.4864 5.47934 17.4864H12.0797C12.2985 17.4864 12.5084 17.3972 12.6631 17.2385C12.8178 17.0799 12.9048 16.8646 12.9048 16.6402Z" fill="black" fill-opacity="0.6"/>
<path fill-rule="evenodd" clip-rule="evenodd" d="M3.27712 0C2.4748 0 1.70533 0.326876 1.138 0.90872C0.570675 1.49056 0.251953 2.27971 0.251953 3.10256V18.8974C0.251953 19.7203 0.570675 20.5094 1.138 21.0913C1.70533 21.6731 2.4748 22 3.27712 22H14.2777C15.0801 22 15.8495 21.6731 16.4168 21.0913C16.9842 20.5094 17.3029 19.7203 17.3029 18.8974V6.45108C17.3029 6.02123 17.1665 5.6038 16.9135 5.26082L13.6155 0.784102C13.436 0.540542 13.204 0.342974 12.9375 0.206922C12.6711 0.0708702 12.3775 4.11722e-05 12.0798 0H3.27712ZM1.90204 3.10256C1.90204 2.3241 2.51808 1.69231 3.27712 1.69231H11.2526V6.65303C11.2526 7.1201 11.6222 7.49918 12.0776 7.49918H15.6528V18.8974C15.6528 19.6759 15.0368 20.3077 14.2777 20.3077H3.27712C2.51808 20.3077 1.90204 19.6759 1.90204 18.8974V3.10256Z" fill="black" fill-opacity="0.6"/>
</svg>
