<svg width="22" height="22" viewBox="0 0 22 22" fill="none" xmlns="http://www.w3.org/2000/svg">
<g clip-path="url(#clip0_1256_21079)">
<path d="M9.47999 2.1685V19.4228M20.9717 10.6228H1.05273M1.72691 3.14278L20.1136 0.974212C20.2208 0.958337 20.3301 0.966438 20.434 0.99796C20.5378 1.02948 20.6338 1.08368 20.7153 1.15682C20.7969 1.22997 20.862 1.32034 20.9062 1.42173C20.9505 1.52313 20.9728 1.63313 20.9717 1.74421V20.3185C20.9709 20.4318 20.9462 20.5437 20.8993 20.6463C20.8524 20.7489 20.7844 20.84 20.7 20.9131C20.6156 20.9863 20.5167 21.0398 20.4102 21.0701C20.3037 21.1004 20.1921 21.1066 20.083 21.0885L1.69627 18.1971C1.51633 18.164 1.3534 18.0672 1.23582 17.9237C1.11823 17.7801 1.05345 17.5988 1.05273 17.4114V3.86564C1.06574 3.6836 1.14015 3.51187 1.26317 3.37997C1.3862 3.24806 1.55016 3.1642 1.72691 3.14278Z" stroke="black" stroke-opacity="0.6" stroke-linecap="round" stroke-linejoin="round"/>
</g>
<defs>
<clipPath id="clip0_1256_21079">
<rect width="21.4512" height="22" fill="white" transform="translate(0.287109)"/>
</clipPath>
</defs>
</svg>
