<svg width="22" height="17" viewBox="0 0 22 17" fill="none" xmlns="http://www.w3.org/2000/svg">
<path d="M0.287109 0V16.1333H21.7383V0H0.287109ZM8.41246 10.7554H2.88699V2.68913H8.4121L8.41246 10.7554ZM12.9626 12.7728H9.06243V1.00833H12.9626V12.7728ZM13.6126 8.81393C14.0707 9.19983 14.6451 9.41092 15.2379 9.41123C16.674 9.41123 17.8374 8.2071 17.8374 6.7221C17.8374 5.23747 16.6737 4.03333 15.2379 4.03333C14.6451 4.03365 14.0707 4.24473 13.6126 4.63063V2.68913H19.1377V10.7554H13.6126V8.81393ZM13.6126 11.7638H20.113V1.6808H13.6126V0.672467H21.088V12.7725H13.6126V11.7638ZM0.93708 0.672467H8.4121V1.6808H1.91204V11.7638H8.41246V12.7725H0.93708V0.672467Z" fill="black" fill-opacity="0.6"/>
<path d="M5.81557 8.40082C5.64248 8.39985 5.47684 8.3285 5.35499 8.20243C5.23314 8.07636 5.16503 7.90586 5.1656 7.72835H4.51598C4.5158 8.02461 4.6114 8.31258 4.78781 8.54718C4.96422 8.78179 5.2115 8.94978 5.49094 9.02488V9.40915H6.14091V9.02488C6.42029 8.94967 6.6675 8.78164 6.84389 8.54707C7.02029 8.31249 7.11593 8.02458 7.11587 7.72835C7.11587 6.98732 6.53275 6.38415 5.81592 6.38415C5.6429 6.38318 5.47732 6.31188 5.35548 6.18589C5.23363 6.0599 5.16548 5.8895 5.16595 5.71205C5.16595 5.34062 5.45769 5.03958 5.81592 5.03958C6.17452 5.03958 6.4659 5.34062 6.4659 5.71205H7.11551C7.11569 5.41579 7.0201 5.12782 6.84368 4.89322C6.66727 4.65861 6.41999 4.49062 6.14055 4.41552V4.03125H5.49058V4.41552C5.2112 4.49073 4.964 4.65876 4.7876 4.89333C4.61121 5.12791 4.51556 5.41582 4.51563 5.71205C4.51563 6.45308 5.09874 7.05625 5.81557 7.05625C6.17416 7.05625 6.46554 7.35765 6.46554 7.72835C6.4662 7.90589 6.39812 8.07644 6.27625 8.20254C6.15437 8.32863 5.98868 8.39994 5.81557 8.40082Z" fill="black" fill-opacity="0.6"/>
</svg>
