<svg width="24" height="24" viewBox="0 0 24 24" fill="none" xmlns="http://www.w3.org/2000/svg">
<path fill-rule="evenodd" clip-rule="evenodd" d="M22.2314 18.1453C22.0061 18.0953 21.7777 18.0653 21.5463 18.0553C21.3182 18.0404 21.0893 18.0404 20.8612 18.0553C20.3376 18.108 19.8228 18.2047 19.317 18.3453C20.3396 17.4117 21.1494 16.2783 21.6939 15.0188C22.2384 13.7594 22.5052 12.4021 22.4771 11.0353C22.5867 8.08763 21.5282 5.2122 19.5218 3.00732C18.4873 1.99651 17.248 1.20788 15.8833 0.691959C14.5186 0.176038 13.0585 -0.0557925 11.5967 0.0113216C8.69553 0.131804 5.94538 1.30748 3.88671 3.30732C3.13304 4.04043 2.48005 4.866 1.9441 5.76332C1.40101 6.65056 0.971782 7.5997 0.666098 8.58932C0.64325 8.67282 0.653826 8.76169 0.695674 8.83785C0.737523 8.91401 0.807504 8.97175 0.891387 8.99932C0.98092 9.02503 1.0771 9.01661 1.16054 8.97579C1.24397 8.93496 1.30844 8.86475 1.34094 8.77932C1.98608 6.95392 3.08576 5.31374 4.54107 4.00632C6.49164 2.29149 9.01334 1.32638 11.6377 1.29032C12.9184 1.24483 14.1953 1.45417 15.3906 1.9056C16.5859 2.35703 17.6748 3.04114 18.5909 3.91632C20.4143 5.86753 21.4055 8.42517 21.362 11.0663C21.4475 13.3407 20.6638 15.5648 19.1634 17.3063V16.9163C19.1598 16.6688 19.1359 16.422 19.0917 16.1783C19.0489 15.9351 18.9907 15.6946 18.9176 15.4583C18.2642 13.5723 17.9775 13.5723 17.7625 13.6323C17.5474 13.6923 17.4245 13.6323 17.6601 15.7283C17.6601 15.9483 17.7215 16.1783 17.7625 16.4083C17.8034 16.6383 17.8649 16.8673 17.9263 17.0963C18.0492 17.6363 18.213 18.1453 18.3154 18.6943C18.3154 18.8943 18.1311 19.0843 20.8203 19.3143C21.1596 19.3583 21.5006 19.3813 21.8433 19.3833C23.8883 19.3833 23.9497 19.2433 23.9907 19.0333C24.0316 18.8233 24.0214 18.5343 22.2314 18.1453Z" fill="#666666"/>
<path fill-rule="evenodd" clip-rule="evenodd" d="M12.8239 18.5244C12.4375 18.1324 12.0248 17.7697 11.5858 17.4364C11.3295 17.2203 11.0596 17.0199 10.7778 16.8364C10.5991 16.7246 10.3839 16.6821 10.1747 16.7174C9.8388 16.8014 9.53876 16.9874 9.31654 17.2474C8.98475 17.6901 8.67754 18.1491 8.39491 18.6244C7.92589 19.3934 8.04776 18.9544 7.43435 18.5444L6.71855 17.9854C6.41406 17.7038 6.1399 17.3925 5.90034 17.0564C5.66075 16.7258 5.46497 16.367 5.31766 15.9884C5.31766 15.9884 5.21526 15.8284 5.14357 15.6884C5.49175 15.4784 6.06521 15.3784 6.4226 15.1794C6.64994 15.0594 6.83734 14.8794 6.96432 14.6604C7.01363 14.5731 7.03949 14.4751 7.03949 14.3754C7.03949 14.2757 7.01363 14.1777 6.96432 14.0904C6.77836 13.7673 6.56964 13.4572 6.33965 13.1624C5.93642 12.6184 5.49248 12.1043 5.01147 11.6244C4.60394 11.244 4.17378 10.8874 3.72323 10.5564C3.22145 10.1764 3.42626 9.9964 1.98441 11.6244C1.59713 12.0387 1.26383 12.4982 0.992113 12.9924C0.53417 13.8588 0.226868 14.7936 0.0827644 15.7584C-0.0848967 16.7625 0.00302481 17.7914 0.338775 18.7544C0.991769 20.3104 2.12452 21.6294 3.57986 22.5284C4.51626 23.1228 5.55548 23.546 6.64687 23.7774C8.01996 24.1269 9.46894 24.0652 10.8057 23.6003C12.1424 23.1354 13.3051 22.2888 14.1428 21.1704C14.2016 21.089 14.2272 20.9892 14.2145 20.8904H14.3477C14.3854 20.8549 14.4155 20.8124 14.436 20.7653C14.4566 20.7182 14.4672 20.6676 14.4672 20.6164C14.4672 20.5652 14.4566 20.5146 14.436 20.4675C14.4155 20.4204 14.3854 20.3779 14.3477 20.3424C13.8971 19.7024 13.3851 19.0944 12.8229 18.5244M6.95306 22.6184C6.01312 22.3806 5.1212 21.989 4.31513 21.4604C3.0889 20.7005 2.121 19.6025 1.53383 18.3054C1.22262 17.5383 1.10666 16.7089 1.1959 15.8884C1.24723 15.0273 1.44448 14.1805 1.7796 13.3824C1.97075 12.9211 2.21926 12.4917 2.5251 12.0944C2.7777 11.7851 3.06068 11.5054 3.37403 11.2554C3.73381 11.5694 4.07482 11.9024 4.39705 12.2544C4.81281 12.7324 5.1842 13.2414 5.51121 13.7814C5.51121 13.7814 5.61361 14.1214 5.72625 14.3414C5.37808 14.4714 4.95822 14.5614 4.63155 14.7104C4.41548 14.8004 4.21784 14.9304 4.04888 15.0904C3.98245 15.1688 3.93356 15.26 3.90534 15.358C3.87713 15.456 3.87021 15.5586 3.88503 15.6594C3.93623 15.9474 4.01815 16.2267 4.1308 16.4974C4.30898 16.9684 4.55066 17.4154 4.8466 17.8254C5.13948 18.2414 5.48253 18.6204 5.8686 18.9544L6.75951 19.6434C7.08584 19.8601 7.4265 20.0531 7.7815 20.2224C8.00884 20.3254 8.2669 20.3424 8.50755 20.2724C8.83115 20.1484 9.10661 19.9284 9.29504 19.6424C9.59201 19.2534 9.83675 18.6444 10.1225 18.2454C10.1819 18.1207 10.2501 18.0007 10.3273 17.8854C10.5464 18.0474 10.7922 18.1724 11.0533 18.2554C11.4725 18.5407 11.8712 18.8501 12.2494 19.1834C12.7717 19.6534 13.2724 20.1824 13.722 20.6614C13.722 20.6614 13.64 20.6614 13.6093 20.7314C12.824 21.6646 11.7682 22.3442 10.5803 22.681C9.3924 23.0177 8.12802 22.9959 6.95306 22.6184ZM11.4834 8.1504C11.7988 7.5934 11.9033 6.9464 11.7804 6.3224C11.7079 5.99756 11.562 5.69267 11.3532 5.43002C11.1445 5.16737 10.8783 4.95361 10.5741 4.8044C10.2839 4.65639 9.96401 4.57251 9.63697 4.55868C9.30994 4.54486 8.98379 4.60143 8.68164 4.7244C8.39286 4.8414 8.13173 5.0144 7.91565 5.2344C7.63643 5.51107 7.39066 5.81373 7.17834 6.1424C7.12131 6.21666 7.09682 6.31 7.11026 6.4019C7.12371 6.49379 7.17398 6.5767 7.25003 6.6324C7.32535 6.685 7.4186 6.70709 7.51023 6.69404C7.60186 6.68099 7.68476 6.63381 7.74157 6.5624C7.95525 6.29573 8.19726 6.05573 8.46761 5.8424C8.6161 5.7194 8.79018 5.6274 8.97861 5.5734C9.15282 5.53015 9.33463 5.52475 9.51121 5.55758C9.68779 5.5904 9.85485 5.66066 10.0006 5.7634C10.1347 5.84914 10.2481 5.96232 10.333 6.0951C10.4179 6.22788 10.4722 6.37709 10.4921 6.5324C10.5362 6.8804 10.4573 7.2324 10.2669 7.5304C9.92562 8.11117 9.49843 8.63953 8.99909 9.0984C8.91717 9.1884 8.22184 9.8374 7.97607 10.0974C7.8998 10.182 7.84592 10.2836 7.81914 10.3932C7.79237 10.5029 7.79351 10.6173 7.82247 10.7264C7.85728 10.8307 7.92217 10.923 8.00936 10.9922C8.09655 11.0613 8.20233 11.1045 8.31401 11.1164H9.00933L11.2694 11.0564C11.3763 11.0591 11.4801 11.0209 11.5586 10.9499C11.637 10.8789 11.6839 10.7807 11.6892 10.6764C11.6894 10.5737 11.649 10.4749 11.5766 10.4004C11.5042 10.3259 11.4052 10.2815 11.3001 10.2764L9.45888 10.1464C9.65345 10.0264 9.83778 9.9364 9.8685 9.9164C10.4981 9.41343 11.043 8.81819 11.4834 8.1504ZM17.8949 8.4004C17.8923 8.2934 17.8468 8.19167 17.7684 8.11693C17.6899 8.04219 17.5847 8.00037 17.4751 8.0004L16.4531 7.9204V7.2604C16.4531 6.5424 16.2892 5.8434 16.1971 5.1244C16.1971 5.0344 16.1605 4.94807 16.0955 4.88434C16.0304 4.8206 15.9421 4.78466 15.8499 4.7844C15.8033 4.78306 15.757 4.79087 15.7135 4.80735C15.6701 4.82384 15.6305 4.84867 15.5971 4.88038C15.5637 4.91208 15.5371 4.95002 15.519 4.99194C15.5008 5.03385 15.4915 5.0789 15.4915 5.1244C15.3891 5.8334 15.257 6.5124 15.1648 7.2314V7.7704H14.7859C14.5718 7.74591 14.3699 7.65968 14.2062 7.52272C14.0424 7.38576 13.9241 7.20428 13.8664 7.0014C13.6712 6.45595 13.544 5.88954 13.4875 5.3144C13.4828 5.26142 13.4654 5.21026 13.4368 5.16502C13.4082 5.11978 13.3691 5.08172 13.3227 5.05391C13.2763 5.02609 13.2239 5.0093 13.1696 5.00487C13.1153 5.00044 13.0608 5.0085 13.0103 5.0284C12.9432 5.05413 12.8856 5.099 12.8451 5.15715C12.8045 5.2153 12.7829 5.28404 12.7829 5.3544C12.5986 6.1774 12.6293 7.0324 12.8751 7.8404C13.0335 8.14863 13.2659 8.41489 13.5524 8.61652C13.839 8.81814 14.1712 8.94916 14.5207 8.9984C14.705 9.0084 14.8894 9.0084 15.0737 8.9984C15.0737 9.7184 15.1761 10.4064 15.2171 11.1254C15.2143 11.2285 15.2535 11.3285 15.326 11.4034C15.3986 11.4784 15.4986 11.5223 15.6042 11.5254C15.7077 11.5257 15.8075 11.4877 15.8835 11.419C15.9594 11.3504 16.006 11.2562 16.0138 11.1554C16.1264 10.4564 16.2595 9.7574 16.3415 9.0484C16.3365 8.99184 16.3365 8.93496 16.3415 8.8784L17.4249 8.7584C17.48 8.76539 17.536 8.76161 17.5896 8.7473C17.6433 8.73299 17.6934 8.70842 17.7373 8.67503C17.7811 8.64163 17.8177 8.60007 17.8449 8.55276C17.8722 8.50544 17.8895 8.45331 17.896 8.3994" fill="#666666"/>
</svg>
