<svg width="21" height="22" viewBox="0 0 21 22" fill="none" xmlns="http://www.w3.org/2000/svg">
<path fill-rule="evenodd" clip-rule="evenodd" d="M13.2655 11.413C13.0962 10.9363 12.7824 10.5235 12.3675 10.2316C11.9526 9.93967 11.457 9.78296 10.9488 9.78304V9.17188H9.72043V9.78304C9.06885 9.78304 8.44397 10.0406 7.98324 10.4991C7.52251 10.9575 7.26367 11.5793 7.26367 12.2277C7.26367 12.876 7.52251 13.4979 7.98324 13.9563C8.44397 14.4148 9.06885 14.6723 9.72043 14.6723V17.117C9.18608 17.117 8.73097 16.7778 8.56145 16.3023C8.5363 16.2245 8.49573 16.1525 8.44213 16.0906C8.38854 16.0287 8.32301 15.9781 8.24942 15.9418C8.17583 15.9056 8.09568 15.8843 8.01371 15.8794C7.93173 15.8745 7.8496 15.886 7.77217 15.9132C7.69474 15.9404 7.62358 15.9828 7.5629 16.0379C7.50222 16.093 7.45326 16.1596 7.41891 16.2338C7.38455 16.308 7.36551 16.3884 7.3629 16.47C7.36029 16.5517 7.37416 16.6331 7.40371 16.7093C7.57305 17.1861 7.88678 17.5988 8.3017 17.8908C8.71661 18.1827 9.21228 18.3394 9.72043 18.3393V18.9505H10.9488V18.3393C11.6004 18.3393 12.2253 18.0817 12.686 17.6233C13.1467 17.1648 13.4056 16.543 13.4056 15.8947C13.4056 15.2463 13.1467 14.6245 12.686 14.166C12.2253 13.7076 11.6004 13.45 10.9488 13.45V11.0054C11.2028 11.0053 11.4506 11.0836 11.6581 11.2295C11.8656 11.3754 12.0224 11.5817 12.1072 11.82C12.1614 11.9729 12.2744 12.098 12.4214 12.168C12.4942 12.2026 12.5731 12.2226 12.6537 12.2269C12.7342 12.2311 12.8148 12.2196 12.8909 12.1928C12.9669 12.1661 13.037 12.1248 13.0969 12.0711C13.1569 12.0174 13.2057 11.9526 13.2405 11.8801C13.2753 11.8077 13.2954 11.7292 13.2997 11.649C13.304 11.5689 13.2924 11.4887 13.2655 11.413ZM9.72043 11.0054C9.39464 11.0054 9.0822 11.1341 8.85183 11.3634C8.62147 11.5926 8.49205 11.9035 8.49205 12.2277C8.49205 12.5519 8.62147 12.8628 8.85183 13.092C9.0822 13.3212 9.39464 13.45 9.72043 13.45V11.0054ZM10.9488 17.117C11.2746 17.117 11.587 16.9882 11.8174 16.759C12.0478 16.5297 12.1772 16.2188 12.1772 15.8947C12.1772 15.5705 12.0478 15.2596 11.8174 15.0303C11.587 14.8011 11.2746 14.6723 10.9488 14.6723V17.117Z" fill="black" fill-opacity="0.6"/>
<path fill-rule="evenodd" clip-rule="evenodd" d="M3.67326 1.60186C5.18048 0.86785 7.6532 0 10.3593 0C13.0089 0 15.4165 0.831791 16.9158 1.55602L17.0005 1.59697C17.4526 1.81943 17.8174 2.02967 18.0741 2.20018L15.8053 5.50046C21.0358 10.8212 25.0759 22 10.3593 22C-4.35725 22 -0.425832 11.0241 4.85005 5.50046L2.59598 2.20018C2.76979 2.08712 2.99028 1.95572 3.25316 1.81637C3.38337 1.7467 3.5234 1.67479 3.67326 1.60186ZM14.3472 5.45707L16.1634 2.81501C14.4744 2.93602 12.4648 3.33083 10.5301 3.88821C9.14814 4.28547 7.61267 4.22496 6.19082 3.964C5.83251 3.89798 5.47667 3.8193 5.12398 3.72809L6.30322 5.45584C8.8306 6.3512 11.8192 6.3512 14.3472 5.45707ZM5.59383 6.49665C8.55115 7.63341 12.1055 7.63341 15.0628 6.49543C16.2969 7.79056 17.3295 9.262 18.1263 10.861C18.9567 12.5465 19.4088 14.2315 19.3351 15.6836C19.2638 17.085 18.7098 18.2823 17.4446 19.1722C16.1259 20.0993 13.9081 20.7777 10.3587 20.7777C6.80562 20.7777 4.57735 20.1109 3.2464 19.1942C1.97196 18.3159 1.41243 17.1345 1.3332 15.7521C1.25029 14.3159 1.6925 12.6394 2.51982 10.9422C3.30905 9.32389 4.41029 7.76604 5.59383 6.49665ZM4.88751 2.39331C5.37886 2.53877 5.89233 2.66528 6.41316 2.76123C7.73366 3.00325 9.05785 3.0387 10.188 2.71295C11.5049 2.33103 12.8443 2.03079 14.1986 1.81393C13.0685 1.47535 11.7468 1.22232 10.3587 1.22232C8.24283 1.22232 6.26944 1.80965 4.88751 2.39331Z" fill="black" fill-opacity="0.6"/>
</svg>
