<svg width="24" height="24" viewBox="0 0 24 24" fill="none" xmlns="http://www.w3.org/2000/svg">
<path d="M10.1707 11.1562H11.8208V18.7716M9.3457 18.7716H14.296" stroke="black" stroke-opacity="0.6" stroke-linecap="round" stroke-linejoin="round"/>
<path d="M2.74579 4.38462C2.30816 4.38462 1.88846 4.56291 1.579 4.88028C1.26955 5.19765 1.0957 5.6281 1.0957 6.07692V21.3077C1.0957 21.7565 1.26955 22.187 1.579 22.5043C1.88846 22.8217 2.30816 23 2.74579 23H20.8968C21.3344 23 21.7541 22.8217 22.0636 22.5043C22.373 22.187 22.5469 21.7565 22.5469 21.3077V6.07692C22.5469 5.6281 22.373 5.19765 22.0636 4.88028C21.7541 4.56291 21.3344 4.38462 20.8968 4.38462H17.5966M6.04598 1V7.76923M17.5966 1V7.76923M6.04598 4.38462H14.2964" stroke="black" stroke-opacity="0.6" stroke-linecap="round" stroke-linejoin="round"/>
</svg>
