<svg width="22" height="14" viewBox="0 0 22 14" fill="none" xmlns="http://www.w3.org/2000/svg">
<path d="M2.93336 11H8.29615C8.67601 11 8.99465 11.132 9.25207 11.396C9.50948 11.66 9.63774 11.9863 9.63685 12.375C9.63685 12.7646 9.50814 13.0914 9.25073 13.3554C8.99331 13.6194 8.67512 13.7509 8.29615 13.75H1.59266C1.21279 13.75 0.894153 13.618 0.636739 13.354C0.379324 13.09 0.251064 12.7637 0.251958 12.375V1.375C0.251958 0.985421 0.380665 0.65863 0.638079 0.39463C0.895493 0.13063 1.21369 -0.000911909 1.59266 4.75778e-06H8.29615C8.67601 4.75778e-06 8.99465 0.132005 9.25207 0.396005C9.50948 0.660005 9.63774 0.986338 9.63685 1.375C9.63685 1.76459 9.50814 2.09138 9.25073 2.35538C8.99331 2.61938 8.67512 2.75092 8.29615 2.75H2.93336V5.5H6.95545C7.33532 5.5 7.65396 5.632 7.91137 5.896C8.16878 6.16 8.29704 6.48634 8.29615 6.875C8.29615 7.26459 8.16744 7.59138 7.91003 7.85538C7.65262 8.11938 7.33442 8.25092 6.95545 8.25H2.93336V11ZM14.9996 13.75C14.2623 13.75 13.6308 13.4805 13.1052 12.9415C12.5797 12.4025 12.3174 11.7553 12.3182 11C12.3182 10.6104 12.447 10.2836 12.7044 10.0196C12.9618 9.75563 13.28 9.62408 13.6589 9.625C14.0388 9.625 14.3575 9.757 14.6149 10.021C14.8723 10.285 15.0005 10.6113 14.9996 11H19.0217V8.25H14.9996C14.2623 8.25 13.6308 7.9805 13.1052 7.4415C12.5797 6.9025 12.3174 6.25534 12.3182 5.5V2.75C12.3182 1.99375 12.581 1.34613 13.1066 0.807129C13.6321 0.26813 14.2632 -0.000911909 14.9996 4.75778e-06H19.0217C19.7591 4.75778e-06 20.3906 0.269504 20.9161 0.808504C21.4417 1.3475 21.704 1.99467 21.7031 2.75C21.7031 3.13959 21.5744 3.46638 21.317 3.73038C21.0596 3.99438 20.7414 4.12592 20.3624 4.125C19.9826 4.125 19.6639 3.993 19.4065 3.729C19.1491 3.465 19.0208 3.13867 19.0217 2.75H14.9996V5.5H19.0217C19.7591 5.5 20.3906 5.7695 20.9161 6.3085C21.4417 6.8475 21.704 7.49467 21.7031 8.25V11C21.7031 11.7563 21.4404 12.4039 20.9148 12.9429C20.3893 13.4819 19.7582 13.7509 19.0217 13.75H14.9996Z" fill="black" fill-opacity="0.6"/>
</svg>
