<svg width="15" height="22" viewBox="0 0 15 22" fill="none" xmlns="http://www.w3.org/2000/svg">
<path fill-rule="evenodd" clip-rule="evenodd" d="M4.23628 15.0934C4.32515 15.0693 4.41856 15.069 4.50756 15.0926C4.59656 15.1162 4.67814 15.1629 4.74448 15.2281L6.4862 16.9413C6.55707 17.0111 6.60786 17.0996 6.63301 17.1971C6.65816 17.2945 6.6567 17.3972 6.6288 17.4938L6.24872 18.81C6.15392 19.1386 5.96168 19.4288 5.6987 19.6402L3.2097 21.6393C3.04368 21.7753 2.85303 21.8762 2.64876 21.9362C2.44449 21.9962 2.23065 22.0141 2.0196 21.9889C1.80854 21.9637 1.60446 21.8958 1.41913 21.7892C1.23381 21.6825 1.07092 21.5393 0.939884 21.3678C0.808845 21.1962 0.712252 20.9998 0.655687 20.7897C0.599122 20.5796 0.583707 20.3602 0.61033 20.144C0.636954 19.9278 0.70509 19.7191 0.810801 19.5301C0.916512 19.341 1.0577 19.1753 1.22621 19.0426L3.31102 17.3679L3.85942 15.4684C3.88561 15.378 3.93403 15.296 4.00003 15.2304C4.06603 15.1647 4.14738 15.1175 4.23628 15.0934ZM4.63781 16.6461L4.28989 17.8484C4.25826 17.9579 4.19418 18.0546 4.10655 18.125L1.8872 19.9085C1.77907 19.9997 1.71001 20.1306 1.69477 20.2733C1.67953 20.416 1.71933 20.5592 1.80565 20.6722C1.89197 20.7852 2.01798 20.8591 2.15673 20.8781C2.29548 20.8971 2.43597 20.8597 2.54818 20.7739L5.03718 18.7743C5.12501 18.704 5.18928 18.6073 5.22106 18.4977L5.50839 17.5026L4.63781 16.6461ZM9.28934 4.39834C9.71587 4.39834 10.1249 4.22456 10.4265 3.91524C10.7281 3.60593 10.8976 3.1864 10.8976 2.74896C10.8976 2.31152 10.7281 1.89199 10.4265 1.58267C10.1249 1.27336 9.71587 1.09958 9.28934 1.09958C8.86281 1.09958 8.45375 1.27336 8.15215 1.58267C7.85055 1.89199 7.68111 2.31152 7.68111 2.74896C7.68111 3.1864 7.85055 3.60593 8.15215 3.91524C8.45375 4.22456 8.86281 4.39834 9.28934 4.39834ZM9.28934 5.49792C10.0002 5.49792 10.682 5.2083 11.1847 4.69277C11.6873 4.17724 11.9697 3.47803 11.9697 2.74896C11.9697 2.01989 11.6873 1.32068 11.1847 0.805152C10.682 0.289622 10.0002 0 9.28934 0C8.57846 0 7.8967 0.289622 7.39403 0.805152C6.89136 1.32068 6.60896 2.01989 6.60896 2.74896C6.60896 3.47803 6.89136 4.17724 7.39403 4.69277C7.8967 5.2083 8.57846 5.49792 9.28934 5.49792Z" fill="black" fill-opacity="0.6"/>
<path fill-rule="evenodd" clip-rule="evenodd" d="M5.9364 5.69236C6.70192 5.40097 7.52426 5.41747 8.26244 5.80947C8.9647 6.18168 9.4402 6.81174 9.73933 7.47039C9.85119 7.7167 9.95537 7.94743 10.0519 8.16258C10.2877 8.68708 10.4807 9.11757 10.6657 9.49308C10.9262 10.0247 11.117 10.3365 11.2854 10.5377C11.4301 10.7098 11.554 10.7972 11.7137 10.861C11.9013 10.9368 12.2085 11.0056 12.7548 11.0226C13.1519 11.0348 13.528 11.2082 13.8004 11.5048C14.0728 11.8014 14.2191 12.1968 14.2073 12.6041C14.1954 13.0113 14.0263 13.3971 13.7371 13.6764C13.4479 13.9558 13.0623 14.1059 12.6652 14.0937C11.9378 14.0712 11.2532 13.9755 10.6233 13.7232C9.96502 13.4593 9.44556 13.0563 9.01241 12.5384C8.96088 12.477 8.91083 12.4143 8.86231 12.3503L8.64627 13.5071L10.9873 15.8762C11.1369 16.0268 11.2532 16.2082 11.3299 16.4084L12.6615 19.8885C12.7333 20.0763 12.7684 20.2768 12.7647 20.4785C12.761 20.6802 12.7186 20.8792 12.6399 21.064C12.5613 21.2489 12.4478 21.4161 12.3062 21.5561C12.1645 21.696 11.9973 21.8059 11.8142 21.8796C11.6311 21.9533 11.4356 21.9893 11.239 21.9855C11.0423 21.9817 10.8483 21.9382 10.668 21.8575C10.4878 21.7768 10.3247 21.6605 10.1883 21.5152C10.0519 21.3699 9.94465 21.1985 9.87281 21.0107L8.65699 17.8345L4.44396 13.5709C4.28269 13.4074 4.15964 13.2085 4.08406 12.9892C4.00848 12.7699 3.98234 12.5359 4.0076 12.3047L4.18182 10.7268C3.70364 11.3607 3.30158 12.1233 3.02068 13.0249C2.8999 13.4131 2.63372 13.7361 2.2807 13.923C1.92767 14.1099 1.51672 14.1453 1.13825 14.0214C0.759773 13.8976 0.444779 13.6246 0.262562 13.2625C0.080344 12.9005 0.0458282 12.479 0.166607 12.0908C1.11439 9.0461 3.25816 6.75291 5.91871 5.69951L5.92193 5.69786L5.9364 5.69236ZM6.31166 6.72267L6.30308 6.72597C3.95399 7.65677 2.03912 9.6899 1.18837 12.4251C1.17137 12.4797 1.16502 12.5373 1.1697 12.5944C1.17437 12.6515 1.18997 12.7072 1.21561 12.7581C1.24124 12.8091 1.27641 12.8543 1.31911 12.8913C1.36181 12.9283 1.41119 12.9564 1.46445 12.9738C1.51771 12.9912 1.57379 12.9978 1.6295 12.993C1.68521 12.9882 1.73945 12.9722 1.78913 12.9459C1.83881 12.9196 1.88295 12.8835 1.91904 12.8397C1.95513 12.7959 1.98245 12.7453 1.99945 12.6907C2.53231 10.9792 3.46026 9.6844 4.55118 8.77065C4.6337 8.7016 4.7344 8.65932 4.84044 8.6492C4.94649 8.63909 5.05307 8.6616 5.14659 8.71386C5.24011 8.76612 5.31633 8.84576 5.36553 8.94264C5.41473 9.03951 5.43468 9.14922 5.42284 9.25777L5.07332 12.4284C5.06633 12.494 5.07383 12.5604 5.09526 12.6227C5.1167 12.6849 5.15152 12.7414 5.19715 12.788L9.49113 17.1335C9.54509 17.1881 9.58601 17.2516 9.61389 17.3238L10.871 20.6093C10.8907 20.6637 10.9207 20.7135 10.9594 20.7558C10.9981 20.7982 11.0446 20.8322 11.0962 20.8559C11.1478 20.8796 11.2035 20.8924 11.2601 20.8938C11.3166 20.8952 11.3729 20.8849 11.4255 20.8638C11.4782 20.8426 11.5262 20.8108 11.5667 20.7704C11.6073 20.73 11.6396 20.6816 11.6617 20.6283C11.6838 20.5749 11.6954 20.5175 11.6957 20.4595C11.6959 20.4015 11.6849 20.344 11.6633 20.2904L10.3317 16.8103C10.31 16.7533 10.2769 16.7016 10.2347 16.6585L7.68937 14.0833C7.62662 14.0198 7.58009 13.9415 7.55391 13.8552C7.52773 13.7689 7.5227 13.6773 7.53927 13.5885L8.06516 10.7708C8.086 10.6587 8.14031 10.5561 8.22057 10.4771C8.30084 10.3981 8.40308 10.3466 8.51312 10.3299C8.62316 10.3132 8.73556 10.332 8.83472 10.3837C8.93388 10.4354 9.01491 10.5175 9.06655 10.6185C9.30779 11.0897 9.54902 11.4927 9.82564 11.8225C10.1559 12.2167 10.5338 12.5065 11.0136 12.6989C11.4853 12.888 12.0348 12.9738 12.6969 12.9942C12.7534 12.997 12.8098 12.9882 12.863 12.9684C12.9162 12.9486 12.9649 12.9181 13.0065 12.8788C13.048 12.8394 13.0815 12.7919 13.105 12.7392C13.1284 12.6864 13.1414 12.6293 13.1431 12.5713C13.1448 12.5134 13.1352 12.4556 13.1149 12.4015C13.0946 12.3473 13.064 12.2979 13.0249 12.256C12.9857 12.2141 12.9388 12.1807 12.8869 12.1576C12.835 12.1345 12.7792 12.1223 12.7226 12.1216C12.1115 12.1029 11.6697 12.0243 11.3234 11.8852C10.9857 11.75 10.7198 11.5498 10.4721 11.2535C10.217 10.9495 9.98003 10.5421 9.70824 9.98789C9.49191 9.53879 9.28282 9.08606 9.08103 8.6299L9.07835 8.6233C8.98221 8.40815 8.87857 8.17852 8.76742 7.93441C8.53691 7.42751 8.20454 7.01626 7.77032 6.7859C7.32645 6.55059 6.822 6.5286 6.31166 6.72267Z" fill="black" fill-opacity="0.6"/>
</svg>
